<svg xmlns="http://www.w3.org/2000/svg" viewBox="0 0 275.33 58.49"><defs><style>.cls-1{fill:#00888a}.cls-2{fill:#0053a1}.cls-3{fill:#1d1d1b}.cls-3,.cls-4,.cls-5,.cls-6{fill-rule:evenodd}.cls-4{fill:#99c18b}.cls-5{fill:#add1d2}.cls-6{fill:#699477}</style></defs><title>normal</title><g id="Слой_2" data-name="Слой 2"><g id="Слой_1-2" data-name="Слой 1"><path class="cls-1" d="M160.22 0l10.13 37.12L180.48 0h8.08l-16.28 58.48h-4L152.14 0z"/><path class="cls-2" d="M6.51 11.17h4.73l9.51 22.91 9.93-22.91h4.73l5.88 35.67h-6.93l-3.15-21.59-9.62 22.07H19.7l-9.19-22.07-3.58 21.59H0zm114.44 8.62a6.85 6.85 0 0 0-5.73-3c-3.68 0-4.83 2.31-4.83 4.1a3 3 0 0 0 1.1 2.37c.84.79 2 1.21 4.2 2 2.73.95 5.31 1.89 7.09 3.52a9.53 9.53 0 0 1 3 7.36c0 6.83-4.94 11.51-12.19 11.51A14.42 14.42 0 0 1 101.51 41l4.49-4.24a8.22 8.22 0 0 0 7.36 4.68c3.1 0 5.41-1.89 5.41-4.83a4.07 4.07 0 0 0-1.37-3.15c-1.31-1.21-3.41-1.89-5.41-2.58a16.85 16.85 0 0 1-5.83-3 8.15 8.15 0 0 1-2.78-6.51c0-5.15 3.47-10.3 11.24-10.3a13.47 13.47 0 0 1 9.93 4.1zm30.26-2.11H138.6v7.83h12.08v5.89H138.6V41h12.61v5.88h-19.44v-35h19.44zm57.71 0h-12.61v7.83h12.09v5.89h-12.09V41h12.61v5.88h-19.44v-35h19.44zm6.62 29.16V11h4.73l21.33 24.39V11.8h6.83v35.73h-4.73l-21.33-24.38v23.69zm51.91-29.16v29.16h-6.83V17.68h-7.88V11.8h22.59v5.88z"/><path class="cls-3" d="M98.91 38.45a29.36 29.36 0 0 1-8 12.43 28.9 28.9 0 0 1-13.43 7A30.74 30.74 0 0 1 60 56.35a29.16 29.16 0 0 1-11.63-8.72 28.49 28.49 0 0 1-6.16-14.24 29.81 29.81 0 0 1 2.73-17.06A28.93 28.93 0 0 1 69.64 0a5.16 5.16 0 0 0 1.07.09 8.11 8.11 0 0 0 1 .09c0 .1.17 0 .23 0-.23.16-.71.06-.93.23-1.41.27-2.71.51-4.01.8-.08 0-.27-.06-.28 0a1.86 1.86 0 0 0-.74.14c-.08 0-.27-.06-.28 0-1.26 0-1.77.68-2.5 1.3a22.78 22.78 0 0 0-3.71 3.71 1.56 1.56 0 0 0-.42.51 1 1 0 0 0-.37.46c-.08.06-.18.1-.19.23a6.2 6.2 0 0 0-1.3 1.81.47.47 0 0 0-.19.33c-.13.06-.15.25-.23.37a7.82 7.82 0 0 1 1.94-.37v.65c-.3.21-.69.33-1 .56h-.09a7.26 7.26 0 0 0-1.34.7.84.84 0 0 0-.46.23c-3.83 1.74-6.71 4.45-10.14 6.59a6.75 6.75 0 0 1-.37 1 18.21 18.21 0 0 0 2 1c0 .07-.05.24 0 .23.21 1.13-.38 1.75-.6 2.64s-.11 2-.42 3c-.05 0-.05.07 0 .14s-.07.24-.14.33a13 13 0 0 0-2.27.69 2.17 2.17 0 0 0-.69 2.09v.09a19.06 19.06 0 0 0 .23 3.43 18.32 18.32 0 0 0 1.81-1.86 41.64 41.64 0 0 1 5.83-5.15c.07-.95.16-1.88.19-2.88.09-.12 0-.4 0-.6a19.79 19.79 0 0 1 1.39-5.42c.87 2.64-.93 5.17-.23 8 .68-.24 1.42-.84 2.18-1.16-.1-.34-.42-.44-.56-.74a7.42 7.42 0 0 1-.23-1.21 6.64 6.64 0 0 1-.28-1.16 10 10 0 0 1 .42-1.76 7 7 0 0 0 .42-1.81c0-.45-.44-.74-.51-1.11a7.48 7.48 0 0 1 1.2-2.27A23.13 23.13 0 0 1 58.39 11a26.23 26.23 0 0 1 2.36-2.23c.43.9-.32 1.36-.79 1.9s-.6.83-.93 1.16c-.59.59-1.32 1-1.85 1.58-.74.85-1 1.84-1.71 2.64a5.37 5.37 0 0 0 .56.79 7.85 7.85 0 0 1-.46 2.88 16.48 16.48 0 0 0-.23 4 31.12 31.12 0 0 1 6.34-2.37c-2.92 2-6.12 3.67-9 5.7a36.36 36.36 0 0 0 3.07 14.55 2 2 0 0 0 .28.65c0 .13.07.12 0 .23A63.1 63.1 0 0 1 66 37.24c.49-1.23.82-2.61 1.39-3.76v-.09a12.82 12.82 0 0 0 .72-1.39 59.5 59.5 0 0 0-6.34-2.46 5.19 5.19 0 0 1 1.11-1.16 29.43 29.43 0 0 1 6.07 3 4.88 4.88 0 0 0 .28 1c.25.67-.31 1.09-.69 1.58s-.88.89-.93 1.67a4.05 4.05 0 0 0-.23.93 21.37 21.37 0 0 1 2.27-.46 18.16 18.16 0 0 1 4.85-.1c.05.14-.2.32-.37.46a4.46 4.46 0 0 1-1.85.79c-1.25.34-2.65.54-3.94.93-.22.07-1.5.43-1.48.79s1.46.84 1.67 1c.52.35.95.92 1.39 1.21s1.18.49 1.71.84c0 .54.25 1 .23 1.58s-.37 1-.42 1.53a15 15 0 0 1 0 2.88 4 4 0 0 0-.19.79.42.42 0 0 0-.09.33 10.84 10.84 0 0 1-.79-1.81 11.12 11.12 0 0 1 .09-2.13c0-.76 0-1.49.09-2.18-1.6-1.14-3.61-1.86-5-3.25-.1-.07-.11-.23-.09-.42a31.17 31.17 0 0 0-4.4 2.23A23 23 0 0 0 56.91 44c1.88 3.45 4.67 6 7.22 8.77a25.12 25.12 0 0 0 3.75 2.13c2.68-.13 4.69-.93 7.13-1.3 1.09-1.18 1.5-3 3.06-3.76-.26.62-.57 1.19-.79 1.85a.43.43 0 0 0-.14.33c-.33.6-.59 1.26-.88 1.9a21.41 21.41 0 0 1 4.12-.7 8 8 0 0 0 1.39 0 .81.81 0 0 0 .42-.28 27.33 27.33 0 0 0 5-4.17 11.25 11.25 0 0 0 1-1.58 33.32 33.32 0 0 0 2.55-3.34c.36 0 .92-.24 1.11-.09a.47.47 0 0 0-.14.28 5.34 5.34 0 0 0-.46.93c-.18.39-.4.74-.56 1.16a1.91 1.91 0 0 0-.28.56A11 11 0 0 0 89.33 48c-1.13 1.26-2.33 2.47-3.43 3.71-.23.08-.31.3-.51.42-.73.68-1.52 1.3-2.22 2a.51.51 0 0 0-.33.23 2.61 2.61 0 0 0-.69.46c0 .1.2 0 .23 0a3.73 3.73 0 0 0 .83-.23.35.35 0 0 0 .37-.18c.12 0 .14-.07.19-.14 1.82-1.36 4-2.39 5.7-3.85.12 0 .14-.07.18-.14A5.77 5.77 0 0 0 91.13 49a4.65 4.65 0 0 0 1.07-2.6.67.67 0 0 0 .09-.42c.1 0 0-.17 0-.23a.67.67 0 0 0 .09-.42c.14-.17.08-.54.09-.84a4.33 4.33 0 0 0 0-1 2.33 2.33 0 0 0-.6-2 2.34 2.34 0 0 0-.42-.7 5.9 5.9 0 0 0-1.95-1.48A1.29 1.29 0 0 0 89 39a5.76 5.76 0 0 0-2.27-.88 17.51 17.51 0 0 0-.42 2.64c-.22.53-.16 1.36-.46 1.81-.56.09-1.07.71-1.71.84-1 .19-2-.14-3.1 0a35.12 35.12 0 0 1-1.81 4.36c-.44.28-.76.69-1.2 1 .28-.88.65-1.67.88-2.6a1 1 0 0 0 .19-.51 27.3 27.3 0 0 0 1.58-6.26 1.36 1.36 0 0 0 .09-.56 12.55 12.55 0 0 0 .23-1.6 7.18 7.18 0 0 0-2.83.23v-.19c0-.33-.08-.51 0-.84.64-.11 1.31-.17 1.9-.33.4 0 .73-.11 1.11-.14a4.92 4.92 0 0 0 0-1.07v-.09c.2-3.36.17-6.67.18-10.2 0-.2.06-.52 0-.65a13.54 13.54 0 0 0-.28-1.81 26.42 26.42 0 0 0-.51-3.15v-.09c-.76 0-2.39-.49-2.59.19a1 1 0 0 0-.28.46 2 2 0 0 0-.42.65c-.07 0-.15.07-.14.18a4.61 4.61 0 0 1-3.14 2.1 6.56 6.56 0 0 1-.09 2.32 2.22 2.22 0 0 0-.14.6c-.07 0 0 .11 0 .18s-.05 0 0 .09c-.34.08-.63.2-1 .28-1-.43-1.05-1.76-1.34-2.87-.26-.24-.62-.37-.88-.6a9.16 9.16 0 0 0-3.33 1.72c-.11-.4-.26-.76-.37-1.16a18.83 18.83 0 0 1 4.31-2.18c.43.14.85.29 1.25.46a12 12 0 0 0 .42 3 14.76 14.76 0 0 1 .83-2.69c.58-.27 1.2-.5 1.81-.74a17 17 0 0 0 2-2c-4.44.06-8.16 1.26-11.86 2.23a12.88 12.88 0 0 1 .39-1.51 46.29 46.29 0 0 1 10.33-2 8.35 8.35 0 0 0 1.71-.09c.27-.1.51-.56.74-.84s.56-.61.74-.88c-.24-.67-.48-1.34-.7-2a25.31 25.31 0 0 0-3.15 2.32c-.41-.28-.62-.77-1-1.11 1-1.33 2-2.63 3.15-3.85a23.42 23.42 0 0 0-2.55-4.59c0-.14-.19-.36-.28-.28-1.68 0-3.23 0-4.86.14a1.73 1.73 0 0 0-.6.09.55.55 0 0 0-.42.09h-.37a1 1 0 0 0-.51.09h-.19c-.01 0-.27-.06-.28 0a10.44 10.44 0 0 0-1.71.32c-1.16.27-1.94.71-2.5-.23a39.6 39.6 0 0 1 4.12-1 3.63 3.63 0 0 0 .83-.14c.18 0 .23-.08.42 0 0-.18-.15-.23-.28-.28s-.1-.21-.28-.18a2.22 2.22 0 0 0-.88-.19c0-.1-.2 0-.28 0a4.87 4.87 0 0 0-1.2-.23c0-.07-.11 0-.19 0a2.84 2.84 0 0 0-.81-.23.68.68 0 0 0-.42-.09c.31-.32.89-.37 1.25-.65a14.91 14.91 0 0 1 2.92.56 4.07 4.07 0 0 0 .79-1c-1.38 0-3.13-.29-4.21.18-.59.08-1.07.26-1.67.33.08-.27.09-.62.19-.88.79-.11 1.63-.16 2.36-.33 1.07.1 2.07-.5 3-.42.61.06.94.59 1.53.65v.09a1 1 0 0 0-.19.51 3.18 3.18 0 0 0-.28.74c-.2.4-.32.89-.51 1.3.07.07.28 0 .37 0a2.36 2.36 0 0 0 .87-.21c.1 0 .3.06.32 0a5.69 5.69 0 0 0 1.3-.14c.14 0 .4.06.46 0 .37 0 .6-.08 1 0a1.85 1.85 0 0 0-.74-.79 1.22 1.22 0 0 0-.46-.37 9 9 0 0 0-1.3-1 3.8 3.8 0 0 0-1-.6 8.89 8.89 0 0 0-1.44-.84 9.33 9.33 0 0 1 2.32-.18c.62.13.88.91 1.39 1.07a1.53 1.53 0 0 0 .6.42 6.44 6.44 0 0 0 1.2.83c0 .14.21.16.32.23a5.68 5.68 0 0 0 .93 1c0 .16.14.07.23.09s.6 0 .88 0h.18a16.7 16.7 0 0 0 2.08.14h.28a50.58 50.58 0 0 1 5.79 1c0 .1.16 0 .23 0a15.36 15.36 0 0 0 1.76.37 6.8 6.8 0 0 0-1.44-1 2.26 2.26 0 0 0-.79-.37.68.68 0 0 0-.42-.18.43.43 0 0 0-.33-.14 19.85 19.85 0 0 0-2.22-1 .85.85 0 0 0-.42-.19c-1.44-.8-3.3-1.18-4.35-2.36-.06-.24-.49-.34-.46-.51.82.21 1.58.49 2.41.69a6.68 6.68 0 0 0 1 .28 3.76 3.76 0 0 0 1 .28 3.79 3.79 0 0 0 .93.32.2.2 0 0 0 .19.09 1.58 1.58 0 0 0 .6.23 26.68 26.68 0 0 1 13.38 11.82 28.71 28.71 0 0 1 3.47 9.18 30.56 30.56 0 0 1-.09 11.55c-.14-.28-.09-.74-.23-1-.18-1.57-.74-2.75-.88-4.36v-.14a4.79 4.79 0 0 0 0-1.07c-.36-.31-.8-.52-.93-1.07 0-.15-.07-.18-.09-.28s-.22-.34-.09-.51.13-.06.09-.19a.85.85 0 0 0 .23-.42c.11 0 .05-.13.14-.14s-.08-.2-.18-.23a3.94 3.94 0 0 0-.56-.83 1.05 1.05 0 0 0-.56-.56s0-.05-.09 0 0 .17 0 .19c0 .26-.06.65 0 .83 0 .23-.06.59 0 .74v.09c0 .23-.06.59 0 .74v.23c-.11.13 0 .45 0 .65V28c-.11.11 0 .42 0 .6v.14c-.11.13 0 .45 0 .65v.14c-.11.09 0 .39 0 .56v.23c-.11.11 0 .42 0 .6a4.83 4.83 0 0 0-.14.79 33.77 33.77 0 0 1-1.39 4.82c-.09.24-.45 1.25-.42.83v-.93c.11-.19 0-.57 0-.83a1.34 1.34 0 0 0 .09-.56q.18-.89.28-1.86a1.78 1.78 0 0 0 .09-.56 32.6 32.6 0 0 0 .42-5.38c-1 .07-1.7.9-2.45 1.39a5.49 5.49 0 0 0-.19 1 .4.4 0 0 0 0 .28c-.44 1.91-.7 4-1.07 6a7.31 7.31 0 0 1 3 3.34c-.74.39-1.11-.16-1.57-.51-1-.72-2-1.49-2.78-2.09a10.11 10.11 0 0 1 .42-3 24.32 24.32 0 0 0 .42-2.92 1.21 1.21 0 0 0 0-.74c0-.16.06-.43 0-.51 0-.14.06-.4 0-.46 0-.14.06-.4 0-.46s.06-.43 0-.51c.32-.19.73-.29 1-.51a4.91 4.91 0 0 0 1.11-.51.2.2 0 0 0 .18-.09 1.93 1.93 0 0 0 .69-.32 1.84 1.84 0 0 0 .6-.28c.36-.07.57-.29.93-.37 0-.51.06-1 0-1.58 0-.12.14-.26 0-.33s0-.17 0-.18c-.1-.45-.54-.58-.83-.84a.33.33 0 0 0-.32-.19 14.75 14.75 0 0 0-2-1s0-.05-.09 0-.3-.13-.46-.19a.76.76 0 0 0-.46-.18.54.54 0 0 0-.37-.14.77.77 0 0 0-.46-.19 10.21 10.21 0 0 0-2.32-.79 1.8 1.8 0 0 0-.7-.18 6.26 6.26 0 0 0-1.34-.33.74.74 0 0 0-.51-.14c0-.06-.11 0-.18 0a4.92 4.92 0 0 0-1.25-.14h-.09a4.53 4.53 0 0 0-1.25-.14 6.17 6.17 0 0 0-1.41-.43v.14c.09.6.29 1.1.37 1.72a6.11 6.11 0 0 0 .14 1.14 5.21 5.21 0 0 0 .09 1.11c0 .19-.06.49 0 .6.11 2.09.23 4.16.42 6.17v.14c0 .22-.06.56 0 .7V31c-.16 1.47-.2 3-.37 4.5-.09.08 0 .34-.09.42h.09a10.7 10.7 0 0 0 1.76.19 3.77 3.77 0 0 0 1.34.09 12.8 12.8 0 0 0 .23-1.58 10.35 10.35 0 0 0 .14-3.76A9 9 0 0 0 84 30a13.23 13.23 0 0 1 .14-1.53c.3-.07.44.83 1.07.74a13.83 13.83 0 0 0 1.67.14.41.41 0 0 0 .19.19 2.36 2.36 0 0 0 .46.65 27 27 0 0 1-.37 5 7.56 7.56 0 0 0-.19 1.3 2.29 2.29 0 0 0 1 .33c0 .07.11 0 .19 0 .37.14.71.31 1.07.46a3 3 0 0 0 .79.42 16.74 16.74 0 0 1 3.38 3.2c.27.51.45 1.13.74 1.62.06.22.07.49.14.69a14 14 0 0 0 .19 1.63V45c.31 0 .41-.51.28-.83V44c0-1-.09-2-.19-2.92a3 3 0 0 1 1.06-.28v.46c0 .49.11.85.09 1.35.23-.07.32-.37.42-.56a20.08 20.08 0 0 0 1.16-2.18 30.25 30.25 0 0 0 1-4.82c.27.43.48.94.74 1.39v.14c-.11.16 0 .51 0 .74-.11.1 0 .39 0 .56V38c-.18 0-.09.3-.12.45zM58.71 5.19c.77-.88 1.67-1.63 2.5-2.46-.12 0-.26 0-.32.14a.23.23 0 0 0-.23.09.77.77 0 0 0-.46.18 2 2 0 0 0-.79.37c-1 .43-2 .94-2.92 1.44a1.25 1.25 0 0 0-.65.46c-3.11 2.17-5.28 5.29-7.6 8.25a.13.13 0 0 0-.09.14 8.5 8.5 0 0 0-.83 1.67.2.2 0 0 0-.09.19c-.08.15-.3.41-.23.56a18.82 18.82 0 0 1 4.49-3.11c1.09-.64 2.2-1.27 3.33-1.81a5.41 5.41 0 0 0 .32-.83 7.52 7.52 0 0 0 .51-1.25 4.91 4.91 0 0 1 .7-1.11c.09-.08.21-.12.23-.28a18.91 18.91 0 0 0 1.95-2.41c.08-.05.18-.09.18-.23zm20.19 4.87a7.52 7.52 0 0 0 1.76-1.44c-.38-.4-.84-.65-1.34-1.12s-.87-1.5-2.18-1.19a33.75 33.75 0 0 1 1.76 3.75zm1.2-3.48a3.82 3.82 0 0 0 .7.42 1.79 1.79 0 0 0 .79.33c.24.17.65.18.83.42-.06.58-.15 1.11-.56 1.35s-.81.64-1.3 1.07-1.17.93-1.11 1.25a1.07 1.07 0 0 0 .28.6 6.39 6.39 0 0 0 1.2-.74c.23 0 .26-.23.51-.23.29.19.58.38.88.56a2.13 2.13 0 0 0 .14.74c0 .07-.05.24 0 .23a1 1 0 0 0 .09.51c0 .07-.05.24 0 .23a1 1 0 0 0 .09.51c0 .21.08.29 0 .51a4.14 4.14 0 0 1-1.9 1.16 14 14 0 0 0 .46 1.67v.14c.13.12.29 0 .46 0a2.54 2.54 0 0 0 .93.14 2.39 2.39 0 0 0 .6.09 1.81 1.81 0 0 0 .65.09 3.34 3.34 0 0 0 .7.09 1.41 1.41 0 0 0 .6.09h.09c.41.12.87.18 1.3.28a3.58 3.58 0 0 0 .83.23 1 1 0 0 0 .51.14 4.23 4.23 0 0 0 1.16.32c.08.11.26.11.42.14a3.35 3.35 0 0 0 .88.33 14.19 14.19 0 0 0 1.76.65c0 .06.07.05.14 0a16.67 16.67 0 0 0 2 .79c.26.1.67.36.51 0a.69.69 0 0 0-.09-.42 5.77 5.77 0 0 0-.28-1.11 5.23 5.23 0 0 0-.6-1.9.7.7 0 0 0-.18-.42 5 5 0 0 0-.6-1.25.7.7 0 0 0-.28-.42 1.7 1.7 0 0 0-.42-.6.7.7 0 0 0-.28-.42.13.13 0 0 0-.09-.14.51.51 0 0 0-.23-.32 2 2 0 0 0-.32.51 2.15 2.15 0 0 0-.46.65 1.12 1.12 0 0 0-.37.56 4.51 4.51 0 0 0 .56.6c0 .17.17.23.28.33a1.9 1.9 0 0 0 .83.79c.18.25.5.37.7.6-.11.23-.07.61-.19.83-.37 0-.69-.11-1.07-.14-.76-.72-1.56-1.41-2.27-2.18a.49.49 0 0 0-.23-.28c-.05-.24-.41-.29-.18-.56a4.11 4.11 0 0 0 .56-.88 10.29 10.29 0 0 0 1-1.53.13.13 0 0 0 .09-.14 1 1 0 0 0 .28-.42c-.06 0 0-.08-.09-.09a9.7 9.7 0 0 0-.56-1.49c0-.21-.08-.39-.23-.46a2.38 2.38 0 0 0-.56-.65 2.79 2.79 0 0 0-1.39-1 7.75 7.75 0 0 0-1.58-.88 8.42 8.42 0 0 0-1.53-.46c0-.05-.07 0-.14 0a1 1 0 0 0-.46-.14.7.7 0 0 0-.46-.14c0-.05-.07 0-.14 0a1 1 0 0 0-.51-.14c0-.05-.07 0-.14 0a6 6 0 0 0-2.18-.28c-.05-.17-.93-.31-.82-.12zM92 10.67a.65.65 0 0 0-.28-.33.23.23 0 0 0 .09.23 16.74 16.74 0 0 0 1.71 3.34 1.1 1.1 0 0 0 .28.51v.09a9.55 9.55 0 0 0 .85 1.49.47.47 0 0 0 .14.28 14.79 14.79 0 0 1 .83 2.37 14.74 14.74 0 0 0 1.53-.32A.43.43 0 0 0 97 18a.23.23 0 0 0-.09-.23 6.5 6.5 0 0 0-.74-1.67v-.09a1.09 1.09 0 0 0-.28-.51v-.09a1.09 1.09 0 0 0-.28-.51 1.71 1.71 0 0 0-.32-.6 18.89 18.89 0 0 0-3.06-3.48c-.07-.11-.12-.16-.23-.15zm-13.7 1.71c-.12 0-.16.11-.23.18A13.73 13.73 0 0 0 77 13.64c.13 0 .27-.07.32-.19a5.19 5.19 0 0 0 1.16-.74s-.05-.5-.18-.33zm2.27 0c-.12.22-.44.24-.51.51.2.43.29 1 .51 1.39a1.79 1.79 0 0 0 0-1.85zM80 17.16a1.5 1.5 0 0 0-.23-.65c0 .09-.13.06-.09.18a2.93 2.93 0 0 0-.65.79 10 10 0 0 0 1.06-.09.23.23 0 0 0-.09-.23zm18.39 5c-.2-.92-.45-1.78-.69-2.64-.48.12-.89.31-1.39.42a8.93 8.93 0 0 0 .19 1.58c0 .38.1.58.37.65 0 .07.07.15.18.14a5.23 5.23 0 0 0 .83.79c.26.24.52.68.74.65a6 6 0 0 0-.09-1 1.44 1.44 0 0 0-.17-.58zM45.23 23.7a5.41 5.41 0 0 0 .28-2.41 6.34 6.34 0 0 0-.65-.18c-.09.26-.21.5-.28.79a26.17 26.17 0 0 0-1 4.82c.13 0 .24 0 .28-.09 1.11-.31 1.06-1.78 1.34-2.92zm3.89 17.2c-.1 0 0 .26 0 .37a7 7 0 0 0 1.39.14 7.62 7.62 0 0 1 1 .79 14.76 14.76 0 0 1 .46 4.22c1-.91 1.83-2 2.83-3-.53-2.06-1.59-4.06-2.13-6.21a69.34 69.34 0 0 1-1.34-9.14 43.3 43.3 0 0 0-6.67 5.66c-.24.26-.75.73-.79 1a4.37 4.37 0 0 0 .28 1.16c.34 1.17.71 2.29 1.06 3.29.6-.68.78-1.61 1.3-2.32s1.41-1.33 2-2a9.59 9.59 0 0 1 1 .6c-.1 1.09-.17 2.21-.23 3.34v.2c-.11.06 0 .32 0 .47v.18a7.9 7.9 0 0 0-.09 1.21zM83.91 42c.34 0 .52-.37.74-.65a3.08 3.08 0 0 0 .6-.79c.25-.79.05-1.75.23-2.69a14.56 14.56 0 0 0-3.2-.6 27 27 0 0 1-1 5.24 2.62 2.62 0 0 0 2.13-.33c.14-.06.35 0 .42-.18zm-36.08-3.32a3 3 0 0 0 0-1.16c-.07.23-.24.35-.33.56a6 6 0 0 0-.51.84 10.26 10.26 0 0 1-1.07 2.23 29.88 29.88 0 0 0 2.18 3.71 2.14 2.14 0 0 0 .28.51 11.39 11.39 0 0 0 2.22 2c0-1.1.06-2.32 0-3.34a2.05 2.05 0 0 0-.14-.56 2.27 2.27 0 0 0-2.08-.93 5.09 5.09 0 0 1-.6-.84 8.85 8.85 0 0 0 0-1.44 8.22 8.22 0 0 0 0-1.39c.06-.12.1-.13.05-.19zm5.46 8.49c-.26.25-.65.47-.74.7a2.65 2.65 0 0 0-.14 1.07c.07.34.81.86 1.16 1.21a15.14 15.14 0 0 0 2.78 2.13c.52.34 1 .78 1.53 1a17.49 17.49 0 0 0 1.71.6c1.73.63 3.48 1.26 5.14 1.8-1-1-2-1.91-3.06-2.87a30.24 30.24 0 0 1-6.25-7.75c-.63.62-1.42 1.44-2.13 2.1zm27.37 8a3.57 3.57 0 0 0 0-.93 19.07 19.07 0 0 0-2.41.32 7.13 7.13 0 0 0-1.39.65 5.65 5.65 0 0 0-1.16 0c-.48 0-.88-.29-1.39-.37a14.4 14.4 0 0 0-3 .32c-.14 0-.4-.06-.46 0s-.4 0-.46.14a9.5 9.5 0 0 0-1.53.56c-.24.07.27.51.42.56.84.28 2.95-.13 3.75-.09a6.17 6.17 0 0 0 1.62-.09.41.41 0 0 0 .28 0 4.55 4.55 0 0 0 1.16-.19 9.34 9.34 0 0 0 1.58-.23.83.83 0 0 0 .51-.09c.11 0 .33.06.37 0a1.14 1.14 0 0 0 .69-.14 1.48 1.48 0 0 0 .65-.19 1 1 0 0 0 .56-.14c.18.01.23.01.21-.07z"/><path class="cls-4" d="M65.33 3.52a13.12 13.12 0 0 1 4.08-.14c0 .33-.44.61-.6.93-.31-.06-.65-.25-1-.33a10.62 10.62 0 0 0-1.9-.23c-.46.05-.81.45-1.21.56a5.26 5.26 0 0 1-.37-.51c.3-.13.74-.13 1-.28z"/><path class="cls-5" d="M76.26 4.92c.14 0 .4-.06.46 0zM77 5c.16 0 .43-.06.51 0H77z"/><path class="cls-3" d="M63.25 5.71c.41 0 .67.07 1.06 0 0 .1.26 0 .37 0-.68 1.21-2.61 1.27-4 1.9-.63.29-.89.89-1.44 1.16V7.52c1-.53 2.07-1 3.1-1.53a3.08 3.08 0 0 0 .91-.28z"/><path class="cls-5" d="M73.35 6.35a6.13 6.13 0 0 1 1.2 0 6 6 0 0 1-1.2 0z"/><path class="cls-6" d="M77.14 6.31c1.3-.27 1.59.66 2.18 1.21s1 .71 1.34 1.12a7.52 7.52 0 0 1-1.76 1.44 33.75 33.75 0 0 0-1.76-3.77z"/><path class="cls-5" d="M71.35 6.4c.19-.11.57 0 .83 0-.18.06-.56-.03-.83 0z"/><path class="cls-3" d="M74.23 7.05c.12 0 .16-.08.23-.14.13.5.1 1.17.19 1.72-.51.67-1 1.35-1.53 2a12.15 12.15 0 0 1-.55 3.8c-.4.21-.7.5-1.11.7a11.81 11.81 0 0 0-1.39-.7c-.12-.56-.33-1-.46-1.58-1.08.23-2.81.17-3.29-.74 0-.47-.21-.73-.23-1.11-.09-1.44.91-2.12.49-3.3.37-.23.86-.7 1.34-.51a.58.58 0 0 0 .32.18.77.77 0 0 0 .18.14c0 .15-.14.24-.14.42a2.42 2.42 0 0 0-.28.7.94.94 0 0 0-.18.46 1 1 0 0 0-.19.46c-.3.37 0 1.09 0 1.62a5.28 5.28 0 0 0 .88.6 5.88 5.88 0 0 0 .93-.83c.12 0 .14.14.28.14a11.18 11.18 0 0 0 1 .6c.14.8.09 1.79.88 1.95a6.3 6.3 0 0 0 .13-1.63 1.41 1.41 0 0 0-.09-.6 2.41 2.41 0 0 0-.14-.79c.29-.45.66-.83.93-1.3a1.73 1.73 0 0 0 .42-.55 7.9 7.9 0 0 0 .56-1c.12-.12.28-.18.37-.33a1 1 0 0 0 .45-.38z"/><path class="cls-4" d="M58.8 9.79c.11.14 0 .48 0 .7 0 0 0 .05 0 0z"/><path class="cls-6" d="M80.57 14.33c-.22-.41-.31-1-.51-1.39.07-.28.39-.29.51-.51a1.79 1.79 0 0 1 0 1.9z"/><path class="cls-4" d="M44.58 21.89a2 2 0 0 0 .28-.74 2.76 2.76 0 0 1 .6.19 6.77 6.77 0 0 1-.23 2.36 11.91 11.91 0 0 0-.46 2.18c-.34.2-.53.55-.88.74-.13 0-.12.07-.23 0a38.73 38.73 0 0 1 1-4.78z"/><path class="cls-3" d="M64.5 25.46l.83-1.67q.48.36.93.74c0 .09-.05.1 0 .18s-.1.21-.14.33a3.46 3.46 0 0 0-.46 1.81 12.29 12.29 0 0 0 1.11.55c.94-.25 1.26-1.12 1.81-1.76a2.12 2.12 0 0 1 2.68 1.58v.09a2 2 0 0 1-.7 1.9c0 .75.6 1 1 1.39a8 8 0 0 1-.37.93c-.9-.55-2-.93-2.46-1.9 0-.44.17-.79.23-1.21.37-.2.67-.47 1-.7-.32-.29-.76-.44-1.06-.74a4.26 4.26 0 0 1-1.62 1.9c-.56-.13-1-.4-1.58-.51-.39-.45-.9-.77-1.3-1.21 0-.39.08-.66 0-1.07.11-.1 0-.39 0-.56zm-5.88 3.2a6.16 6.16 0 0 0 .28.88 9.7 9.7 0 0 0-1 .28 15.77 15.77 0 0 1-2.55-3.15v-.74a7.49 7.49 0 0 0 .88-.19c.23.13.33.38.56.51.28-.48.35-1.17.6-1.67.61 0 1.11-.47 1.62-.42a2.7 2.7 0 0 1 1 .7 7.89 7.89 0 0 1 .32.79 4.54 4.54 0 0 1 .7 3c-.72-.17-.93-.86-1.34-1.34a.13.13 0 0 0-.09-.14c-.25-.55-.56-1-.79-1.62-.34 0-.48.2-.79.23a7 7 0 0 0 .41 2.22 1.48 1.48 0 0 0 .19.66z"/><path class="cls-6" d="M81.36 24.58c0 3.54 0 6.84-.18 10.2.08-2.1.08-5 .14-6.49zm-16.86.93c0 .17.06.46 0 .56-.02-.18-.11-.47 0-.56zm32.37 1.71c0 .2.06.52 0 .65-.01-.2-.1-.52 0-.65z"/><path class="cls-3" d="M80.8 27.69c.12.3-.33.8-.42 1.21-.93.08-1.69-.12-2.46 0a6.4 6.4 0 0 0-1.11.42c-1.5.58-2.78 1.44-4.21 2a10.29 10.29 0 0 1-.37-1.32c1.29-.49 2.51-1 3.84-1.53a8.85 8.85 0 0 1 1.26-.47 15 15 0 0 1 1.67-.13c.6-.04 1.28-.13 1.8-.18z"/><path class="cls-6" d="M96.83 28c0 .19.06.49 0 .6-.02-.17-.11-.48 0-.6zm1.9.66a4.79 4.79 0 0 1 0 1.07 4.69 4.69 0 0 1 0-1.07zm-1.95.09c0 .2.06.52 0 .65-.02-.2-.11-.52 0-.65z"/><path class="cls-4" d="M43.29 29.73c0-.14-.06-.4 0-.46v.56z"/><path class="cls-6" d="M96.73 29.54c0 .17.06.46 0 .56-.01-.17-.1-.47 0-.56zm-13.84.6c.11.14 0 .48 0 .7-.06-.14.03-.48 0-.7z"/><path class="cls-4" d="M43.33 30.33c.11.13 0 .45 0 .65-.06-.13.03-.45 0-.65z"/><path class="cls-6" d="M96.69 30.33c0 .19.06.49 0 .6-.02-.18-.11-.49 0-.6z"/><path class="cls-4" d="M43.38 31.54c.11.11 0 .42 0 .6-.06-.14.03-.42 0-.6z"/><path class="cls-6" d="M94.74 35.62c0 .26.06.65 0 .83-.01-.26-.1-.65 0-.83zm-12.18.27a12.6 12.6 0 0 1 1.76.19 10.7 10.7 0 0 1-1.76-.19zm1.81.19c.48 0 .88.08 1.34.09a3.77 3.77 0 0 1-1.34-.09z"/><path class="cls-4" d="M83.4 42.2a3.3 3.3 0 0 1-2 .33 34.13 34.13 0 0 0 1-5.19 16.76 16.76 0 0 1 3.1.6c-.06.91-.17 1.78-.23 2.69-.33.41-.67.81-1 1.25a.43.43 0 0 0-.33.14c-.14.06-.35 0-.42.18z"/><path class="cls-6" d="M99 37.33c0 .17.06.46 0 .56 0-.17-.1-.46 0-.56zm0 .67c0 .14.06.4 0 .46-.06-.16-.15-.46 0-.46z"/><path class="cls-4" d="M49.26 38.77c0 .14.06.4 0 .46v-.46z"/><path class="cls-6" d="M47.83 38.82a8.22 8.22 0 0 1 0 1.39 8 8 0 0 1 0-1.39zm1.43.18v.47c-.01-.19-.1-.47 0-.47z"/><path class="cls-4" d="M49.22 39.42c0 .16.06.43 0 .51v-.51zm-.1 1.39c0 .24 0 .45.19.46h-.23v-.46z"/><path class="cls-6" d="M83.86 42c-.07.13-.27.13-.42.18.07-.11.28-.11.42-.18zm8.61 1.5a4.33 4.33 0 0 1 0 1z"/><path class="cls-3" d="M75.75 47.4a10.83 10.83 0 0 1 2.59-3.66A11.82 11.82 0 0 0 79 44.8a17 17 0 0 1-1.3 1.58A7.14 7.14 0 0 0 77 48c-.08.44.2 1 .09 1.49a5.41 5.41 0 0 1-.96 1.51 13.39 13.39 0 0 1-1.95 1.3c-.67.47-1.21 1-1.81 1.44a3.54 3.54 0 0 1-.83-.6c0-.81-.07-1.6-.09-2.41.23-.17.53-.28.74-.46h.09a.78.78 0 0 0 .09.32c.14.51.35 1 .46 1.49A13.6 13.6 0 0 0 75.15 50c0-.09.1-.12.09-.23.37-.36.3-1.15.37-1.81a5.28 5.28 0 0 0 .14-.56z"/><path class="cls-4" d="M70.38 44.66c0 .14.06.4 0 .46-.02-.12-.1-.4 0-.46zm-18.48.05c.11.11 0 .42 0 .6-.06-.11.03-.42 0-.6zm18.44 1.11c0 .16.06.43 0 .51-.02-.16-.11-.43 0-.51z"/><path class="cls-5" d="M76.82 55.28a2.51 2.51 0 0 1-1.07 0zm-4.31 1.16c.13-.11.45 0 .65 0h-.65zm-.88.04c.09-.11.38 0 .56 0-.1.07-.39-.02-.56 0zm27.93-22.25c-.16.69-.3 1.41-.51 2 .14-.74.31-1.45.46-2.18 0 .1 0 .17.05.18zM67 1.21C68.37 1 69.69.76 70.94.47h.14s-.09.06-.14 0c.75.17 2 .22 3.1.42l2.22.37a1.7 1.7 0 0 0 1.07 0c1 1.17 2.85 1.6 4.35 2.32a.85.85 0 0 1 .42.19c.71.36 1.46.67 2.22 1a.43.43 0 0 1 .33.14.84.84 0 0 0 .42.18 2.26 2.26 0 0 1 .79.37 15.86 15.86 0 0 0 1.34.93c-.45 0-1.09-.23-1.67-.28-.07 0-.24.06-.23 0a29.71 29.71 0 0 0-5.65-1c-1.25-.78-3-.84-4.58-1.25-.08.09.2.2.23.32a1.83 1.83 0 0 1-.37-.37c-.11-.07-.28-.09-.32-.23-.38-.3-.79-.57-1.2-.83a1.53 1.53 0 0 1-.6-.42c-.42-.4-.89-.75-1.3-1.16-.8.1-1.73.07-2.5.18a9.52 9.52 0 0 0 1.53.93 3.8 3.8 0 0 1 1 .6c.36.35.83.59 1.16 1a7.88 7.88 0 0 0-2.41.32 3.18 3.18 0 0 1 .28-.74 1.55 1.55 0 0 0 .18-.46v-.09c-.51-.13-.88-.61-1.43-.7-.87-.13-2.14.49-3.06.46-.84.05-1.59.2-2.41.28a8.93 8.93 0 0 0-.19 1c.29 0 .43-.09.7-.09a5.26 5.26 0 0 0 .37.51c-.07 0-.25.15 0 .14a.68.68 0 0 1 .42.09 3.93 3.93 0 0 0 .93.19h.19a5.78 5.78 0 0 0 1.2.23c.08 0 .27-.05.28 0a4.49 4.49 0 0 0 .88.19c.17 0 .21.1.28.18-.19.07-.3.22-.46.33s-.42 0-.51.14c-1.09 0-2.05.61-3.1.28-.22-.07.22-.19.18-.37s-.31 0-.46 0c-.31 0-.84-.2-1.06 0a3.08 3.08 0 0 1-.83.37 22.35 22.35 0 0 0-3.1 1.53 6.61 6.61 0 0 0 0 1.25c.15.1.27-.22.42-.28a5.83 5.83 0 0 1-.88 1.86c0-.22.06-.56 0-.7A11.66 11.66 0 0 0 57 10c0-.11.07-.14.09-.23a.47.47 0 0 1 .19-.33 13.15 13.15 0 0 1 1.3-1.81c0-.14.11-.17.19-.23a3 3 0 0 0 .36-.4 1.56 1.56 0 0 1 .42-.51 29.7 29.7 0 0 1 3.71-3.66 4 4 0 0 1 2.5-1.35c0-.1.2 0 .28 0a2.48 2.48 0 0 0 .74-.14c0-.19.22-.11.22-.13z"/><path class="cls-6" d="M69.64 0a3.68 3.68 0 0 1 1.07.09A5.16 5.16 0 0 1 69.64 0zM71 .47c.22-.17.7-.08.93-.23-.07 0-.24.06-.23 0h.3c-.17.25-.67.16-1 .28zm-4 .74c1.3-.29 2.6-.53 3.94-.74-1.25.29-2.57.53-3.94.74zm-7.46 5.24a22.78 22.78 0 0 1 3.71-3.71c.73-.62 1.24-1.31 2.5-1.3a4 4 0 0 0-2.5 1.35 29.7 29.7 0 0 0-3.71 3.66zm-.78.97a1 1 0 0 1 .37-.42 3 3 0 0 1-.37.42zm-1.48 2.04a6.2 6.2 0 0 1 1.3-1.81 13.15 13.15 0 0 0-1.3 1.81zm1.52.33a7.82 7.82 0 0 0-1.94.37c.08-.12.1-.31.23-.37 0 .09-.1.12-.09.23a11.66 11.66 0 0 1 1.81-.28zm-2.4 1.95a7.26 7.26 0 0 1 1.34-.7c-.43.25-.88.48-1.34.7zm-8.94 9.04c-.1 0 0-.16 0-.23a18.21 18.21 0 0 1-2-1 6.75 6.75 0 0 0 .37-1c3.44-2.14 6.31-4.84 10.14-6.59a51.59 51.59 0 0 0-5.28 3.25c-1.62 1.21-3.11 2.33-4.82 3.39-.09.33-.24.6-.32.93.24.38 1.76.54 1.95 1.07-.02.05-.06.12-.04.18zm0 .04c.38 1-.34 1.73-.56 2.74a15.16 15.16 0 0 1-.46 2.92c.31-1 .18-2 .42-3s.81-1.48.6-2.66zm-4.17 8.91a2.17 2.17 0 0 1 .71-2.09 13 13 0 0 1 2.27-.69c.07-.08 0-.26.14-.33a1.16 1.16 0 0 1-.09.37c-.58.18-1.21.31-1.76.51a1.27 1.27 0 0 0-1 .74 2.24 2.24 0 0 0-.23 1c-.1.09-.01.35-.04.49zm.14 2.41q.09.49.18 1c0 .1.38-.3.18-.28.46-.21.82-.86 1.3-1.3a3.23 3.23 0 0 0 .51-.56c.29-.24.53-.55.83-.79a3.16 3.16 0 0 0 .51-.51 23.07 23.07 0 0 1 4.17-3.43c.06-1 .11-2 .19-2.92 0 1-.11 1.93-.19 2.88a41.64 41.64 0 0 0-5.83 5.15 18.32 18.32 0 0 1-1.81 1.86 19.06 19.06 0 0 1-.23-3.43v.51c0 .2-.06.52 0 .65s0 .37 0 .56.08.47.19.61z"/><path class="cls-6" d="M55.75 41.6a36.36 36.36 0 0 1-3.06-14.52c2.86-2 6.06-3.73 9-5.7a31.12 31.12 0 0 0-6.34 2.37 16.48 16.48 0 0 1 .23-4 7.85 7.85 0 0 0 .42-2.91 5.37 5.37 0 0 1-.56-.79c.71-.81 1-1.79 1.71-2.64.53-.61 1.26-1 1.85-1.58.33-.33.56-.73.93-1.16s1.22-1 .79-1.9A26.23 26.23 0 0 0 58.39 11a23.13 23.13 0 0 0-3.2 3.11A7.48 7.48 0 0 0 54 16.37c.07.37.47.67.51 1.11a7 7 0 0 1-.42 1.81 10 10 0 0 0-.42 1.76 6.64 6.64 0 0 0 .28 1.16 7.42 7.42 0 0 0 .23 1.21c.13.3.46.4.56.74-.76.32-1.49.92-2.18 1.16-.69-2.81 1.1-5.33.23-8a19.79 19.79 0 0 0-1.39 5.42v-.28a19.6 19.6 0 0 1 .93-4.13 2.48 2.48 0 0 1 .56-1.11c.81 2.66-.89 5.2-.28 8 .62-.25 1.36-.78 2-1.11.1-.21-.31-.22-.32-.23s0-.14 0-.23a7.22 7.22 0 0 1-.65-2.6 10 10 0 0 1 .36-1.8 7.83 7.83 0 0 0 .42-1.76c0-.39-.5-.74-.51-1.07 0-.48.57-1 .46-1.44a22.75 22.75 0 0 0 1.44-1.85c.41-.44 1-.78 1.44-1.21s.93-.85 1.34-1.3a7 7 0 0 1-.79.37c.28-.23.67-.35 1-.56 0 .05 0 0 0 0a5.83 5.83 0 0 0 .88-1.86c-.15.06-.27.38-.42.28.54-.27.81-.87 1.44-1.16 1.37-.64 3.31-.69 4-1.9-.11 0-.34.06-.37 0h.46c.08 0-.41.3-.18.37 1 .33 2-.24 3.1-.28a39.6 39.6 0 0 0-4.12 1c.56.94 1.34.5 2.5.23a10.44 10.44 0 0 1 1.71-.32c-.26.09-.6.11-.88.19 0 .14.1.18.14.28.33 0 .5-.37.83-.14-.49-.18-1 .28-1.34.51C67 8.88 66 9.56 66.08 11c0 .38.19.64.23 1.11.48.91 2.21 1 3.29.74.13.55.34 1 .46 1.58a11.81 11.81 0 0 1 1.39.7c.41-.19.72-.49 1.11-.7a12.15 12.15 0 0 0 .55-3.8c.53-.65 1-1.33 1.53-2-.08-.55-.05-1.22-.19-1.72-.07.05-.11.13-.23.14.1-.14.41-.33.32.09v.19c.25-.11.36-.35.51-.56.13 0 .4-.09.28-.19a23.42 23.42 0 0 1 2.55 4.59c-1.12 1.22-2.15 2.52-3.15 3.85.35.34.56.83 1 1.11a25.31 25.31 0 0 1 3.15-2.32c.21.7.46 1.37.7 2-.18.27-.46.54-.74.88s-.47.74-.74.84a8.35 8.35 0 0 1-1.71.09 46.29 46.29 0 0 0-10.33 2 12.88 12.88 0 0 0-.51 1.44c3.69-1 7.41-2.16 11.86-2.23a17 17 0 0 1-2 2c-.61.24-1.22.47-1.81.74a14.76 14.76 0 0 0-.83 2.69 12 12 0 0 1-.42-3c-.4-.17-.82-.32-1.25-.46a18.83 18.83 0 0 0-4.33 2.2c.11.4.26.76.37 1.16a9.16 9.16 0 0 1 3.33-1.72c.26.23.62.37.88.6.29 1.12.37 2.44 1.34 2.88.34-.08.63-.2 1-.28v-.09c-.12.38-.74.25-1 .46-.25-.24-.61-.32-.79-.6-.38-.61-.28-1.69-.6-2.27-.18-.34-.59-.35-.83-.6-.43.14-.93.29-1.39.46s-.89.36-1 .74c-.34-.18-.59.47-1 .51 0-.24-.16-.3-.14-.56-.37.11-.56.4-.93.51 0 .12.07.14.14.18s.19.32 0 .32.06-.1 0-.18q-.45-.38-.93-.74l-.83 1.67c.15-.39-.72.37-.83.46-.84.69-1.88 1.58-2.55 2.18v.19a1.08 1.08 0 0 1-.09.42c-.59-.15-1-.79-1.34-1.44.41.48.62 1.17 1.34 1.34a4.54 4.54 0 0 0-.7-3 7.89 7.89 0 0 0-.32-.79 2.7 2.7 0 0 0-1-.7c-.52-.06-1 .38-1.62.42-.25.5-.33 1.19-.6 1.67-.22-.13-.33-.38-.56-.51a7.49 7.49 0 0 1-.88.19v.74a15.77 15.77 0 0 0 2.55 3.15 9.7 9.7 0 0 1 1-.28 6.16 6.16 0 0 1-.28-.88 5.22 5.22 0 0 1 .32 1l-1.11.33a19.88 19.88 0 0 1-2.55-3.2v-.88c.25.08.36-.16.51 0 0-.23-.12-.34-.14-.56-.84.48-1.91 1.22-2.87 1.85a35.14 35.14 0 0 0 2.43 12.64c.07.57.5 1.21.65 1.81zm.25.65c.17-.11 0 .08.09.14a48.56 48.56 0 0 1 4.63-2.74 39.66 39.66 0 0 1 5.19-2.46 20.74 20.74 0 0 1 1.44-3.71c-.57 1.14-.9 2.53-1.39 3.76a63.1 63.1 0 0 0-9.91 5.24c.04-.11-.05-.1-.05-.23z"/><path class="cls-6" d="M67.42 33.39a4.53 4.53 0 0 1 .65-1.39 42.52 42.52 0 0 0-4.86-1.9 6.39 6.39 0 0 1-1.53-.7c.09-.17.12 0 .28-.23a10.11 10.11 0 0 1 .93-.93 34.51 34.51 0 0 1 6.11 3c.06.37.17.7.23 1.07a4.88 4.88 0 0 1-.28-1 29.43 29.43 0 0 0-6.07-3 5.19 5.19 0 0 0-1.11 1.16A59.5 59.5 0 0 1 68.11 32a12.82 12.82 0 0 1-.69 1.39zm1.8-.97c.45 1-1.15 1.85-1.48 2.64-.08.19 0 .41-.14.6 0-.78.48-1.11.93-1.67s.95-.9.69-1.57zm-1.62 3.29a7.65 7.65 0 0 1-.18.88 8.94 8.94 0 0 1 2.22-.42 21.37 21.37 0 0 0-2.27.46 4.05 4.05 0 0 1 .23-.92zm4.68 1.53a4.46 4.46 0 0 0 1.85-.79c.17-.14.42-.32.37-.46a18.16 18.16 0 0 0-4.82.19 14.83 14.83 0 0 1 5-.23 3.1 3.1 0 0 1-2.4 1.29zm-.05 0c-1.28.44-2.83.63-4.21 1.11-.33.12-1.17.29-1.16.6s1.43.8 1.62.93c.53.35.89.86 1.34 1.16s1.26.52 1.81.93c0 .53.25 1.05.23 1.58s-.37 1-.42 1.53c-.08 1 .32 1.93 0 2.88a15 15 0 0 0 0-2.88c0-.53.4-1 .42-1.53s-.25-1-.23-1.58c-.53-.34-1.17-.49-1.71-.84s-.87-.86-1.39-1.21c-.21-.14-1.65-.58-1.67-1s1.26-.72 1.48-.79c1.25-.35 2.66-.55 3.89-.89z"/><path class="cls-6" d="M77.28 51.66c.21-.67.52-1.24.79-1.85-1.55.72-2 2.57-3.06 3.76-2.44.37-4.45 1.17-7.13 1.3a25.12 25.12 0 0 1-3.75-2.13c-2.55-2.78-5.34-5.32-7.22-8.77a23 23 0 0 1 4.17-2.46 31.17 31.17 0 0 1 4.4-2.23c0 .19 0 .34.09.42 1.35 1.39 3.36 2.11 5 3.25-.1.69-.06 1.42-.09 2.18a11.12 11.12 0 0 0-.09 2.13 10.84 10.84 0 0 0 .79 1.81.42.42 0 0 1 .09-.33 1.76 1.76 0 0 1-.09.42H71c-.26-.93-.86-1.52-.74-2.83.11-.08 0-.35 0-.51v-.7c.11-.06 0-.32 0-.46 0-.62.07-1.1 0-1.72-.47-.33-1-.62-1.53-.93a5.66 5.66 0 0 0-1.58-.79c.11-.21-.51-.36-.74-.51-.41-.27-.69-.77-1.07-1-.06-.11-.19-.15-.14-.37a40.43 40.43 0 0 0-4.31 2.18A24.67 24.67 0 0 0 57 44a42.83 42.83 0 0 0 3 4.31 3.75 3.75 0 0 0 .56.56c.25.32.59.56.83.88a8.32 8.32 0 0 0 .83.83c.49.53 1 1 1.48 1.58a4.32 4.32 0 0 0 .6.6 20.75 20.75 0 0 0 3.61 2c2.56-.09 4.86-.92 7.13-1.3.73-1 1.44-2.08 2.08-3.2.41-.11.59-.46 1-.56a11 11 0 0 1-.84 1.96zm-.14.34a19.47 19.47 0 0 1-.83 1.9 23.43 23.43 0 0 1 2.78-.7h1.3a21.41 21.41 0 0 0-4.12.7c.28-.65.55-1.31.87-1.9zm10.1-3.31a27.33 27.33 0 0 1-5 4.17 38.18 38.18 0 0 0 5-4.17zm1.02-1.57c.83-1.18 1.8-2.21 2.59-3.43.36.08 1.08-.31 1.06 0-.19-.15-.76.1-1.11.09a33.32 33.32 0 0 1-2.54 3.34zM91.78 44a5.11 5.11 0 0 1-.46.93 5.34 5.34 0 0 1 .46-.93zm-1.02 2.05a1.82 1.82 0 0 1-.28.56 1.91 1.91 0 0 1 .28-.56zm-4.86 5.66c1.1-1.24 2.3-2.45 3.43-3.71a50 50 0 0 1-3.43 3.71zm-2.74 2.41c.71-.7 1.5-1.32 2.22-2a24.11 24.11 0 0 1-2.22 2zm-.78.65s-.22.15-.23 0a2.61 2.61 0 0 1 .69-.46 2.5 2.5 0 0 1-.55.37s.05.08.09.09zm.83-.23c.1-.08.26-.11.37-.18a.35.35 0 0 1-.37.18zm.56-.33c1.76-1.42 3.91-2.45 5.7-3.85-1.73 1.47-3.88 2.49-5.7 3.85zm5.88-3.99c.47-.43 1.05-.74 1.48-1.2a5.77 5.77 0 0 1-1.48 1.2z"/><path class="cls-4" d="M92.52 44.52c0 .3 0 .66-.09.84a4.73 4.73 0 0 0 0-.84z"/><path class="cls-6" d="M91.87 41.41a2.33 2.33 0 0 1 .6 2 3 3 0 0 0-.6-2zm-2.36-2.18a5.9 5.9 0 0 1 1.95 1.48 10.9 10.9 0 0 0-1.95-1.48zm-3.15 1.53a17.51 17.51 0 0 1 .42-2.64A5.76 5.76 0 0 1 89 39a8.17 8.17 0 0 0-2.27-.84c-.14.84-.15 1.84-.37 2.6zm-.46 1.81c-.52.16-1.05.76-1.71.88-1 .19-2-.17-3.06 0a12.15 12.15 0 0 1-1.07 2.6 12.31 12.31 0 0 1-.74 1.62A6.21 6.21 0 0 1 78 48.83a19.84 19.84 0 0 1 1-2.69c-.23.92-.6 1.72-.88 2.6.44-.28.76-.69 1.2-1a35.12 35.12 0 0 0 1.81-4.36c1.12-.14 2.13.19 3.1 0 .59-.1 1.1-.72 1.67-.81zm-5.19-3.19a27.3 27.3 0 0 1-1.58 6.26 9.66 9.66 0 0 1 .46-1.53 31.29 31.29 0 0 0 1.12-4.73zm.09-.61a1.36 1.36 0 0 1-.09.56 1.33 1.33 0 0 1 .09-.56zm-2.64-1.48c.06 0 0 .12 0 .19a7.18 7.18 0 0 1 2.84-.24 12.55 12.55 0 0 1-.23 1.48c0-.5.12-.93.18-1.39a6.87 6.87 0 0 0-2.82.19zM80 36.08c-.59.15-1.26.22-1.9.33 0 .33.08.51 0 .84a3.14 3.14 0 0 1-.09-.88c.73-.08 1.31-.24 1.99-.29zm1.22-1.2a4.92 4.92 0 0 1 0 1.07c-.38 0-.71.13-1.11.14a6.08 6.08 0 0 1 1.11-.19 4.26 4.26 0 0 1 0-1.02zM80.57 19a8 8 0 0 0-2.32-.18.33.33 0 0 0-.23.28c.21-.68 1.83-.19 2.59-.19zm-3.29 1.18a2 2 0 0 1 .42-.65 3.48 3.48 0 0 1-.42.65zm-3.38 4.63a6.56 6.56 0 0 0 .1-2.32 4.61 4.61 0 0 0 3.15-2.13A4.36 4.36 0 0 1 74 22.54a4.69 4.69 0 0 1-.09 2.27zM69.18 6.58a.55.55 0 0 1 .42-.09.88.88 0 0 1-.42.09zm-.88.15a1 1 0 0 1 .51-.09 1 1 0 0 1-.51.09zm-.7-1.67a2.22 2.22 0 0 1 .88.19 4.49 4.49 0 0 1-.88-.19zm-1.48-.28a4.87 4.87 0 0 1 1.2.23 5.78 5.78 0 0 1-1.2-.23zM65 4.55a2.84 2.84 0 0 1 .93.19 3.93 3.93 0 0 1-.93-.19zm-.41-.1c-.2 0 0-.14 0-.14.39-.11.74-.5 1.21-.56a10.62 10.62 0 0 1 1.9.23c.37.07.71.26 1 .33.16-.32.6-.6.6-.93a13.12 13.12 0 0 0-4.08.14c1.09-.48 2.84-.22 4.21-.18a4.07 4.07 0 0 1-.79 1 14.91 14.91 0 0 0-2.92-.56c-.23.3-.82.35-1.13.67z"/><path class="cls-6" d="M66.17 2.64c-.73.17-1.57.22-2.36.33-.1.26-.1.61-.19.88.6-.07 1.08-.25 1.67-.33-.28.15-.72.15-1 .28s-.41.12-.7.09a8.93 8.93 0 0 1 .19-1c.79-.05 1.55-.19 2.39-.25zm.04 0c.92 0 2.19-.6 3.06-.46.56.09.93.57 1.43.7-.59-.06-.92-.59-1.53-.65-.88-.09-1.89.51-2.96.41zm4.54.36a1.55 1.55 0 0 1-.19.51 1 1 0 0 1 .19-.51zm-.6 2.47a3.18 3.18 0 0 1 .85-.14 2.36 2.36 0 0 1-.85.14zm1.16-.18a7.42 7.42 0 0 1 1.3-.14 5.69 5.69 0 0 1-1.3.14zM73.76 5A.3.3 0 0 0 74 5a1.32 1.32 0 0 0-.33-.33 1.63 1.63 0 0 1-.37-.37 1.85 1.85 0 0 1 .74.79c-.37 0-.6.08-1 0a2.88 2.88 0 0 1 .72-.09zm-2.22-2.12a9 9 0 0 1 1.3 1 .21.21 0 0 0-.14 0c-.33-.41-.8-.65-1.16-1zm1.25-.56c-.51-.16-.77-.94-1.39-1.07a9.33 9.33 0 0 0-2.32.18 8.89 8.89 0 0 1 1.44.84A9.52 9.52 0 0 1 69 1.34c.78-.12 1.7-.09 2.5-.18.41.41.87.76 1.29 1.16zm.6.42c.41.27.82.54 1.2.83a6.44 6.44 0 0 1-1.2-.83zm2.46 2.08a5.68 5.68 0 0 1-.93-1 1.83 1.83 0 0 0 .37.37c.16.22.38.41.56.63zm3.79.28a29.71 29.71 0 0 1 5.65 1 50.58 50.58 0 0 0-5.79-1zm5.89 1.02c.57 0 1.22.27 1.67.28a15.86 15.86 0 0 1-1.34-.93 6.8 6.8 0 0 1 1.44 1 15.36 15.36 0 0 1-1.77-.35zm-.88-1.2a.68.68 0 0 1 .42.18.84.84 0 0 1-.42-.18zM82.1 3.8a19.85 19.85 0 0 1 2.22 1c-.76-.32-1.51-.64-2.22-1zm-4.77-2.55c1.06 1.18 2.92 1.56 4.35 2.36-1.5-.72-3.3-1.14-4.35-2.32zm1.94.19a3.08 3.08 0 0 1 1 .28 6.68 6.68 0 0 1-1-.28zm1.95.56a4 4 0 0 1 .93.32 3.79 3.79 0 0 1-.93-.32zm1.11.41a2.52 2.52 0 0 1 .6.23 1.58 1.58 0 0 1-.6-.23zm16.35 27.46c.14 1.61.7 2.79.88 4.36-.05 0-.05-.07 0-.14-.24-1.46-.86-2.74-.88-4.22zm-.88-2.32c.12.54.57.76.93 1.07-.44-.23-.86-.48-.93-1.07zm-.18-.79c-.13.17.1.32.09.51-.07-.12-.3-.41-.09-.51zm.32-.6c.09-.17 0-.22 0-.37.1 0 .14.14.18.23s-.12.15-.18.14zm-.6-1.16a7.31 7.31 0 0 0-.56-.56 1.05 1.05 0 0 1 .56.56zm-.84 6.72a23.75 23.75 0 0 1-1.44 5c-.11.3-.15.7-.42.88v-.23c0 .42.33-.59.42-.83a33.77 33.77 0 0 0 1.44-4.82zM94.84 35a1.34 1.34 0 0 1-.09.56 1.34 1.34 0 0 1 .09-.56zm.37-2.4a1.78 1.78 0 0 1-.09.56 1.1 1.1 0 0 1 .09-.56zM93 29.54a5.49 5.49 0 0 1 .19-1c.76-.49 1.43-1.32 2.45-1.39a32.6 32.6 0 0 1-.42 5.38 47.16 47.16 0 0 0 .37-5.33c-1.07.17-1.59.88-2.36 1.34-.11.34-.13.72-.23 1zm-.06.28q-.52 3-1 6a6.9 6.9 0 0 1 3 3.38 3.05 3.05 0 0 1-.88.14c-1-.85-2.07-1.58-3.06-2.41a5 5 0 0 1-.46-.37c.82.6 1.83 1.37 2.78 2.09.46.35.83.9 1.57.51a7.31 7.31 0 0 0-3-3.34c.34-2 .61-4.09 1.05-6zm-.79-2.55c0-.09.16 0 .19-.09a8.1 8.1 0 0 1 .93-.42 4.91 4.91 0 0 1-1.12.51zm1.3-.6a3.57 3.57 0 0 1 .69-.32 1.93 1.93 0 0 1-.69.32zm1.29-.61a5.53 5.53 0 0 1 .88-.42c0-.52.08-1 0-1.53v1.58c-.31.08-.51.31-.88.37zm.1-3.29c.3.26.73.38.83.84-.16-.4-.58-.53-.83-.84zm-2.37-1.16a14.75 14.75 0 0 1 2 1c-.66-.33-1.34-.61-2-1zm-.55-.23c.16.06.36.07.46.19a.77.77 0 0 1-.46-.19zm-.51-.18a.76.76 0 0 1 .46.18c-.16-.05-.36-.07-.46-.18zm-.83-.33a.77.77 0 0 1 .46.19 1.45 1.45 0 0 1-.46-.19zm-3.02-.97a1.8 1.8 0 0 1 .7.18 2.08 2.08 0 0 1-.7-.18zm-1.85-.47a.74.74 0 0 1 .51.14c-.15-.06-.39-.04-.51-.14zm-1.43-.18a4.92 4.92 0 0 1 1.25.14 7.65 7.65 0 0 1-1.25-.14zm-1.35-.14a4.53 4.53 0 0 1 1.25.14 7.32 7.32 0 0 1-1.25-.14zm0 11.89a36.62 36.62 0 0 1-.37 4.5c.17-1.5.22-3.05.37-4.5zm2.23-1.83c-.63.08-.76-.81-1.07-.74A13.23 13.23 0 0 0 84 30a9 9 0 0 1 2.13.88 10.35 10.35 0 0 1-.14 3.76 12.59 12.59 0 0 0 .01-3.8 13.19 13.19 0 0 0-2.09-.84 2.3 2.3 0 0 1 0-.74c0-.34.07-.64.09-1 .49.16.43.86 1.11.83zm.04 0c.71.11 1.57-.14 1.85.32a.41.41 0 0 1-.19-.19 13.83 13.83 0 0 1-1.66-.13zm1.95 5.98a27 27 0 0 0 .37-5c.28.28.13.76.09 1.16a32.33 32.33 0 0 1-.46 3.84zm-.15 1.3c.31.14.73.17 1 .33a2.29 2.29 0 0 1-1-.33zm1.17.37a2.94 2.94 0 0 1 .42.09 5 5 0 0 1 .65.37c-.37-.15-.7-.28-1.07-.46zm1.83.88a2 2 0 0 0 .42.19 19.84 19.84 0 0 1 3 3A16.74 16.74 0 0 0 90 37.7zm4.14 4.83a1 1 0 0 1 .14.69c-.07-.22-.08-.48-.14-.69zm.33 2.32v.09c.21.07.27-.41.23-.74.13.32 0 .81-.28.83zm.09-3.85a.13.13 0 0 1 .14 0c.23-.08.73-.38.93-.19a3 3 0 0 0-1.07.19zm1.11.23a6.74 6.74 0 0 1 .14 1.25 15.47 15.47 0 0 0 2.45-7.56 10.62 10.62 0 0 1 .79 1.34v.14c-.26-.45-.47-1-.74-1.39a30.25 30.25 0 0 1-1 4.82A20.08 20.08 0 0 1 96.18 42c-.1.19-.18.49-.42.56.02-.49-.1-.84-.09-1.33zM59.31 7.61a22.35 22.35 0 0 1 3.1-1.53c-1.03.51-2.08 1-3.1 1.53zm.88-4.46a.77.77 0 0 1 .47-.15 1.45 1.45 0 0 1-.47.15zM56.49 5c1-.5 1.89-1 2.92-1.44-.94.44-1.93.95-2.92 1.44zm-8.25 8.68c2.32-3 4.49-6.08 7.6-8.25-.7.59-1.36 1.21-2.08 1.76 0 .07-.2.15 0 .14-1.19.62-2.21 2.54-3.29 3.52 0 .08.06.1 0 .19s0-.09-.09-.09c-.59.85-1.38 1.86-2.14 2.73zm-.92 1.81a8.5 8.5 0 0 1 .83-1.67 15.67 15.67 0 0 1-.83 1.67zm-.09.19c0 .13-.08.19-.09.32.44-.33.72-.83 1.25-1.07.05-.06 0-.1 0-.09 1.9-.91 4.29-2.57 6.39-3.57a5.85 5.85 0 0 0 .42-.79 5.41 5.41 0 0 1-.32.83c-1.13.54-2.24 1.17-3.33 1.81A18.82 18.82 0 0 0 47 16.23c-.08-.14.14-.41.23-.55zm8.42-6.45a2.18 2.18 0 0 1 .7-1.11 4.91 4.91 0 0 0-.7 1.11zm.93-1.39q1-1.19 1.95-2.41a18.91 18.91 0 0 1-1.95 2.41zm2.13-2.65A19.89 19.89 0 0 1 61 2.88c0-.07-.06 0-.14 0s.21-.1.32-.14c-.8.82-1.7 1.57-2.47 2.45z"/><path class="cls-5" d="M60.89 2.88c.08 0 .12-.07.14 0a19.89 19.89 0 0 0-2.32 2.32c0 .14-.11.17-.18.23q-1 1.22-1.95 2.41c0 .15-.14.2-.23.28a2.18 2.18 0 0 0-.7 1.11 7.52 7.52 0 0 1-.51 1.25 5.85 5.85 0 0 1-.42.79c-2.1 1-4.49 2.66-6.39 3.57.09 0 .1 0 0 .09-.54.24-.81.73-1.25 1.07 0-.13.08-.19.09-.32a.2.2 0 0 1 .09-.19 15.67 15.67 0 0 0 .83-1.67.13.13 0 0 1 .09-.14c.76-.87 1.54-1.88 2.18-2.74.06 0 0 .08.09.09s-.05-.1 0-.19c1.08-1 2.09-2.91 3.29-3.52-.2 0 0-.07 0-.14.73-.55 1.39-1.18 2.08-1.76a1.25 1.25 0 0 1 .67-.42c1-.46 2-.92 2.92-1.44a2 2 0 0 1 .79-.37 1.45 1.45 0 0 0 .46-.19.23.23 0 0 1 .23-.12zm12.78 1.76A1.32 1.32 0 0 1 74 5a.3.3 0 0 1-.23 0c0-.05.07 0 .14 0s-.21-.23-.24-.36z"/><path class="cls-4" d="M66.17 24.39c-.07 0-.15-.07-.14-.18.36-.12.56-.4.93-.51-.29.09-.43.34-.74.42.07.12 0 .16 0 0s-.07.25-.05.27z"/><path class="cls-5" d="M75.34 6.58c.12.1-.15.19-.28.19-.15.21-.26.45-.51.56v-.19c.05 0 0 .08 0 .14.29-.23.45-.54.79-.7z"/><path class="cls-6" d="M80.8 7a6.61 6.61 0 0 1 .79.33A1.79 1.79 0 0 1 80.8 7zm-1.34 4.41c-.06-.32.74-.93 1.11-1.25s.91-.78 1.3-1.07c-.6.56-1.24 1.08-1.85 1.62a3.74 3.74 0 0 0-.56.56zm.28.59a13.72 13.72 0 0 1 1.2-.74 6.39 6.39 0 0 1-1.2.74zm2.59-.45a2.44 2.44 0 0 1 .14.74 2.13 2.13 0 0 1-.14-.74zm.19.97a1.31 1.31 0 0 1 .09.51 1 1 0 0 1-.09-.51zm.14.74a1.31 1.31 0 0 1 .09.51 1 1 0 0 1-.09-.51zm-1.3 3.85c.05 0 0 .09 0 .14s.32-.14.42 0c-.18 0-.33.12-.46 0zm.51.14a4.9 4.9 0 0 1 .93.14 2.54 2.54 0 0 1-.93-.14zm2.87.42a1.43 1.43 0 0 1 .6.09 1.41 1.41 0 0 1-.6-.09zm2.82.6a1 1 0 0 1 .51.14 1 1 0 0 1-.51-.14zm.56.14a9 9 0 0 1 1.16.32 4.23 4.23 0 0 1-1.16-.32zm1.58.47c.31.08.57.2.88.28a3.35 3.35 0 0 1-.88-.28zm.92.32a12.64 12.64 0 0 1 1.76.65 14.19 14.19 0 0 1-1.76-.65zm1.9.7c.7.08 1.7.85 2.41.93.08 0 .09 0 .09-.09.16.31-.25 0-.51 0a16.67 16.67 0 0 1-1.99-.84zm2.13-.7a5.77 5.77 0 0 1 .28 1.11 3.88 3.88 0 0 1-.28-1.11zm-.79-2.32a.7.7 0 0 1 .18.42.71.71 0 0 1-.18-.42zM93 15.21a.7.7 0 0 1 .28.42 1.92 1.92 0 0 1-.28-.42zm-.71-1.02a.7.7 0 0 1 .28.42 1.92 1.92 0 0 1-.28-.42zm-.09-.14c-.1 0-.12-.16-.19-.23a1 1 0 0 0-.32.42 2 2 0 0 1 .32-.51.51.51 0 0 1 .19.32zM91.36 16a4.51 4.51 0 0 1-.56-.6 1.12 1.12 0 0 1 .37-.56 1.65 1.65 0 0 1-.32.46c.15.35.38.48.51.7zm1.11 1.16a1.9 1.9 0 0 1-.83-.79 7.22 7.22 0 0 0 .83.79z"/><path class="cls-4" d="M92.47 17.16c.23.2.75.36.7.69v-.09c-.17-.23-.51-.35-.7-.6z"/><path class="cls-6" d="M89.65 16.28c.71.77 1.51 1.46 2.27 2.18.38 0 .7.1 1.07.14.11-.23.07-.61.19-.83v.09c0 .3-.08.51-.09.79-1.2.1-1.69-.63-2.32-1.21a7.63 7.63 0 0 1-1.12-1.16zM90.76 13a10.29 10.29 0 0 1-1 1.53q.49-.76 1-1.53zm.24-.62c.05 0 0 .09.09.09a1 1 0 0 1-.28.42 1.19 1.19 0 0 1 .23-.37.24.24 0 0 1-.04-.14zm-.75-1.94c.16.08.21.26.23.46-.1-.13-.12-.35-.23-.46z"/><path class="cls-5" d="M89.7 9.79a2.38 2.38 0 0 1 .56.65c.11.12.13.33.23.46a9.7 9.7 0 0 1 .51 1.48.24.24 0 0 0 0 .14 1.19 1.19 0 0 0-.23.37.13.13 0 0 1-.09.14q-.52.74-1 1.53a4.11 4.11 0 0 1-.56.88A18 18 0 0 0 87 11.83c-.68-1-1.32-2.11-1.95-2.88a13.94 13.94 0 0 0-1.2-1.11 13.43 13.43 0 0 0-1.25-1.11c.28 0 .41.15.69.14h.14a1 1 0 0 0 .51.14h.14a1 1 0 0 0 .46.14.7.7 0 0 0 .46.14h.14a10.83 10.83 0 0 0 1.53.46 7.75 7.75 0 0 1 1.58.88c.51.49 1.13.67 1.45 1.16z"/><path class="cls-6" d="M88.31 8.77a2.79 2.79 0 0 1 1.39 1c-.32-.47-.94-.65-1.39-1zM85.2 7.42a8.42 8.42 0 0 1 1.53.46 10.83 10.83 0 0 1-1.53-.46zm-.6-.18a1 1 0 0 1 .46.14.7.7 0 0 1-.46-.14zm-.51-.14a.7.7 0 0 1 .46.14 1 1 0 0 1-.46-.14zm-.65-.19a1 1 0 0 1 .51.14 1 1 0 0 1-.51-.14zm-2.31-.33a6 6 0 0 1 2.18.28c-.29 0-.41-.14-.69-.14-.48-.06-1.05-.04-1.49-.14z"/><path class="cls-5" d="M79.46 11.27a3.74 3.74 0 0 1 .56-.56 3.79 3.79 0 0 1-.56.56zm-11.21-3.9a.58.58 0 0 1-.32-.18c-.33-.24-.51.11-.83.14 0-.1-.14-.14-.14-.28.28-.08.62-.09.88-.19 0-.1.2 0 .28 0a2.27 2.27 0 0 0 .13.51z"/><path class="cls-6" d="M68 8.63a1.18 1.18 0 0 1-.18.46.94.94 0 0 1 .18-.46zm-.35.92c-.18.42 0 1 0 1.58a4.36 4.36 0 0 0 .83.6 4.6 4.6 0 0 0 .88-.84c.14 0 .21.1.33.14-.14 0-.16-.12-.28-.14a5.88 5.88 0 0 1-.93.83 5.28 5.28 0 0 1-.88-.6c.07-.47-.25-1.19.05-1.57zm2.13 1.54c.36.17.66.39 1 .56.17.72 0 1.76.79 1.9a12.7 12.7 0 0 0 .16-1.55 6.3 6.3 0 0 1-.09 1.67c-.79-.16-.74-1.15-.88-1.95a11.18 11.18 0 0 1-.98-.63zm2.64-1.81a2.54 2.54 0 0 1 .42-.55 1.73 1.73 0 0 1-.42.55zm.97-1.58c.05-.18.22-.24.37-.33-.09.15-.25.22-.37.33zm20.15 6.21a1.21 1.21 0 0 1 .28.51 1.1 1.1 0 0 1-.28-.51zM94.65 16a9.55 9.55 0 0 1-.79-1.48 11.88 11.88 0 0 1 .79 1.48zm.14.28a8.69 8.69 0 0 1 .88 2.32c.44-.13 1-.18 1.39-.32.11 0-.11-.14 0-.28a.43.43 0 0 1 .14.33 14.74 14.74 0 0 1-1.53.32 14.79 14.79 0 0 0-.88-2.37zm1.39-.19a6.5 6.5 0 0 1 .74 1.67c-.28-.52-.48-1.13-.74-1.67zm-.33-.6a1.09 1.09 0 0 1 .28.51 1.48 1.48 0 0 1-.28-.51zm-.32-.6a1.09 1.09 0 0 1 .28.51 2 2 0 0 1-.28-.51zm-3.38-4.08a18.89 18.89 0 0 1 3.06 3.48 32 32 0 0 0-3.06-3.48zm-.15-.14c-.08 0-.14-.22-.19-.09a.23.23 0 0 1-.09-.23.65.65 0 0 1 .28.32z"/><path class="cls-5" d="M57.83 11a7 7 0 0 0 .79-.37c-.41.45-.87.87-1.34 1.3s-1 .77-1.44 1.21A22.75 22.75 0 0 1 54.4 15c.11.39-.48 1-.46 1.44 0 .33.48.67.51 1.07a7.83 7.83 0 0 1-.45 1.74 10 10 0 0 0-.42 1.81 7.22 7.22 0 0 0 .65 2.6c.06.09.1.29 0 .23s.42 0 .32.23c-.68.34-1.42.86-2 1.11-.61-2.77 1.09-5.32.28-8a2.48 2.48 0 0 0-.56 1.11 19.6 19.6 0 0 0-.93 4.13v.14a2.83 2.83 0 0 0-.09.74c-.07 1-.13 1.95-.19 2.92a23.07 23.07 0 0 0-4.17 3.43 3.28 3.28 0 0 0-.51.51c-.3.24-.54.54-.83.79a3.08 3.08 0 0 0-.51.51c-.48.44-.83 1.09-1.3 1.3.2 0-.15.38-.18.28q-.1-.48-.18-1c0-.19.06-.49 0-.6v-.56c0-.27.06-.52 0-.65v-1.02a2.24 2.24 0 0 1 .23-1c.32-.22.91-.56 1-.74.55-.2 1.18-.33 1.76-.51a1.16 1.16 0 0 0 .09-.37v-.14a15.16 15.16 0 0 0 .46-2.92c.21-1 .93-1.76.56-2.74v-.18c-.18-.53-1.71-.68-1.95-1.07.08-.33.24-.6.32-.93 1.71-1.05 3.2-2.18 4.82-3.39A51.59 51.59 0 0 1 55.93 12a.84.84 0 0 1 .46-.23c.47-.21.91-.45 1.34-.7.01-.07.06-.07.1-.07z"/><path class="cls-4" d="M46.44 30.24a3.28 3.28 0 0 1 .51-.51 3.16 3.16 0 0 1-.51.51zm-1.35 1.3a3.08 3.08 0 0 1 .51-.54 3.23 3.23 0 0 1-.51.54zm-1.52-3.3a1.27 1.27 0 0 1 1-.74c-.09.18-.68.5-1 .74z"/><path class="cls-6" d="M77.33 13.45c-.06.11-.19.15-.32.19a13.73 13.73 0 0 1 1.07-1.07c0 .12-.18.16-.23.28a5.17 5.17 0 0 0-.65.65c.07.01.07-.05.13-.05z"/><path class="cls-5" d="M77.33 13.45c-.06 0-.06.06-.14 0a5.17 5.17 0 0 1 .65-.65c-.14.28-.41.38-.51.65z"/><path class="cls-4" d="M77.84 12.85c0-.12.18-.16.23-.28s.12-.16.23-.18a2.71 2.71 0 0 1-.46.46z"/><path class="cls-5" d="M92.2 14.05a.13.13 0 0 1 .09.14 1.92 1.92 0 0 0 .28.42 1.7 1.7 0 0 1 .42.6 1.92 1.92 0 0 0 .28.42 5 5 0 0 1 .6 1.25.71.71 0 0 0 .18.42 5.23 5.23 0 0 1 .6 1.9 3.88 3.88 0 0 0 .28 1.11.69.69 0 0 1 .09.42c0 .06 0 .1-.09.09-.71-.08-1.71-.85-2.41-.93h-.14a12.64 12.64 0 0 0-1.76-.65 2.08 2.08 0 0 0-.23-.74c-.27-.74-.63-1.65-.93-2.41a.49.49 0 0 1 .23.28 7.63 7.63 0 0 0 1.11 1.16c.62.57 1.11 1.31 2.32 1.21 0-.28.1-.49.09-.79s-.46-.49-.7-.69a7.22 7.22 0 0 1-.83-.79c-.11-.09-.25-.16-.28-.33s-.41-.4-.51-.7a1.65 1.65 0 0 0 .32-.46 2.15 2.15 0 0 1 .46-.65 1 1 0 0 1 .32-.42c.09-.02.1.09.21.14z"/><path class="cls-6" d="M80 17.16a.23.23 0 0 1 .09.23 10 10 0 0 1-1.06.09 2.93 2.93 0 0 1 .65-.79c0 .06-.08.07-.09.14-.17.17-.31.38-.46.56a3.23 3.23 0 0 0 .83 0H80v-.23z"/><path class="cls-5" d="M79.92 17.35a3.23 3.23 0 0 1-.83 0c.16-.18.29-.39.46-.56 0 .06-.06.06 0 .14.16.07.25.28.37.42zM78 19.06a.33.33 0 0 1 .23-.28 8 8 0 0 1 2.32.18 26.42 26.42 0 0 1 .51 3.15 13.52 13.52 0 0 0 .28 1.81v4.36a2.61 2.61 0 0 1-.6-.09 2.12 2.12 0 0 0 .23-.56c-1.16.13-2.4 0-3.43.19h-.23c-1.77.57-3.42 1.47-5.09 2a.17.17 0 0 0 0 .23c-.12.17-.34.25-.46.42-.16 0-.15-.16-.28-.18a1.85 1.85 0 0 1-.83-1.16c.38-.44 1-1.2.65-1.95v-.09c-.12-1-.81-1.37-1.62-1.76a.75.75 0 0 0-.46.09c-.18-.07-.39.06-.65 0-.47.49-.78 1.44-1.71 1.72a9 9 0 0 1-1.11-.51 5.64 5.64 0 0 1 .33-1.63c0-.12 0-.26.14-.33s.14-.38 0-.32c0 0-.11-.18 0-.18s.12.08 0 0c.31-.08.45-.32.74-.42 0 .25.15.31.14.56.42 0 .68-.69 1-.51.08-.38.56-.59 1-.74s1-.33 1.39-.46c.25.25.65.27.83.6.32.59.22 1.67.6 2.27.18.29.54.36.79.6.28-.21.9-.09 1-.46v-.18a2.37 2.37 0 0 0 .18-.6 4.69 4.69 0 0 0 .11-2.29 4.36 4.36 0 0 0 3.1-2.18c0-.12.07-.14.14-.18a3.48 3.48 0 0 0 .42-.65 1 1 0 0 1 .34-.47z"/><path class="cls-4" d="M71.45 30.42c.13 0 .12.19.28.18.13-.17.34-.25.46-.42.15.37.24.81.37 1.2C73.91 30.95 75 30 76.5 29.5a9.35 9.35 0 0 1 1.39-.56c.79-.14 1.54.1 2.46 0a2 2 0 0 0 .37-.7 2.61 2.61 0 0 0 .6.09s0-.06 0 0c-.06 1.54-.06 4.4-.14 6.49v.09a4.26 4.26 0 0 0 0 1 6.08 6.08 0 0 0-1.11.19c-.69.05-1.28.21-1.95.28a3.14 3.14 0 0 0 .09.88v.28a6.87 6.87 0 0 1 2.79-.21c-.06.46-.16.89-.18 1.39a1.33 1.33 0 0 0-.09.56 31.29 31.29 0 0 1-1.13 4.82c-.13.1-.66.24-.65.46a6.17 6.17 0 0 1-.6-.93c-1 1.16-2.13 2.1-2.59 3.76a5.28 5.28 0 0 1-.14.56c-.17.55 0 1.4-.37 1.81 0 .12-.07.14-.09.23a21.9 21.9 0 0 1-2.27 2 14.63 14.63 0 0 0-.51-1.39.78.78 0 0 1-.09-.32v-.09a4.73 4.73 0 0 0-.88.46 3.9 3.9 0 0 0-.28-1.48 1.76 1.76 0 0 0 .09-.42 4 4 0 0 1 .18-.75c.37-1 0-1.91 0-2.88 0-.54.4-1 .42-1.53s-.24-1-.23-1.58c-.54-.4-1.23-.54-1.81-.93s-.81-.8-1.34-1.16c-.19-.13-1.61-.62-1.62-.93s.82-.49 1.16-.6c1.38-.48 2.94-.68 4.21-1.11a3.1 3.1 0 0 0 2.36-1.3 14.83 14.83 0 0 0-5 .23 8.94 8.94 0 0 0-2.22.42 7.65 7.65 0 0 0 .18-.88c.15-.2.06-.41.14-.6.34-.79 1.93-1.67 1.48-2.64-.06-.37-.17-.69-.23-1.07a34.51 34.51 0 0 0-6.11-3 10.11 10.11 0 0 0-.93.93v-.09a4.11 4.11 0 0 0-.88-.83v-.35c.67-.6 1.71-1.49 2.55-2.18.11-.09 1-.85.83-.46-.11.09 0 .39 0 .56a1.34 1.34 0 0 0 .64 1.81 4.91 4.91 0 0 0 .74.6c.51.27 1.15.31 1.53.56a4 4 0 0 0 1.57-1.9c.38.16.65.43 1 .6a7.2 7.2 0 0 1-1 .74c0 .47-.29.79-.23 1.16a2.65 2.65 0 0 0 .65 1c.51.45 1.45.65 1.85 1 .16-.38.7-.88.34-1.17zm-2.32-4.87a.75.75 0 0 1 .46-.09 1.35 1.35 0 0 1-.46.09z"/><path class="cls-5" d="M92.34 27.18a8.87 8.87 0 0 0-.19-2.27c-.08-.74-.08-1.62-.19-2.18s-.55-1.21-.56-1.53c.1.11.3.13.46.18a.77.77 0 0 0 .46.19h.09c.66.34 1.34.67 2 1a.33.33 0 0 1 .32.19c.25.31.68.44.83.84.06 0 0 .12 0 .18v1.86a5.53 5.53 0 0 0-.88.42 1.84 1.84 0 0 1-.6.28 3.57 3.57 0 0 0-.69.32.2.2 0 0 1-.18.09 8.1 8.1 0 0 0-.87.43zm-1.21.65c0 .64-.2-.26.14-.19 0 .09-.15 0-.14.14zm-.18 9.09c1 .84 2.09 1.56 3.06 2.41A8.48 8.48 0 0 1 94.7 41a.13.13 0 0 0-.14.09c0 1 .08 2 .19 2.92v.19c0 .33 0 .81-.23.74v-.09a14 14 0 0 1-.19-1.62 1 1 0 0 0-.14-.69c-.29-.5-.47-1.11-.74-1.62a19.84 19.84 0 0 0-3-3c.12-.35.67-.67.5-1zm-9.08-17.81c.87 1 2.09 2.31 3.06 3.43a11.39 11.39 0 0 1 1 1.16 23.2 23.2 0 0 1 1.16 2.37c.18.38.36.8.56 1.21a9.68 9.68 0 0 1 .6 1.11 19 19 0 0 1 .33 1.9 17.4 17.4 0 0 1 .32 1.86c0 .57-.07 1.28-.09 1.95a17.55 17.55 0 0 1-.19 2.83 2.94 2.94 0 0 0-.42-.09h-.19c-.29-.15-.71-.18-1-.33a7.56 7.56 0 0 1 .19-1.3 32.33 32.33 0 0 0 .46-3.85c0-.4.19-.88-.09-1.16a2.36 2.36 0 0 1-.46-.65c-.28-.46-1.14-.22-1.85-.32-.68 0-.62-.67-1.11-.83 0 .33-.08.63-.09 1a8.42 8.42 0 0 1-1.11-.46c-.15-1.62-.17-3.38-.37-5 0-.18.06-.49 0-.6a5.33 5.33 0 0 0-.25-1.34 5.49 5.49 0 0 0-.09-1.16c-.08-.63-.24-1.13-.37-1.73z"/><path class="cls-6" d="M96.46 21.52a8.93 8.93 0 0 1-.19-1.58c.5-.1.91-.3 1.39-.42.24.87.5 1.73.69 2.64-.27-.81-.5-1.67-.69-2.55a7.44 7.44 0 0 0-1.34.42c0 .5.13.89.14 1.39z"/><path class="cls-4" d="M96.83 22.17c-.28-.07-.41-.27-.37-.65v-.09c.04.32.12.57.37.74z"/><path class="cls-5" d="M97 22.31c-.12 0-.14-.07-.18-.14-.25-.12-.32-.42-.37-.74 0-.5-.13-.89-.14-1.39a7.44 7.44 0 0 1 1.34-.42c.2.88.42 1.74.69 2.55a1.44 1.44 0 0 1 .14.56v1c-.28-.29-.57-.57-.88-.84a4.62 4.62 0 0 0-.6-.6z"/><path class="cls-6" d="M97 22.31a4.28 4.28 0 0 0 .6.6c.3.27.6.54.88.84 0-.36-.08-.63 0-1a6 6 0 0 1 .09 1c-.23 0-.48-.41-.74-.65a5.23 5.23 0 0 1-.83-.79z"/><path class="cls-4" d="M97.66 22.91a4.28 4.28 0 0 1-.6-.6 4.62 4.62 0 0 1 .6.6z"/><path class="cls-6" d="M44.58 21.94a38.73 38.73 0 0 0-1 4.78c.11 0 .1-.08.23 0 0 .08-.15.1-.28.09a26.17 26.17 0 0 1 1.05-4.87zm-.69 4.73c.35-.19.54-.54.88-.74a11.91 11.91 0 0 1 .46-2.18c-.23 1.13-.23 2.6-1.34 2.92zm.69-4.78c.07-.29.19-.52.28-.79a6.34 6.34 0 0 1 .65.18 5.41 5.41 0 0 1-.28 2.41 6.77 6.77 0 0 0 .23-2.36 2.76 2.76 0 0 0-.6-.19 2 2 0 0 1-.28.75zM66.08 25a5.64 5.64 0 0 0-.42 1.76 9 9 0 0 0 1.11.51c.93-.27 1.23-1.18 1.71-1.67.26 0 .47-.12.65 0a1.35 1.35 0 0 0 .46-.09c.81.39 1.5.73 1.62 1.76a2.12 2.12 0 0 0-2.68-1.58c-.55.64-.87 1.52-1.81 1.76a12.29 12.29 0 0 1-1.11-.55 3.46 3.46 0 0 1 .47-1.9z"/><path class="cls-6" d="M71.26 27.32c.38.75-.27 1.51-.65 1.95a1.85 1.85 0 0 0 .83 1.16c.37.29-.17.78-.28 1.16-.41-.37-1.34-.56-1.85-1a2.65 2.65 0 0 1-.65-1c-.05-.37.23-.69.23-1.16a7.2 7.2 0 0 0 1-.74c-.37-.17-.64-.44-1-.6A4 4 0 0 1 67.28 29c-.38-.25-1-.28-1.53-.56a4.91 4.91 0 0 1-.74-.6 1.34 1.34 0 0 1-.55-1.72c0 .41-.07.67 0 1.07.4.43.91.76 1.3 1.21.59.11 1 .38 1.58.51A4.26 4.26 0 0 0 68.9 27c.3.3.75.45 1.06.74-.35.23-.65.5-1 .7-.06.42-.19.77-.23 1.21.48 1 1.56 1.35 2.46 1.9a8 8 0 0 0 .37-.93c-.38-.41-.93-.64-1-1.39a2 2 0 0 0 .7-1.91zM58.43 28a7 7 0 0 1-.43-2.26c.31 0 .45-.23.79-.23.22.58.53 1.07.79 1.63a3 3 0 0 1-.46-.79 3.54 3.54 0 0 0-.6-.74c-.26.07-.19.46-.23.74a1.77 1.77 0 0 0-.09.56c.06.36.18.65.23 1z"/><path class="cls-5" d="M97.34 25a3.94 3.94 0 0 1 .56.83c0 .15.14.2 0 .37a.85.85 0 0 1-.23.42s-.08 0-.09.09c-.29 0-.51-.12-.74 0 0-.12.06-.37 0-.42v-.09c0-.23.06-.59 0-.74 0-.26.06-.65 0-.83-.06 0 0-.12 0-.19s.08 0 .09 0a7.31 7.31 0 0 1 .41.56z"/><path class="cls-4" d="M96.87 26.67c.23-.12.45 0 .74 0 0-.05.05-.07.09-.09s-.09.09-.09.19c-.2.1 0 .4.09.51s.12.13.09.28c.07.59.49.84.93 1.07a4.69 4.69 0 0 0 0 1.07v.14c0 1.48.64 2.76.83 4.22-.15.73-.32 1.44-.46 2.18a10.62 10.62 0 0 0-.79-1.34 15.47 15.47 0 0 1-2.45 7.56 6.74 6.74 0 0 0-.14-1.25c-.08-.09 0-.31 0-.46-.2-.19-.69.1-.93.19a8.48 8.48 0 0 0-.78-1.61 3.05 3.05 0 0 0 .88-.14 6.9 6.9 0 0 0-3-3.38q.51-3 1-6a.4.4 0 0 1 0-.28c.12-.29.14-.67.23-1 .77-.46 1.29-1.18 2.36-1.34a47.16 47.16 0 0 1-.37 5.33 1.1 1.1 0 0 0-.09.56q-.1 1-.28 1.86a1.34 1.34 0 0 0-.09.56c-.11.19 0 .57 0 .83v1.16c.27-.18.31-.58.42-.88a23.75 23.75 0 0 0 1.44-5 4.83 4.83 0 0 1 .14-.79c.11-.11 0-.42 0-.6v-.12c.11-.1 0-.39 0-.56v-.14c.11-.12 0-.45 0-.65v-.14c.11-.11 0-.42 0-.6v-.14c.11-.13 0-.45 0-.65v-.56zM58.43 28a1.47 1.47 0 0 1 .19.65 1.48 1.48 0 0 1-.19-.65zm-.14-1.61a1.1 1.1 0 0 1-.09.56 1.77 1.77 0 0 1 .09-.56zm.84-.05a5 5 0 0 1-.6-.7c-.2.11-.11.51-.23.7 0-.28 0-.67.23-.74a3.54 3.54 0 0 1 .6.74z"/><path class="cls-6" d="M80.71 28.24a2 2 0 0 1-.37.7c-.92.1-1.66-.14-2.46 0a9.35 9.35 0 0 0-1.39.56c-1.45.55-2.59 1.45-3.94 1.9-.13-.39-.22-.83-.37-1.2a.17.17 0 0 1 0-.23c1.68-.57 3.33-1.47 5.09-2h.23c1-.16 2.26-.05 3.43-.19a2.12 2.12 0 0 1-.22.46zM79 27.87a15 15 0 0 0-1.71.09 8.85 8.85 0 0 0-1.25.51c-1.33.52-2.55 1-3.84 1.53a10.29 10.29 0 0 0 .37 1.34c1.44-.61 2.72-1.47 4.21-2a6.4 6.4 0 0 1 1.11-.42c.77-.12 1.52.08 2.46 0 .09-.4.54-.91.42-1.21-.49.03-1.17.12-1.77.16zM75.62 48c-.07.66 0 1.45-.37 1.81.32-.45.19-1.31.37-1.81zm-3.25 2.6a14.63 14.63 0 0 1 .51 1.4 21.9 21.9 0 0 0 2.27-2 13.6 13.6 0 0 1-2.32 2.09c-.11-.54-.32-.98-.46-1.49zM49.26 38.77c.06-1.13.13-2.25.23-3.34a9.59 9.59 0 0 0-1-.6c-.62.71-1.46 1.25-2 2s-.69 1.64-1.3 2.32c-.36-1-.73-2.12-1.06-3.29a4.37 4.37 0 0 1-.28-1.16c0-.25.55-.71.79-1a43.3 43.3 0 0 1 6.67-5.66 69.34 69.34 0 0 0 1.34 9.14c.54 2.16 1.6 4.16 2.13 6.21-1 .94-1.81 2.05-2.83 3a14.76 14.76 0 0 0-.46-4.22 7.62 7.62 0 0 0-1-.79 7 7 0 0 1-1.39-.14c0-.11-.06-.34 0-.37v.37h.23a2.47 2.47 0 0 1 2.13.88 9 9 0 0 1 .42 2.55c0 .19-.06.49 0 .6 0 .27.07.35 0 .56v.46c0 .1.15-.09.18-.14a35 35 0 0 1 2.55-2.74c-.53-1.47-1-2.87-1.48-4.36-.21-.63-.53-1.24-.69-1.9a72.67 72.67 0 0 1-1.3-8.95 39.58 39.58 0 0 0-3.47 2.6.68.68 0 0 0-.09.14s-.16.08-.28.19a28.71 28.71 0 0 0-2.69 2.6c-.23.26-.74.69-.79.93-.12.58.42 1.59.6 2.23.23.8.4 1.46.65 2.13a21.87 21.87 0 0 0 1.25-2.22c.57-.78 1.47-1.24 1.95-2.09a6.26 6.26 0 0 1 1.2.6c0 .93-.17 2.22-.23 3.43z"/><path class="cls-4" d="M51.95 45.87c.1 0 0 .29 0 .42s.07-.08.14-.09-.15.24-.18.14zM82.84 28.8a8.42 8.42 0 0 0 1.11.46 2.3 2.3 0 0 0 0 .74 13.19 13.19 0 0 1 2.13.83 12.59 12.59 0 0 1-.09 3.76 12.8 12.8 0 0 1-.23 1.58c-.47 0-.86-.1-1.34-.09a12.6 12.6 0 0 0-1.76-.19h-.09c.09-.08 0-.34.09-.42a36.62 36.62 0 0 0 .37-4.5v-.14c0-.22.06-.55 0-.7V30c-.11-.45-.21-.76-.19-1.2z"/><path class="cls-6" d="M83.4 42.2a2.62 2.62 0 0 1-2.13.33 27 27 0 0 0 1-5.24 14.56 14.56 0 0 1 3.2.6c-.18.94 0 1.9-.23 2.69a3.08 3.08 0 0 1-.6.79c-.22.28-.4.64-.74.65a.43.43 0 0 1 .33-.14c.3-.44.64-.84 1-1.25.06-.91.17-1.78.23-2.69a16.76 16.76 0 0 0-3.1-.6 34.13 34.13 0 0 1-1 5.19 3.3 3.3 0 0 0 2.04-.33zm-35.57-3.52v-1c-.14.11-.17.32-.33.42.08-.21.26-.33.33-.56a3 3 0 0 1 0 1.14z"/><path class="cls-4" d="M47 38.91a6 6 0 0 1 .51-.84c.15-.1.19-.3.33-.42v1c.05.06 0 .07 0 .14a8 8 0 0 0 0 1.39 13.21 13.21 0 0 0-.09 1.44 1.85 1.85 0 0 0 .65.88c.28.12.65 0 1 .09a2.43 2.43 0 0 1 1.11.79 2.05 2.05 0 0 1 .14.56v3.36a23.63 23.63 0 0 1-2.18-1.95 2.14 2.14 0 0 1-.28-.51c-.69-1.26-1.54-2.36-2.13-3.71a7.1 7.1 0 0 0 .94-2.22z"/><path class="cls-6" d="M47 38.91a7.1 7.1 0 0 1-1 2.23c.59 1.35 1.44 2.45 2.13 3.71a29.88 29.88 0 0 1-2.18-3.71A10.26 10.26 0 0 0 47 38.91zm1.38 6.45a23.63 23.63 0 0 0 2.18 1.95V44c.11 1 0 2.24 0 3.34a11.39 11.39 0 0 1-2.18-1.98zm-.6-5.1a8.85 8.85 0 0 1 0 1.44 5.09 5.09 0 0 0 .6.84 2.27 2.27 0 0 1 2.08.93 2.43 2.43 0 0 0-1.11-.79c-.32-.09-.7 0-1-.09a1.85 1.85 0 0 1-.65-.88 13.21 13.21 0 0 1 .08-1.45z"/><path class="cls-5" d="M86.36 40.76c.22-.79.23-1.78.42-2.6A8.17 8.17 0 0 1 89 39a1.29 1.29 0 0 1 .46.23 10.9 10.9 0 0 1 1.95 1.48 2.34 2.34 0 0 1 .42.7 3 3 0 0 1 .6 2v1.07a4.73 4.73 0 0 1 0 .84.67.67 0 0 0-.09.42c0 .07.05.24 0 .23a.67.67 0 0 0-.09.42A4.65 4.65 0 0 1 91.13 49c-.43.47-1 .78-1.48 1.2 0 .07-.07.15-.18.14-1.78 1.4-3.93 2.43-5.7 3.85 0 .07-.07.15-.19.14s-.27.1-.37.18a3.73 3.73 0 0 1-.83.23h-.09a2.5 2.5 0 0 0 .55-.37.51.51 0 0 1 .33-.23 24.11 24.11 0 0 0 2.22-2c.2-.12.28-.34.51-.42A50 50 0 0 0 89.33 48a11 11 0 0 1 1.16-1.39 1.82 1.82 0 0 0 .28-.56c.15-.42.38-.77.56-1.16a5.11 5.11 0 0 0 .46-.93.47.47 0 0 1 .14-.28c0-.31-.71.08-1.06 0-.79 1.22-1.76 2.25-2.59 3.43a11.25 11.25 0 0 1-1 1.58 38.18 38.18 0 0 1-5 4.17.81.81 0 0 1-.42.28c-.86 0-2.05.05-2.69 0-.07 0 0 0 0 .09a23.43 23.43 0 0 0-2.78.7 19.47 19.47 0 0 0 .83-1.9.43.43 0 0 1 .14-.33 11 11 0 0 0 .83-1.95c-.43.1-.6.45-1 .56-.64 1.12-1.36 2.17-2.08 3.2-2.27.37-4.57 1.21-7.13 1.3a20.75 20.75 0 0 1-3.61-2 4.48 4.48 0 0 0-.6-.6c-.48-.55-1-1-1.48-1.58a8.29 8.29 0 0 0-.83-.83c-.25-.33-.58-.56-.83-.88a2.3 2.3 0 0 0-.56-.56A42.83 42.83 0 0 1 57 44a24.67 24.67 0 0 1 4.08-2.41 40.43 40.43 0 0 1 4.31-2.18c0 .22.08.26.14.37.38.2.66.7 1.07 1 .23.15.85.3.74.51a5.66 5.66 0 0 1 1.56.71c.52.31 1.05.6 1.53.93 0 .61-.08 1.09 0 1.72-.11.06 0 .32 0 .46v.7c-.11.08 0 .36 0 .51-.12 1.31.48 1.9.74 2.83h.09a3.9 3.9 0 0 1 .28 1.48c0 .8 0 1.66.09 2.55a6.68 6.68 0 0 1 .79.6 15.55 15.55 0 0 0 1.85-1.44A13.17 13.17 0 0 0 76.22 51c.39-.44.54-1 .93-1.49 0-.51-.19-1-.14-1.39a6.89 6.89 0 0 1 .79-1.67c.39-.61 1-1 1.3-1.58.1-.11-.12-.15-.14-.28s.51-.37.65-.46a9.66 9.66 0 0 0-.46 1.53 1 1 0 0 1-.19.51 19.84 19.84 0 0 0-.96 2.66 6.21 6.21 0 0 0 1.3-1.11 12.31 12.31 0 0 0 .74-1.62 12.15 12.15 0 0 0 1.07-2.6c1.05-.22 2.07.14 3.06 0 .66-.12 1.19-.73 1.71-.88.32-.5.26-1.32.48-1.86z"/><path class="cls-4" d="M79.09 53.19c0-.05-.07-.07 0-.09.64.1 1.82 0 2.69 0a8 8 0 0 1-1.39 0c-.39.11-1.01.07-1.3.09zm-15.42-1.06a4.48 4.48 0 0 1 .6.6 4.32 4.32 0 0 1-.6-.6zm-1.49-1.58a8.32 8.32 0 0 1-.83-.83 8.29 8.29 0 0 1 .83.83zm-1.66-1.72a3.75 3.75 0 0 1-.56-.56 2.3 2.3 0 0 1 .56.56z"/><path class="cls-5" d="M49.31 38.77c.06-1.21.25-2.51.23-3.43a6.26 6.26 0 0 0-1.2-.6c-.47.85-1.37 1.31-1.95 2.09A21.87 21.87 0 0 1 45.14 39c-.25-.67-.42-1.33-.65-2.13-.18-.64-.72-1.65-.6-2.23 0-.24.56-.67.79-.93a28.71 28.71 0 0 1 2.69-2.6c.12-.11.3-.22.28-.19a.68.68 0 0 1 .09-.14 39.58 39.58 0 0 1 3.47-2.6 72.67 72.67 0 0 0 1.3 8.95c.16.66.48 1.27.69 1.9.49 1.49 1 2.89 1.48 4.36a35 35 0 0 0-2.55 2.74c-.07 0-.08.08-.14.09s.06-.37 0-.42c.07-.21 0-.29 0-.56s.06-.49 0-.6a9 9 0 0 0-.42-2.55 2.47 2.47 0 0 0-2.13-.88c-.21 0-.21-.23-.19-.46a3.83 3.83 0 0 0 0-.88c.11-.08 0-.35 0-.51v-.19c.12 0 .03-.26.06-.4z"/><path class="cls-6" d="M72.28 50.27h-.09c-.21.19-.51.29-.74.46 0 .81.07 1.6.09 2.41a3.54 3.54 0 0 0 .83.6c.6-.43 1.14-1 1.81-1.44a13.39 13.39 0 0 0 1.95-1.3 5.41 5.41 0 0 0 .93-1.49c.1-.51-.17-1-.09-1.49a7.14 7.14 0 0 1 .79-1.62A17 17 0 0 0 79 44.8a11.82 11.82 0 0 1-.69-1.07 10.83 10.83 0 0 0-2.59 3.66c.46-1.65 1.64-2.59 2.59-3.76a6.17 6.17 0 0 0 .6.93c0 .12.24.17.14.28-.27.55-.91 1-1.3 1.58a6.89 6.89 0 0 0-.75 1.67c-.06.41.14.88.14 1.39-.38.45-.53 1-.93 1.49a13.17 13.17 0 0 1-2.08 1.39 15.55 15.55 0 0 1-1.85 1.44 6.68 6.68 0 0 0-.79-.6c-.06-.89-.11-1.75-.09-2.55a4.73 4.73 0 0 1 .88-.46zm-16.86-5.19a30.24 30.24 0 0 0 6.25 7.75c1 1 2.08 1.88 3.06 2.87-1.66-.54-3.41-1.18-5.14-1.8a17.49 17.49 0 0 1-1.71-.6c-.49-.24-1-.68-1.53-1a15.14 15.14 0 0 1-2.78-2.13c-.35-.35-1.09-.87-1.16-1.21a2.65 2.65 0 0 1 .14-1.07c.09-.23.48-.45.74-.7.71-.69 1.5-1.51 2.13-2.11zm-2.27 2.27c-.53.25-.61.93-.69 1.62.84.66 1.46 1.55 2.32 2.23.44.35 1.07.63 1.62 1s1 .81 1.57 1.07 1.11.35 1.67.56c1.66.61 3.25 1.29 4.91 1.71-1.05-.89-2.06-1.83-3.06-2.78a7.61 7.61 0 0 0-.79-.79 3.8 3.8 0 0 1-.37-.37 3.83 3.83 0 0 0-.56-.56 3.64 3.64 0 0 1-.51-.51 2.61 2.61 0 0 0-.46-.53 24.67 24.67 0 0 1-2.69-3.76c-.05-.14-.12 0-.19-.09.16-.16-.51-1-.46-1-.22-.06-.32.31-.65.51a9.48 9.48 0 0 0-.88.88c0 .17-.2.14-.37.33a2.16 2.16 0 0 0-.41.48z"/><path class="cls-4" d="M58.8 50a2.61 2.61 0 0 1 .46.46 2.63 2.63 0 0 1-.46-.46zm.98 1a3.83 3.83 0 0 1 .56.56 3.79 3.79 0 0 1-.56-.56zm.92.94a7.61 7.61 0 0 1 .79.79 7.4 7.4 0 0 1-.79-.79zm-7.55-4.59a2.16 2.16 0 0 1 .42-.42c0 .13-.32.24-.23.32s-.12-.07-.14.09zm.79-.74a9.48 9.48 0 0 1 .88-.88 9.61 9.61 0 0 1-.88.88z"/><path class="cls-6" d="M78.3 54.58a19.07 19.07 0 0 1 2.41-.32 3.57 3.57 0 0 1 0 .93c-.13-.3.18-.7 0-.88a7.41 7.41 0 0 0-1.25.14c-.52.06-.89.13-1.16.13zm-7.83.84c.07-.13.26-.14.46-.14-.12.07-.33.07-.46.14zm2.64 1.02c-.8 0-2.91.37-3.75.09-.15 0-.66-.49-.42-.56.13.79 1.73.51 2.69.51.17 0 .46.06.56 0h.93zm1.12-.09c.09.05.34 0 .55 0a6.17 6.17 0 0 1-1.62.09h.56c.17-.06.41-.01.51-.09zm.83-.05a6.66 6.66 0 0 1 1.16-.19 4.55 4.55 0 0 1-1.16.19zm2.73-.42a1.32 1.32 0 0 1 .51-.09.83.83 0 0 1-.51.09zm.88-.14a4.07 4.07 0 0 1 .69-.14 1.14 1.14 0 0 1-.69.14zm1.33-.32a1.41 1.41 0 0 1 .56-.14 1 1 0 0 1-.56.14z"/><path class="cls-5" d="M73.72 56.39c.08-.08.5-.06.51 0s-.34-.01-.51 0z"/><path class="cls-6" d="M66 1.39a1.86 1.86 0 0 1 .74-.14 2.48 2.48 0 0 1-.74.14z"/><path class="cls-4" d="M75.85 4.82c.08.08.27 0 .42 0h-.19c-.08.08-.28.18-.23 0z"/><path class="cls-6" d="M76.73 4.92H77V5c-.28 0-.68.06-.88 0h.65zm.74.08c.53 0 1.23 0 1.76.1a16.7 16.7 0 0 1-2.09-.1zm-9.17.75h.32a3.63 3.63 0 0 1-.83.14c.09-.12.39-.04.51-.14zm1.9.65c1.63-.13 3.18-.12 4.86-.14-.08.11-.35 0-.51 0a6.13 6.13 0 0 0-1.2 0h-1.16c-.26 0-.65-.06-.83 0zm9.91.18c-.15-.19.77-.05 1 0-.38.06-.72-.14-1 0z"/><path class="cls-4" d="M59.31 7.61v1.25a6.61 6.61 0 0 1 0-1.25z"/><path class="cls-5" d="M68 8.63a2.42 2.42 0 0 1 .28-.7 1.8 1.8 0 0 0 .93 1.81c.78.62 1.67 1.33 2.36 1.95.1 0 0-.23 0-.32a1.41 1.41 0 0 1 .09.6 12.7 12.7 0 0 1-.14 1.58c-.76-.14-.62-1.18-.79-1.9-.36-.17-.66-.39-1-.56-.12 0-.18-.13-.33-.14a4.6 4.6 0 0 1-.88.84 4.36 4.36 0 0 1-.83-.6c0-.53-.23-1.15 0-1.58a1 1 0 0 1 .19-.46 1.18 1.18 0 0 0 .12-.52zm27.21 5.65a1.71 1.71 0 0 1 .32.6 2 2 0 0 0 .28.51v.09a1.48 1.48 0 0 0 .28.51v.09c.26.54.46 1.15.74 1.67A.23.23 0 0 1 97 18c-.06.14.16.24 0 .28-.43.15-.95.2-1.39.32a8.69 8.69 0 0 0-.88-2.32.47.47 0 0 1-.14-.28 11.88 11.88 0 0 0-.79-1.48v-.09a1.21 1.21 0 0 0-.28-.51 16.74 16.74 0 0 1-1.71-3.34c0-.13.1.1.19.09s.15 0 .14.14a32 32 0 0 1 3.07 3.47z"/><path class="cls-6" d="M83.4 17.49a1.53 1.53 0 0 1 .65.09 1.81 1.81 0 0 1-.65-.09zm2.03.27a3.84 3.84 0 0 1 1.3.28c-.42-.1-.89-.16-1.3-.28zm-2.54 1.35c-.34.05-.85-.18-1 0-.05 0-.05-.07 0-.14a6.17 6.17 0 0 1 1 .14zm-.65 1.71a5.49 5.49 0 0 1 .09 1.18 6.11 6.11 0 0 1-.09-1.18zm.09 1.18a5.33 5.33 0 0 1 .09 1.11 5.21 5.21 0 0 1-.09-1.11zm-1.25.12a13.54 13.54 0 0 1 .28 1.81 13.52 13.52 0 0 1-.28-1.81zm1.34 1.07c.11.11 0 .42 0 .6-.06-.11.03-.41 0-.6z"/><path class="cls-4" d="M95.72 23.79c.14.07 0 .2 0 .33-.05-.12-.07-.27 0-.33zm-14.36.14c.11.13 0 .45 0 .65zm-7.41.88a2.37 2.37 0 0 1-.18.6 2.22 2.22 0 0 1 .14-.6z"/><path class="cls-6" d="M96.78 25.42c.11.15 0 .51 0 .74-.06-.16.03-.51 0-.74zm-5.6 2.92c.11.06 0 .32 0 .46-.06-.07.03-.32 0-.46zm.04.51c.11.07 0 .32 0 .46-.06-.06.03-.31 0-.46zm.1 1.02c-.11-.08 0-.36 0-.51.06.08-.03.35 0 .51zm0 .04a1.21 1.21 0 0 1 0 .74zm7.73 6.63c0 .23.06.59 0 .74-.05-.23-.11-.58 0-.74zm-49.83 3.39a3.83 3.83 0 0 1 0 .88 7.9 7.9 0 0 1 .09-1.21z"/><path class="cls-5" d="M56 42.25a2 2 0 0 1-.28-.65c-.15-.65-.58-1.24-.65-1.81a35.14 35.14 0 0 1-2.32-12.71c1-.63 2-1.37 2.87-1.85 0 .22.14.32.14.56-.15-.12-.26.12-.51 0v.88a19.88 19.88 0 0 0 2.55 3.2l1.11-.33a5.22 5.22 0 0 0-.32-1 1.47 1.47 0 0 0-.19-.65c0-.37-.17-.66-.23-1a1.1 1.1 0 0 0 .09-.56c.12-.19 0-.59.23-.7a5 5 0 0 0 .6.7 3 3 0 0 0 .46.79.13.13 0 0 1 .09.14c.34.65.75 1.29 1.34 1.44a1.08 1.08 0 0 0 .09-.42 4.11 4.11 0 0 1 .88.83v.09c-.16.18-.19.06-.28.23a6.39 6.39 0 0 0 1.53.7A42.52 42.52 0 0 1 68.07 32a4.53 4.53 0 0 0-.65 1.34v.09a20.74 20.74 0 0 0-1.44 3.71 39.66 39.66 0 0 0-5.19 2.46 48.56 48.56 0 0 0-4.63 2.74c-.16-.01.04-.2-.16-.09z"/><path class="cls-6" d="M94.56 41.09c.1.93.14 1.93.19 2.92-.12-.92-.17-1.91-.19-2.92zm-2.13 4.27a.67.67 0 0 1-.09.42.67.67 0 0 1 .09-.42zm-.14.64a.67.67 0 0 1-.09.42.67.67 0 0 1 .09-.42zM71.4 55.23a14.4 14.4 0 0 1 3-.32c-1.09.04-1.97.26-3 .32zm4.35.05a5.65 5.65 0 0 1 1.16 0s0 .05-.09 0zM63.25 5.71c.22-.15.75 0 1.06 0-.39.06-.65-.04-1.06 0z"/><path class="cls-4" d="M51.39 22.77v.6a2.83 2.83 0 0 1 .09-.74z"/><path class="cls-6" d="M82.47 23.84c.2 1.58.22 3.34.37 5 0 .44.08.75 0 1.21-.14-2.05-.26-4.13-.37-6.21zm14.26.69c.11.19 0 .57 0 .83-.06-.18.03-.56 0-.83zm.1 1.72c.1.05 0 .29 0 .42V27c-.06-.16.03-.52 0-.75z"/><path class="cls-5" d="M54.82 45.73c.32-.2.42-.57.65-.51 0 0 .62.81.46 1 .07.1.13-.05.19.09A24.67 24.67 0 0 0 58.8 50a2.63 2.63 0 0 0 .46.46 3.64 3.64 0 0 0 .51.51 256.31 256.31 0 0 1 .93.93 7.4 7.4 0 0 0 .79.79c1 1 2 1.89 3.06 2.78-1.66-.43-3.25-1.11-4.91-1.71-.55-.2-1.16-.31-1.67-.56s-1-.73-1.57-1.07-1.18-.63-1.62-1c-.86-.68-1.48-1.57-2.32-2.23.08-.69.17-1.38.69-1.62 0-.16.13 0 .14-.09s.2-.2.23-.32.38-.16.37-.33a9.61 9.61 0 0 0 .93-.81z"/></g></g></svg>