<?xml version="1.0" encoding="UTF-8"?>
<!DOCTYPE svg PUBLIC "-//W3C//DTD SVG 1.1//EN" "http://www.w3.org/Graphics/SVG/1.1/DTD/svg11.dtd">
<!-- Creator: CorelDRAW X8 -->
<svg xmlns="http://www.w3.org/2000/svg" xml:space="preserve" width="1779px" height="1050px" version="1.1" style="shape-rendering:geometricPrecision; text-rendering:geometricPrecision; image-rendering:optimizeQuality; fill-rule:evenodd; clip-rule:evenodd"
viewBox="0 0 14452 8531"
 xmlns:xlink="http://www.w3.org/1999/xlink">
 <defs>
  <style type="text/css">
   <![CDATA[
    .fil3 {fill:#2C3E50}
    .fil5 {fill:#6DBCDB}
    .fil4 {fill:#FC4349}
    .fil2 {fill:#2C3E50;fill-rule:nonzero}
    .fil1 {fill:#6DBCDB;fill-rule:nonzero}
    .fil0 {fill:#FC4349;fill-rule:nonzero}
   ]]>
  </style>
 </defs>
 <g id="Слой_x0020_8">
  <metadata id="CorelCorpID_0Corel-Layer"/>
  <path class="fil0" d="M5388 1697l358 0c168,0 290,25 364,76 76,50 113,130 113,238 0,75 -20,137 -63,186 -42,49 -102,81 -183,95l0 9c193,33 289,134 289,303 0,113 -39,202 -115,265 -77,64 -184,96 -321,96l-442 0 0 -1268zm147 543l243 0c104,0 179,-16 224,-49 46,-32 69,-87 69,-165 0,-71 -26,-122 -76,-154 -51,-31 -132,-47 -243,-47l-217 0 0 415zm0 125l0 474 265 0c102,0 179,-20 230,-60 52,-39 78,-101 78,-186 0,-78 -27,-136 -79,-173 -53,-37 -134,-55 -242,-55l-252 0z"/>
  <path id="1" class="fil0" d="M6918 2983c-141,0 -252,-43 -333,-129 -81,-85 -122,-204 -122,-356 0,-154 38,-275 113,-366 76,-90 177,-135 304,-135 119,0 214,39 283,118 69,78 104,181 104,310l0 91 -654 0c3,111 31,196 84,254 53,57 129,86 226,86 102,0 203,-21 303,-64l0 129c-51,22 -99,38 -144,47 -45,10 -100,15 -164,15zm-39 -865c-77,0 -137,25 -183,75 -45,49 -72,118 -80,205l497 0c0,-90 -21,-160 -61,-208 -41,-48 -98,-72 -173,-72z"/>
  <path id="2" class="fil0" d="M7954 2983c-61,0 -118,-12 -169,-35 -51,-23 -94,-58 -129,-105l-10 0c7,55 10,108 10,158l0 390 -144 0 0 -1376 117 0 20 130 7 0c37,-52 80,-90 129,-113 50,-23 106,-35 169,-35 126,0 224,43 292,130 69,86 103,206 103,362 0,156 -35,278 -104,364 -70,86 -167,130 -291,130zm-20 -863c-97,0 -168,27 -211,80 -44,54 -66,140 -67,257l0 32c0,133 22,229 67,286 44,58 116,87 214,87 82,0 147,-33 193,-100 47,-66 70,-158 70,-275 0,-118 -23,-209 -70,-272 -46,-64 -112,-95 -196,-95z"/>
  <polygon id="3" class="fil0" points="9241,2138 8932,2138 8932,2965 8788,2965 8788,2138 8483,2138 8483,2015 9241,2015 "/>
  <path id="4" class="fil0" d="M9830 2983c-140,0 -251,-43 -332,-129 -81,-85 -122,-204 -122,-356 0,-154 38,-275 113,-366 75,-90 177,-135 304,-135 119,0 213,39 282,118 70,78 105,181 105,310l0 91 -655 0c3,111 31,196 84,254 54,57 129,86 226,86 103,0 204,-21 304,-64l0 129c-51,22 -99,38 -145,47 -45,10 -100,15 -164,15zm-39 -865c-76,0 -137,25 -182,75 -46,49 -72,118 -80,205l496 0c0,-90 -20,-160 -61,-208 -40,-48 -98,-72 -173,-72z"/>
  <polygon id="5" class="fil0" points="10979,2015 11136,2015 10726,2473 11170,2965 11002,2965 10569,2484 10569,2965 10425,2965 10425,2015 10569,2015 10569,2477 "/>
  <path id="6" class="fil0" d="M11726 2983c-138,0 -244,-43 -320,-127 -75,-85 -113,-205 -113,-360 0,-159 38,-282 115,-369 77,-86 186,-130 327,-130 46,0 91,5 137,15 46,10 82,21 108,35l-45 122c-31,-13 -66,-23 -104,-31 -37,-9 -70,-13 -99,-13 -193,0 -290,123 -290,369 0,117 24,207 71,269 47,62 117,93 209,93 79,0 161,-17 244,-51l0 128c-64,33 -144,50 -240,50z"/>
  <path class="fil1" d="M5388 3502l199 0 0 458c0,49 -3,146 -9,292l5 0 330 -750 276 0 0 1067 -198 0 0 -447c0,-67 3,-169 10,-303l-5 0 -333 750 -275 0 0 -1067z"/>
  <polygon id="1" class="fil1" points="7078,4569 6853,4569 6853,4134 6593,4134 6593,4569 6368,4569 6368,3502 6593,3502 6593,3898 6853,3898 6853,3502 7078,3502 "/>
  <polygon id="2" class="fil1" points="7425,4011 7184,3502 7425,3502 7655,4019 7655,3502 7871,3502 7871,4019 8102,3502 8343,3502 8099,4011 8362,4569 8115,4569 7871,4028 7871,4569 7655,4569 7655,4028 7410,4569 7163,4569 "/>
  <path id="3" class="fil1" d="M8447 3502l199 0 0 458c0,49 -3,146 -9,292l5 0 330 -750 276 0 0 1067 -198 0 0 -447c0,-67 3,-169 10,-303l-4 0 -333 750 -276 0 0 -1067z"/>
  <polygon id="4" class="fil1" points="10137,4569 9912,4569 9912,4134 9653,4134 9653,4569 9428,4569 9428,3502 9653,3502 9653,3898 9912,3898 9912,3502 10137,3502 "/>
  <path id="5" class="fil1" d="M10316 3502l200 0 0 458c0,49 -3,146 -9,292l4 0 330 -750 277 0 0 1067 -198 0 0 -447c0,-67 3,-169 10,-303l-5 0 -333 750 -276 0 0 -1067z"/>
  <path id="6" class="fil1" d="M11898 3841c0,119 -27,211 -82,276 -54,65 -132,98 -232,98l-63 0 0 354 -224 0 0 -1067 287 0c104,0 183,29 235,88 53,59 79,143 79,251zm-377 139l40 0c34,0 61,-12 81,-36 20,-25 30,-58 30,-101 0,-72 -31,-108 -93,-108l-58 0 0 245z"/>
  <path id="7" class="fil1" d="M12030 3502l199 0 0 458c0,49 -3,146 -9,292l5 0 330 -750 276 0 0 1067 -198 0 0 -447c0,-67 3,-169 10,-303l-4 0 -333 750 -276 0 0 -1067z"/>
  <polygon id="8" class="fil1" points="13720,4569 13495,4569 13495,4134 13235,4134 13235,4569 13010,4569 13010,3502 13235,3502 13235,3898 13495,3898 13495,3502 13720,3502 "/>
  <polygon id="9" class="fil1" points="14452,3502 14452,3735 14124,3735 14124,4569 13899,4569 13899,3502 "/>
  <path class="fil2" d="M347 5220c-46,0 -87,13 -123,39 -36,25 -64,63 -85,112 -21,50 -32,104 -32,163 0,49 13,89 38,118 26,29 61,44 106,44 36,0 78,-7 126,-22l0 59c-22,8 -44,14 -64,18 -21,3 -45,5 -74,5 -63,0 -113,-19 -149,-59 -36,-40 -54,-93 -54,-162 0,-69 14,-133 41,-192 28,-60 65,-105 111,-136 47,-31 100,-47 159,-47 51,0 97,11 136,32l-27 55c-36,-18 -73,-27 -109,-27z"/>
  <path id="1" class="fil2" d="M624 5314l-59 275c-4,24 -7,42 -7,55 0,38 19,57 58,57 23,0 46,-8 68,-24 22,-16 42,-38 59,-68 17,-30 30,-65 38,-107l40 -188 65 0 -91 434 -54 0 8 -80 -4 0c-26,33 -51,56 -74,69 -23,13 -47,19 -72,19 -34,0 -60,-9 -79,-27 -19,-19 -29,-45 -29,-79 0,-16 3,-39 9,-68l57 -268 67 0z"/>
  <path id="2" class="fil2" d="M1110 5756c-51,0 -91,-14 -119,-42 -28,-28 -42,-68 -42,-120 0,-53 10,-102 29,-147 20,-44 47,-79 81,-104 34,-25 72,-38 115,-38 36,0 71,7 105,21l-18 56c-32,-14 -60,-21 -86,-21 -30,0 -56,11 -80,31 -25,20 -44,48 -57,84 -14,36 -21,76 -21,118 0,34 9,60 26,79 17,19 41,28 72,28 19,0 37,-3 53,-8 17,-5 34,-11 50,-18l0 56c-33,17 -69,25 -108,25z"/>
  <path id="3" class="fil2" d="M1546 5748l58 -274c5,-25 7,-43 7,-54 0,-18 -4,-33 -12,-43 -8,-10 -22,-16 -42,-16 -22,0 -43,8 -64,24 -21,16 -39,39 -55,68 -16,30 -28,65 -36,107l-40 188 -66 0 92 -434 54 0 -8 80 4 0c22,-32 45,-54 68,-68 22,-14 46,-21 70,-21 29,0 52,9 68,26 16,17 25,41 28,72l4 0c22,-33 46,-58 71,-74 26,-16 51,-24 77,-24 33,0 59,9 77,27 19,18 28,44 28,79 0,18 -3,41 -9,71l-57 266 -66 0 58 -274c5,-28 8,-47 8,-58 0,-17 -5,-30 -14,-40 -9,-10 -23,-15 -42,-15 -22,0 -43,8 -63,23 -21,16 -39,38 -55,66 -15,28 -27,61 -35,100l-42 198 -66 0z"/>
  <path id="4" class="fil2" d="M2167 5756c-48,0 -86,-14 -114,-43 -27,-29 -41,-69 -41,-120 0,-50 10,-97 29,-143 20,-46 46,-81 78,-107 32,-25 68,-38 106,-38 40,0 70,9 91,27 20,17 30,42 30,73 0,48 -22,85 -65,112 -44,28 -106,41 -187,41l-13 0 -1 32c0,35 8,62 24,81 16,20 41,29 75,29 16,0 33,-2 50,-7 18,-5 39,-13 65,-26l0 58c-24,12 -46,20 -65,24 -19,5 -39,7 -62,7zm54 -394c-27,0 -52,13 -76,38 -23,24 -41,59 -54,103l5 0c59,0 105,-8 137,-24 32,-15 48,-38 48,-68 0,-14 -5,-26 -15,-35 -9,-9 -24,-14 -45,-14z"/>
  <path id="5" class="fil2" d="M2750 5748l74 -349c-4,9 -19,36 -46,81l-153 268 -48 0 -44 -269c-5,-30 -8,-56 -9,-79l-73 348 -57 0 91 -434 73 0 45 287c5,38 9,65 10,82 9,-20 24,-50 47,-89l162 -280 78 0 -92 434 -58 0z"/>
  <path id="6" class="fil2" d="M3388 5748l-65 0 90 -434 66 0 -91 434zm-286 -434l-41 190c33,-7 62,-10 86,-10 44,0 78,10 99,30 22,19 33,48 33,85 0,44 -15,80 -44,107 -29,27 -70,40 -121,40 -45,0 -79,-10 -103,-32 -24,-21 -36,-52 -36,-92 0,-25 3,-51 9,-77l51 -241 67 0zm28 236c-27,0 -53,3 -81,8 -6,29 -9,52 -9,67 0,26 7,45 20,57 12,12 32,18 58,18 30,0 54,-8 71,-23 17,-16 25,-37 25,-63 0,-22 -6,-39 -19,-49 -13,-10 -35,-15 -65,-15z"/>
  <path id="7" class="fil2" d="M3966 5308c49,0 89,15 117,45 29,29 44,70 44,122 0,50 -10,97 -29,141 -19,44 -44,78 -76,103 -32,24 -69,36 -109,36 -51,0 -90,-15 -119,-45 -28,-30 -42,-71 -42,-123 0,-50 9,-97 28,-142 20,-44 45,-78 78,-102 32,-23 68,-35 108,-35zm92 158c0,-30 -8,-55 -24,-74 -17,-19 -39,-28 -67,-28 -28,0 -54,10 -77,29 -22,20 -40,47 -52,82 -13,34 -19,73 -19,116 0,34 9,61 25,80 17,19 41,28 72,28 27,0 51,-9 73,-29 22,-19 39,-46 51,-82 12,-35 18,-76 18,-122z"/>
  <path id="8" class="fil2" d="M4437 5748l58 -274c5,-25 7,-43 7,-54 0,-18 -4,-33 -12,-43 -8,-10 -22,-16 -41,-16 -22,0 -44,8 -64,24 -21,16 -40,39 -55,68 -16,30 -28,65 -37,107l-40 188 -66 0 92 -434 55 0 -9 80 4 0c23,-32 46,-54 68,-68 23,-14 46,-21 70,-21 30,0 52,9 68,26 16,17 26,41 29,72l3 0c22,-33 46,-58 72,-74 25,-16 51,-24 77,-24 33,0 59,9 77,27 18,18 27,44 27,79 0,18 -3,41 -9,71l-56 266 -67 0 58 -274c5,-28 8,-47 8,-58 0,-17 -4,-30 -13,-40 -9,-10 -24,-15 -43,-15 -21,0 -42,8 -63,23 -21,16 -39,38 -54,66 -16,28 -28,61 -36,100l-42 198 -66 0z"/>
  <path id="9" class="fil2" d="M5117 5308c50,0 89,15 118,45 29,29 43,70 43,122 0,50 -9,97 -28,141 -19,44 -44,78 -76,103 -33,24 -69,36 -110,36 -50,0 -89,-15 -118,-45 -28,-30 -42,-71 -42,-123 0,-50 9,-97 28,-142 19,-44 45,-78 78,-102 32,-23 68,-35 107,-35zm93 158c0,-30 -8,-55 -24,-74 -17,-19 -39,-28 -67,-28 -28,0 -54,10 -77,29 -22,20 -40,47 -52,82 -13,34 -19,73 -19,116 0,34 8,61 25,80 17,19 40,28 72,28 27,0 51,-9 73,-29 22,-19 39,-46 51,-82 12,-35 18,-76 18,-122z"/>
  <path id="10" class="fil2" d="M5602 5748l58 -274c5,-28 8,-47 8,-57 0,-17 -5,-30 -14,-41 -9,-10 -24,-15 -44,-15 -24,0 -46,8 -69,24 -22,16 -41,39 -58,68 -17,29 -30,65 -38,107l-40 188 -66 0 92 -434 55 0 -9 80 4 0c25,-32 49,-55 73,-69 23,-13 47,-20 72,-20 34,0 60,10 79,28 19,18 29,44 29,77 0,21 -3,45 -9,72l-56 266 -67 0z"/>
  <path id="11" class="fil2" d="M6095 5748l-67 0 82 -378c-11,-2 -21,-4 -31,-4 -20,0 -36,4 -49,12 -13,9 -24,22 -35,43 -11,19 -27,61 -49,123 -22,64 -40,109 -55,135 -16,26 -32,46 -51,57 -18,12 -40,18 -66,18 -13,0 -23,-2 -31,-6l0 -57c7,2 16,4 26,4 17,0 31,-5 43,-15 12,-10 24,-27 35,-49 12,-23 26,-59 42,-109 23,-68 43,-114 59,-140 15,-25 34,-43 56,-55 22,-11 50,-17 84,-17 33,0 66,4 97,13l-90 425z"/>
  <path id="12" class="fil2" d="M6405 5756c-48,0 -86,-14 -114,-43 -27,-29 -41,-69 -41,-120 0,-50 10,-97 29,-143 20,-46 46,-81 78,-107 32,-25 68,-38 106,-38 40,0 70,9 91,27 20,17 30,42 30,73 0,48 -22,85 -65,112 -44,28 -106,41 -187,41l-13 0 -1 32c0,35 8,62 24,81 16,20 41,29 75,29 16,0 33,-2 50,-7 18,-5 39,-13 65,-26l0 58c-24,12 -46,20 -65,24 -19,5 -39,7 -62,7zm54 -394c-27,0 -52,13 -76,38 -23,24 -41,59 -54,103l5 0c59,0 105,-8 137,-24 32,-15 48,-38 48,-68 0,-14 -5,-26 -15,-35 -9,-9 -24,-14 -45,-14z"/>
  <polygon id="13" class="fil2" points="6788,5314 6750,5496 6960,5496 6999,5314 7065,5314 6974,5748 6907,5748 6948,5552 6738,5552 6697,5748 6631,5748 6723,5314 "/>
  <path id="14" class="fil2" d="M7267 5314l-59 275c-5,24 -7,42 -7,55 0,38 19,57 58,57 23,0 45,-8 67,-24 23,-16 42,-38 59,-68 17,-30 30,-65 39,-107l39 -188 65 0 -90 434 -55 0 9 -80 -5 0c-25,33 -50,56 -73,69 -23,13 -48,19 -72,19 -34,0 -60,-9 -79,-27 -19,-19 -29,-45 -29,-79 0,-16 3,-39 9,-68l57 -268 67 0z"/>
  <path id="15" class="fil2" d="M7777 5576c-22,0 -39,5 -52,14 -13,9 -26,28 -40,57 -16,35 -29,59 -39,71 -10,12 -21,20 -34,26 -12,6 -27,9 -45,9 -12,0 -23,-2 -30,-5l0 -53c5,2 12,3 19,3 13,0 24,-4 33,-12 8,-9 20,-28 35,-57 8,-18 18,-34 29,-47 11,-14 26,-24 44,-31 -24,-8 -43,-20 -56,-37 -13,-17 -20,-38 -20,-63 0,-42 15,-76 45,-100 30,-25 71,-37 123,-37l163 0 -91 434 -66 0 37 -172 -55 0zm0 -204c-29,0 -52,7 -68,21 -16,14 -24,33 -24,58 0,44 29,66 85,66l74 0 30 -145 -97 0z"/>
  <path id="16" class="fil2" d="M8091 5654l3 9c-29,62 -64,126 -105,190l-51 0c33,-76 60,-142 80,-199l73 0z"/>
  <path id="17" class="fil2" d="M8644 5306c46,0 81,9 107,28 25,18 37,45 37,82 0,58 -37,96 -110,113l0 1c29,8 50,19 62,34 13,16 19,35 19,59 0,26 -6,48 -20,69 -14,20 -34,35 -60,47 -26,11 -57,17 -94,17 -54,0 -96,-15 -125,-45 -28,-31 -43,-75 -43,-134 0,-53 10,-99 29,-141 18,-41 45,-74 79,-96 35,-23 75,-34 119,-34zm-159 254l0 18c0,82 35,122 106,122 33,0 58,-7 77,-21 19,-14 29,-32 29,-57 0,-21 -9,-37 -26,-47 -17,-10 -44,-15 -80,-15l-106 0zm161 -197c-40,0 -73,12 -99,36 -27,24 -45,60 -55,105l89 0c46,0 81,-7 105,-21 24,-14 36,-34 36,-60 0,-19 -7,-34 -20,-44 -13,-11 -32,-16 -56,-16z"/>
  <path id="18" class="fil2" d="M9064 5308c50,0 89,15 118,45 29,29 43,70 43,122 0,50 -9,97 -28,141 -19,44 -45,78 -77,103 -32,24 -68,36 -109,36 -50,0 -90,-15 -118,-45 -29,-30 -43,-71 -43,-123 0,-50 10,-97 29,-142 19,-44 45,-78 77,-102 32,-23 68,-35 108,-35zm93 158c0,-30 -9,-55 -25,-74 -16,-19 -38,-28 -66,-28 -29,0 -55,10 -77,29 -23,20 -40,47 -53,82 -12,34 -18,73 -18,116 0,34 8,61 24,80 17,19 41,28 72,28 27,0 52,-9 74,-29 21,-19 38,-46 50,-82 13,-35 19,-76 19,-122z"/>
  <path id="19" class="fil2" d="M9685 5372c0,68 -11,132 -32,194 -22,62 -51,109 -87,141 -37,33 -78,49 -125,49 -44,0 -78,-13 -103,-41 -25,-28 -37,-66 -37,-115 0,-47 9,-92 27,-135 18,-42 42,-75 73,-99 30,-23 64,-35 102,-35 26,0 49,6 67,17 18,11 34,28 45,52l3 0 0 -12 0 -10c0,-68 -8,-118 -26,-151 -18,-33 -45,-49 -82,-49 -29,0 -57,6 -84,19l-17 -49c15,-7 32,-13 53,-18 21,-5 40,-7 56,-7 56,0 98,20 126,61 27,41 41,104 41,188zm-237 328c36,0 68,-20 96,-60 28,-40 49,-94 62,-162 -9,-30 -21,-53 -38,-70 -17,-16 -38,-25 -61,-25 -24,0 -46,10 -68,30 -22,19 -39,45 -51,79 -13,33 -19,69 -19,107 0,32 6,57 20,75 14,17 33,26 59,26z"/>
  <path id="20" class="fil2" d="M9967 5308c50,0 89,15 118,45 29,29 43,70 43,122 0,50 -9,97 -28,141 -19,44 -44,78 -76,103 -33,24 -69,36 -110,36 -50,0 -89,-15 -118,-45 -28,-30 -42,-71 -42,-123 0,-50 9,-97 28,-142 19,-44 45,-78 77,-102 33,-23 69,-35 108,-35zm93 158c0,-30 -8,-55 -24,-74 -17,-19 -39,-28 -67,-28 -28,0 -54,10 -77,29 -22,20 -40,47 -52,82 -13,34 -19,73 -19,116 0,34 8,61 25,80 17,19 40,28 72,28 27,0 51,-9 73,-29 22,-19 39,-46 51,-82 12,-35 18,-76 18,-122z"/>
  <path id="21" class="fil2" d="M10365 5756c-51,0 -90,-14 -118,-42 -28,-28 -43,-68 -43,-120 0,-53 10,-102 30,-147 19,-44 46,-79 80,-104 34,-25 72,-38 115,-38 36,0 71,7 105,21l-18 56c-32,-14 -60,-21 -86,-21 -30,0 -56,11 -80,31 -25,20 -44,48 -57,84 -14,36 -21,76 -21,118 0,34 9,60 26,79 18,19 41,28 72,28 19,0 37,-3 53,-8 17,-5 34,-11 50,-18l0 56c-32,17 -69,25 -108,25z"/>
  <polygon id="22" class="fil2" points="10708,5314 10670,5496 10880,5496 10918,5314 10984,5314 10894,5748 10827,5748 10868,5552 10658,5552 10617,5748 10551,5748 10643,5314 "/>
  <path id="23" class="fil2" d="M11260 5305c24,0 46,7 65,20 18,13 33,32 44,57l4 0 26 -68 50 0 -91 434 -53 0 11 -83 -4 0c-46,61 -96,91 -148,91 -36,0 -64,-13 -85,-39 -21,-26 -31,-62 -31,-108 0,-55 9,-106 28,-153 18,-47 44,-84 77,-111 32,-26 68,-40 107,-40zm-74 396c25,0 50,-12 75,-37 25,-24 46,-56 62,-95 15,-39 23,-79 23,-118 0,-28 -7,-49 -22,-65 -14,-16 -34,-25 -57,-25 -28,0 -53,12 -76,35 -24,22 -42,53 -56,92 -13,39 -20,80 -20,123 0,30 7,53 19,68 12,15 29,22 52,22z"/>
  <path id="24" class="fil2" d="M11503 5574c0,-59 9,-120 28,-182 19,-63 44,-113 74,-150 31,-37 65,-61 104,-73 19,-6 53,-13 101,-22 48,-9 84,-15 108,-19l8 55 -42 7c-69,11 -120,22 -150,32 -68,22 -116,88 -145,195l2 2c19,-24 41,-42 67,-55 25,-13 51,-20 78,-20 41,0 71,13 91,39 21,26 31,62 31,108 0,53 -9,100 -26,141 -17,41 -40,72 -70,93 -30,21 -66,31 -106,31 -50,0 -87,-15 -114,-46 -26,-31 -39,-76 -39,-136zm158 127c26,0 48,-8 67,-25 19,-17 34,-42 45,-74 11,-33 17,-67 17,-103 0,-35 -6,-60 -17,-75 -12,-16 -29,-24 -52,-24 -24,0 -49,9 -75,25 -26,16 -48,38 -67,65 -6,30 -9,59 -9,86 0,83 30,125 91,125z"/>
  <path id="25" class="fil2" d="M12202 5554l-63 0c-9,40 -23,76 -42,106 -19,30 -42,54 -70,71 -28,17 -59,25 -94,25 -18,0 -34,-2 -48,-6l10 -55c13,4 27,6 39,6 27,0 52,-10 75,-31 22,-20 40,-48 52,-84 13,-36 20,-73 20,-111 0,-37 -7,-65 -20,-85 -14,-19 -34,-29 -60,-29 -13,0 -27,2 -44,6l0 -54c23,-5 41,-8 54,-8 45,0 79,15 102,43 24,28 35,70 35,125l-1 30 66 0 39 -189 61 0 -42 189 65 0c7,-39 21,-74 42,-105 19,-31 43,-55 70,-70 27,-15 57,-23 89,-23 20,0 39,3 55,8l-12 54c-14,-4 -28,-6 -43,-6 -27,0 -51,10 -73,30 -21,20 -38,48 -51,84 -13,37 -19,75 -19,113 0,37 6,65 19,84 13,19 32,29 58,29 15,0 30,-2 46,-6l0 55c-22,4 -40,6 -53,6 -45,0 -80,-14 -103,-43 -23,-29 -35,-70 -35,-124 0,-15 1,-26 2,-35l-67 0 -40 194 -60 0 41 -194z"/>
  <path id="26" class="fil2" d="M12762 5756c-48,0 -86,-14 -113,-43 -28,-29 -42,-69 -42,-120 0,-50 10,-97 29,-143 20,-46 46,-81 78,-107 32,-25 68,-38 106,-38 40,0 70,9 91,27 20,17 30,42 30,73 0,48 -22,85 -65,112 -44,28 -106,41 -187,41l-13 0 -1 32c0,35 8,62 24,81 16,20 41,29 75,29 16,0 33,-2 51,-7 17,-5 39,-13 65,-26l0 58c-25,12 -47,20 -66,24 -18,5 -39,7 -62,7zm55 -394c-28,0 -53,13 -76,38 -24,24 -42,59 -55,103l5 0c59,0 105,-8 137,-24 32,-15 48,-38 48,-68 0,-14 -5,-26 -15,-35 -9,-9 -24,-14 -44,-14z"/>
  <polygon id="27" class="fil2" points="13145,5314 13107,5496 13317,5496 13356,5314 13422,5314 13331,5748 13264,5748 13305,5552 13096,5552 13054,5748 12988,5748 13080,5314 "/>
  <path id="28" class="fil2" d="M13624 5314l-59 275c-5,24 -7,42 -7,55 0,38 19,57 58,57 23,0 45,-8 68,-24 22,-16 41,-38 58,-68 17,-30 30,-65 39,-107l39 -188 66 0 -91 434 -55 0 9 -80 -5 0c-25,33 -50,56 -73,69 -23,13 -47,19 -72,19 -34,0 -60,-9 -79,-27 -19,-19 -29,-45 -29,-79 0,-16 3,-39 9,-68l57 -268 67 0z"/>
  <path id="29" class="fil2" d="M14134 5576c-22,0 -39,5 -52,14 -13,9 -26,28 -39,57 -17,35 -30,59 -40,71 -10,12 -21,20 -34,26 -12,6 -27,9 -44,9 -13,0 -23,-2 -31,-5l0 -53c5,2 12,3 19,3 13,0 24,-4 33,-12 9,-9 20,-28 35,-57 8,-18 18,-34 29,-47 11,-14 26,-24 44,-31 -24,-8 -43,-20 -56,-37 -13,-17 -20,-38 -20,-63 0,-42 15,-76 45,-100 30,-25 71,-37 123,-37l163 0 -91 434 -65 0 36 -172 -55 0zm0 -204c-29,0 -52,7 -68,21 -16,14 -23,33 -23,58 0,44 28,66 84,66l74 0 30 -145 -97 0z"/>
  <path id="30" class="fil2" d="M14448 5654l4 9c-30,62 -65,126 -106,190l-51 0c33,-76 60,-142 80,-199l73 0z"/>
  <polygon id="31" class="fil2" points="315,6420 399,6420 183,6634 330,6855 251,6855 111,6638 66,6855 0,6855 91,6420 156,6420 112,6630 "/>
  <path id="32" class="fil2" d="M613 6414c49,0 89,15 117,45 29,30 44,71 44,123 0,49 -10,96 -29,141 -19,44 -44,78 -76,102 -32,24 -69,36 -109,36 -51,0 -90,-15 -119,-45 -28,-30 -42,-71 -42,-122 0,-51 9,-98 28,-142 20,-45 45,-79 78,-102 32,-24 68,-36 108,-36zm92 159c0,-31 -8,-55 -24,-74 -17,-19 -39,-29 -67,-29 -28,0 -54,10 -77,30 -22,19 -40,46 -52,81 -13,35 -19,74 -19,116 0,35 9,62 25,81 17,18 41,28 72,28 27,0 51,-10 73,-29 22,-19 39,-47 51,-82 12,-36 18,-77 18,-122z"/>
  <polygon id="33" class="fil2" points="991,6420 953,6602 1163,6602 1202,6420 1268,6420 1177,6855 1110,6855 1151,6659 942,6659 900,6855 834,6855 926,6420 "/>
  <path id="34" class="fil2" d="M1715 6479c0,67 -10,132 -32,193 -22,62 -51,109 -87,142 -37,32 -78,49 -125,49 -44,0 -78,-14 -103,-42 -24,-27 -37,-66 -37,-115 0,-47 9,-92 27,-135 18,-42 42,-75 73,-98 31,-24 65,-35 102,-35 26,0 49,5 67,16 19,11 34,29 46,53l2 0 1 -13 0 -10c0,-68 -9,-118 -27,-151 -18,-32 -45,-49 -82,-49 -29,0 -57,7 -84,19l-17 -49c15,-7 32,-13 53,-18 21,-5 40,-7 56,-7 56,0 98,20 126,62 28,41 41,103 41,188zm-237 328c36,0 68,-20 96,-60 29,-40 49,-95 62,-163 -8,-29 -21,-53 -38,-69 -17,-17 -37,-25 -61,-25 -24,0 -46,10 -68,29 -21,19 -39,46 -51,79 -13,33 -19,69 -19,107 0,32 7,57 20,75 14,18 34,27 59,27z"/>
  <path id="35" class="fil2" d="M1922 6420l-59 276c-4,23 -7,41 -7,55 0,38 20,57 58,57 23,0 46,-8 68,-24 22,-16 42,-39 59,-69 17,-29 30,-65 39,-107l39 -188 65 0 -91 435 -54 0 9 -81 -5 0c-26,33 -50,56 -74,69 -23,13 -47,20 -72,20 -33,0 -60,-9 -79,-28 -19,-18 -28,-44 -28,-79 0,-16 3,-39 8,-68l58 -268 66 0z"/>
  <path id="36" class="fil2" d="M2386 6420l-59 276c-4,23 -7,41 -7,55 0,38 20,57 58,57 23,0 46,-8 68,-24 22,-16 42,-39 59,-69 17,-29 30,-65 39,-107l39 -188 65 0 -64 307c-4,21 -7,38 -7,51 0,21 11,31 31,31 7,0 17,-2 31,-5l-45 201 -67 0 31 -144c-16,-4 -28,-13 -35,-26 -8,-13 -12,-33 -12,-60l-3 0c-40,59 -89,88 -146,88 -34,0 -61,-10 -80,-28 -19,-19 -28,-45 -28,-79 0,-16 3,-39 8,-68l57 -268 67 0z"/>
  <path id="37" class="fil2" d="M2865 6420l-59 276c-5,23 -7,41 -7,55 0,38 19,57 57,57 23,0 46,-8 68,-24 23,-16 42,-39 59,-69 17,-29 30,-65 39,-107l39 -188 65 0 -90 435 -55 0 9 -81 -5 0c-26,33 -50,56 -73,69 -24,13 -48,20 -72,20 -34,0 -60,-9 -79,-28 -20,-18 -29,-44 -29,-79 0,-16 3,-39 9,-68l57 -268 67 0z"/>
  <path id="38" class="fil2" d="M3404 6414c50,0 89,15 118,45 29,30 43,71 43,123 0,49 -10,96 -28,141 -19,44 -45,78 -77,102 -32,24 -69,36 -109,36 -50,0 -90,-15 -118,-45 -29,-30 -43,-71 -43,-122 0,-51 10,-98 29,-142 19,-45 45,-79 77,-102 32,-24 68,-36 108,-36zm93 159c0,-31 -9,-55 -25,-74 -16,-19 -38,-29 -66,-29 -29,0 -55,10 -77,30 -23,19 -40,46 -53,81 -12,35 -18,74 -18,116 0,35 8,62 24,81 17,18 41,28 72,28 27,0 52,-10 74,-29 21,-19 38,-47 50,-82 12,-36 19,-77 19,-122z"/>
  <polygon id="39" class="fil2" points="3783,6420 3745,6602 3955,6602 3993,6420 4059,6420 3968,6855 3901,6855 3942,6659 3733,6659 3692,6855 3626,6855 3717,6420 "/>
  <path id="40" class="fil2" d="M4261 6420l-59 276c-4,23 -7,41 -7,55 0,38 19,57 58,57 23,0 46,-8 68,-24 22,-16 42,-39 59,-69 17,-29 30,-65 38,-107l40 -188 65 0 -91 435 -54 0 8 -81 -4 0c-26,33 -50,56 -74,69 -23,13 -47,20 -72,20 -33,0 -60,-9 -79,-28 -19,-18 -29,-44 -29,-79 0,-16 3,-39 9,-68l57 -268 67 0z"/>
  <path id="41" class="fil2" d="M4762 6863c-25,0 -48,-7 -67,-20 -19,-13 -34,-32 -44,-56l-4 0 -2 15c0,7 -2,16 -4,28 -2,12 -17,85 -45,220l-65 0 132 -630 55 0 -11 83 4 0c46,-60 95,-90 146,-90 35,0 64,13 84,38 21,26 31,62 31,109 0,56 -9,107 -27,154 -18,47 -43,84 -75,110 -32,26 -68,39 -108,39zm73 -395c-25,0 -51,12 -77,38 -26,25 -47,56 -62,94 -15,39 -23,78 -23,117 0,30 8,52 22,67 15,16 35,24 63,24 26,0 50,-11 72,-33 23,-21 41,-52 54,-91 14,-40 21,-82 21,-126 0,-60 -24,-90 -70,-90z"/>
  <path id="42" class="fil2" d="M5264 6414c50,0 89,15 118,45 29,30 43,71 43,123 0,49 -9,96 -28,141 -19,44 -44,78 -77,102 -32,24 -68,36 -109,36 -50,0 -89,-15 -118,-45 -28,-30 -43,-71 -43,-122 0,-51 10,-98 29,-142 19,-45 45,-79 77,-102 33,-24 69,-36 108,-36zm93 159c0,-31 -8,-55 -25,-74 -16,-19 -38,-29 -66,-29 -29,0 -54,10 -77,30 -22,19 -40,46 -52,81 -13,35 -19,74 -19,116 0,35 8,62 25,81 16,18 40,28 71,28 28,0 52,-10 74,-29 22,-19 39,-47 51,-82 12,-36 18,-77 18,-122z"/>
  <path id="43" class="fil2" d="M5728 6413c46,0 81,9 106,27 25,18 38,46 38,82 0,59 -37,96 -110,113l0 2c29,7 49,19 62,34 13,15 19,35 19,59 0,25 -7,48 -20,68 -14,20 -34,36 -60,47 -26,12 -58,18 -94,18 -54,0 -96,-15 -125,-46 -28,-30 -43,-75 -43,-134 0,-52 10,-99 28,-141 19,-41 46,-73 80,-96 35,-22 74,-33 119,-33zm-159 253l0 19c0,81 35,122 106,122 33,0 58,-7 77,-21 19,-14 28,-33 28,-57 0,-22 -8,-37 -25,-48 -17,-10 -44,-15 -81,-15l-105 0zm161 -196c-40,0 -73,12 -99,36 -27,24 -45,59 -55,105l89 0c46,0 81,-7 105,-21 24,-14 36,-34 36,-60 0,-19 -7,-34 -20,-45 -13,-10 -32,-15 -56,-15z"/>
  <path id="44" class="fil2" d="M6146 6412c24,0 46,6 65,19 18,14 33,32 44,57l4 0 26 -68 50 0 -91 435 -53 0 11 -83 -4 0c-46,60 -96,91 -148,91 -36,0 -64,-13 -85,-40 -21,-26 -31,-62 -31,-107 0,-55 9,-106 28,-153 18,-47 44,-84 77,-111 32,-27 68,-40 107,-40zm-74 396c25,0 50,-13 75,-37 25,-25 46,-57 62,-96 15,-39 23,-78 23,-118 0,-27 -7,-49 -22,-65 -14,-16 -34,-24 -57,-24 -28,0 -53,11 -76,34 -24,23 -42,54 -56,92 -13,39 -20,80 -20,123 0,31 7,53 19,68 12,15 29,23 52,23z"/>
  <polygon id="45" class="fil2" points="6530,6420 6492,6602 6702,6602 6740,6420 6806,6420 6715,6855 6649,6855 6689,6659 6480,6659 6439,6855 6373,6855 6465,6420 "/>
  <path id="46" class="fil2" d="M7008 6420l-59 276c-4,23 -7,41 -7,55 0,38 20,57 58,57 23,0 46,-8 68,-24 22,-16 42,-39 59,-69 17,-29 30,-65 39,-107l39 -188 65 0 -91 435 -54 0 8 -81 -4 0c-26,33 -50,56 -74,69 -23,13 -47,20 -72,20 -33,0 -60,-9 -79,-28 -19,-18 -28,-44 -28,-79 0,-16 3,-39 8,-68l57 -268 67 0z"/>
  <path id="47" class="fil2" d="M7518 6682c-22,0 -39,5 -52,14 -12,10 -25,29 -39,58 -16,35 -29,58 -39,70 -10,12 -22,21 -34,27 -13,6 -28,9 -45,9 -13,0 -23,-2 -31,-5l0 -53c6,1 12,2 20,2 12,0 23,-4 32,-12 9,-8 21,-27 35,-57 8,-18 18,-33 29,-47 11,-13 26,-23 44,-31 -24,-7 -43,-19 -56,-36 -13,-17 -19,-38 -19,-64 0,-42 15,-75 45,-100 30,-25 71,-37 123,-37l162 0 -91 435 -65 0 36 -173 -55 0zm0 -204c-29,0 -51,7 -67,22 -16,14 -24,33 -24,57 0,45 28,67 84,67l74 0 31 -146 -98 0z"/>
  <path id="48" class="fil2" d="M8104 6420l-58 276c-5,23 -7,41 -7,55 0,38 19,57 57,57 23,0 46,-8 68,-24 22,-16 42,-39 59,-69 17,-29 30,-65 39,-107l39 -188 65 0 -90 435 -55 0 9 -81 -5 0c-26,33 -50,56 -73,69 -24,13 -48,20 -73,20 -33,0 -59,-9 -79,-28 -19,-18 -28,-44 -28,-79 0,-16 3,-39 8,-68l58 -268 66 0z"/>
  <path id="49" class="fil2" d="M8865 6413c46,0 82,9 107,27 25,18 37,46 37,82 0,59 -36,96 -110,113l0 2c29,7 50,19 63,34 12,15 19,35 19,59 0,25 -7,48 -21,68 -13,20 -33,36 -60,47 -26,12 -57,18 -93,18 -55,0 -97,-15 -125,-46 -29,-30 -43,-75 -43,-134 0,-52 9,-99 28,-141 18,-41 45,-73 80,-96 34,-22 74,-33 118,-33zm-159 253l0 19c0,81 36,122 107,122 32,0 58,-7 76,-21 19,-14 29,-33 29,-57 0,-22 -9,-37 -26,-48 -17,-10 -44,-15 -80,-15l-106 0zm161 -196c-40,0 -73,12 -99,36 -26,24 -44,59 -54,105l88 0c46,0 81,-7 105,-21 24,-14 36,-34 36,-60 0,-19 -6,-34 -20,-45 -13,-10 -32,-15 -56,-15z"/>
  <path id="50" class="fil2" d="M9226 6863c-48,0 -86,-15 -113,-44 -28,-28 -42,-68 -42,-119 0,-50 10,-98 29,-144 20,-45 46,-81 78,-106 32,-25 68,-38 106,-38 40,0 70,9 91,26 20,18 30,42 30,74 0,47 -22,85 -65,112 -44,27 -106,41 -187,41l-13 0 -1 31c0,35 8,62 24,81 16,20 41,30 75,30 16,0 33,-3 51,-7 17,-5 39,-14 65,-27l0 58c-25,12 -47,20 -66,25 -18,4 -39,7 -62,7zm55 -394c-28,0 -53,12 -76,37 -24,25 -42,59 -55,103l5 0c59,0 105,-8 137,-23 32,-16 48,-39 48,-69 0,-14 -5,-25 -15,-34 -9,-10 -24,-14 -44,-14z"/>
  <polygon id="51" class="fil2" points="9609,6420 9571,6602 9781,6602 9820,6420 9886,6420 9795,6855 9728,6855 9769,6659 9560,6659 9518,6855 9452,6855 9544,6420 "/>
  <path id="52" class="fil2" d="M10184 6855l58 -275c5,-25 7,-43 7,-53 0,-19 -4,-33 -12,-44 -8,-10 -22,-15 -42,-15 -22,0 -43,8 -64,24 -21,16 -39,38 -55,68 -16,29 -28,65 -36,106l-40 189 -66 0 92 -435 54 0 -8 80 4 0c22,-31 45,-54 68,-68 22,-13 46,-20 70,-20 29,0 52,8 68,26 16,17 25,41 28,71l4 0c22,-33 46,-57 71,-73 26,-16 51,-24 77,-24 33,0 59,9 77,27 19,18 28,44 28,78 0,18 -3,42 -9,71l-57 267 -66 0 58 -275c5,-27 8,-47 8,-58 0,-16 -5,-29 -14,-39 -9,-10 -23,-15 -42,-15 -22,0 -43,8 -63,23 -21,15 -39,37 -55,65 -15,28 -27,62 -35,100l-42 199 -66 0z"/>
  <path id="53" class="fil2" d="M10789 6420l-59 276c-5,23 -7,41 -7,55 0,38 19,57 58,57 23,0 45,-8 67,-24 23,-16 42,-39 59,-69 17,-29 30,-65 39,-107l39 -188 65 0 -90 435 -55 0 9 -81 -5 0c-25,33 -50,56 -73,69 -23,13 -48,20 -72,20 -34,0 -60,-9 -79,-28 -19,-18 -29,-44 -29,-79 0,-16 3,-39 9,-68l57 -268 67 0z"/>
  <path id="54" class="fil2" d="M11391 6855l-67 0 81 -379c-10,-2 -20,-3 -30,-3 -20,0 -37,4 -49,12 -13,8 -24,22 -35,42 -11,20 -27,61 -49,124 -22,63 -41,108 -56,135 -15,26 -32,45 -50,57 -18,11 -41,17 -67,17 -12,0 -22,-2 -30,-5l0 -58c7,3 16,4 26,4 17,0 31,-5 43,-15 12,-10 24,-26 35,-49 11,-23 25,-59 42,-108 23,-68 42,-115 58,-140 16,-25 35,-44 57,-55 21,-12 50,-17 84,-17 33,0 65,4 97,12l-90 426z"/>
  <path id="55" class="fil2" d="M11731 6682c-22,0 -40,5 -52,14 -13,10 -26,29 -40,58 -16,35 -29,58 -39,70 -10,12 -22,21 -34,27 -13,6 -28,9 -45,9 -13,0 -23,-2 -30,-5l0 -53c5,1 11,2 19,2 13,0 23,-4 32,-12 9,-8 21,-27 35,-57 9,-18 18,-33 30,-47 11,-13 25,-23 44,-31 -25,-7 -43,-19 -57,-36 -13,-17 -19,-38 -19,-64 0,-42 15,-75 45,-100 30,-25 71,-37 123,-37l162 0 -91 435 -65 0 37 -173 -55 0zm0 -204c-30,0 -52,7 -68,22 -16,14 -24,33 -24,57 0,45 28,67 85,67l73 0 31 -146 -97 0z"/>
  <path id="56" class="fil2" d="M12108 6420l-59 276c-5,23 -7,41 -7,55 0,38 19,57 58,57 23,0 45,-8 68,-24 22,-16 41,-39 58,-69 17,-29 30,-65 39,-107l40 -188 65 0 -65 307c-4,21 -6,38 -6,51 0,21 10,31 31,31 7,0 17,-2 30,-5l-44 201 -68 0 32 -144c-16,-4 -28,-13 -36,-26 -7,-13 -11,-33 -11,-60l-3 0c-41,59 -90,88 -146,88 -34,0 -61,-10 -80,-28 -19,-19 -29,-45 -29,-79 0,-16 3,-39 9,-68l57 -268 67 0z"/>
  <path id="57" class="fil2" d="M12586 6420l-59 276c-4,23 -7,41 -7,55 0,38 20,57 58,57 23,0 46,-8 68,-24 22,-16 42,-39 59,-69 17,-29 30,-65 39,-107l39 -188 65 0 -91 435 -54 0 9 -81 -5 0c-26,33 -50,56 -74,69 -23,13 -47,20 -72,20 -33,0 -60,-9 -79,-28 -19,-18 -28,-44 -28,-79 0,-16 3,-39 8,-68l58 -268 66 0z"/>
  <path id="58" class="fil2" d="M13050 6420l-59 276c-4,23 -7,41 -7,55 0,38 20,57 58,57 23,0 46,-8 68,-24 22,-16 42,-39 59,-69 17,-29 30,-65 39,-107l39 -188 65 0 -91 435 -54 0 8 -81 -4 0c-26,33 -50,56 -74,69 -23,13 -47,20 -72,20 -33,0 -60,-9 -79,-28 -19,-18 -28,-44 -28,-79 0,-16 2,-39 8,-68l57 -268 67 0z"/>
  <polygon class="fil2" points="624,8365 422,8365 422,7699 218,7699 218,8365 17,8365 17,7509 624,7509 "/>
  <path id="1" class="fil2" d="M1320 7781c0,96 -24,170 -73,222 -49,52 -118,78 -208,78l-56 0 0 284 -200 0 0 -856 256 0c94,0 164,24 211,71 47,47 70,114 70,201zm-337 112l36 0c30,0 54,-10 72,-29 18,-20 27,-47 27,-81 0,-58 -28,-87 -83,-87l-52 0 0 197z"/>
  <path id="2" class="fil2" d="M2130 7936c0,144 -30,253 -91,328 -61,75 -151,113 -269,113 -116,0 -205,-38 -267,-113 -61,-76 -92,-185 -92,-329 0,-142 30,-251 92,-326 62,-75 151,-113 268,-113 118,0 207,37 268,112 61,74 91,184 91,328zm-509 0c0,165 50,248 149,248 51,0 89,-20 113,-60 25,-41 37,-103 37,-188 0,-86 -13,-149 -37,-189 -25,-41 -62,-62 -112,-62 -100,0 -150,84 -150,251z"/>
  <polygon id="3" class="fil2" points="2703,8365 2264,8365 2264,7509 2703,7509 2703,7695 2464,7695 2464,7829 2685,7829 2685,8015 2464,8015 2464,8177 2703,8177 "/>
  <polygon id="4" class="fil2" points="3480,8365 3253,8365 3034,7931 3034,8365 2833,8365 2833,7509 3034,7509 3034,7924 3245,7509 3465,7509 3237,7918 "/>
  <polygon id="5" class="fil2" points="3881,8365 3682,8365 3682,7699 3501,7699 3501,7509 4062,7509 4062,7699 3881,7699 "/>
  <path id="6" class="fil2" d="M4339 8190l7 13c-32,149 -62,258 -89,328l-141 0c10,-53 20,-114 30,-181 10,-67 17,-120 20,-160l173 0z"/>
  <path id="7" class="fil2" d="M5079 8365l-151 -616 -5 0c8,105 11,186 11,244l0 372 -177 0 0 -856 266 0 155 608 4 0 151 -608 267 0 0 856 -184 0 0 -375c0,-20 0,-41 1,-65 0,-24 3,-82 7,-175l-5 0 -149 615 -191 0z"/>
  <path id="8" class="fil2" d="M6451 7936c0,144 -30,253 -91,328 -61,75 -151,113 -268,113 -117,0 -205,-38 -268,-113 -61,-76 -92,-185 -92,-329 0,-142 30,-251 92,-326 62,-75 151,-113 269,-113 117,0 207,37 267,112 61,74 91,184 91,328zm-509 0c0,165 50,248 150,248 50,0 88,-20 112,-60 25,-41 37,-103 37,-188 0,-86 -12,-149 -37,-189 -25,-41 -62,-62 -111,-62 -101,0 -151,84 -151,251z"/>
  <polygon id="9" class="fil2" points="7219,8365 7018,8365 7018,8016 6786,8016 6786,8365 6585,8365 6585,7509 6786,7509 6786,7827 7018,7827 7018,7509 7219,7509 "/>
  <polygon id="10" class="fil2" points="7706,8365 7506,8365 7506,7699 7325,7699 7325,7509 7886,7509 7886,7699 7706,7699 "/>
  <path id="11" class="fil2" d="M8445 8365l-36 -161 -240 0 -38 161 -220 0 242 -859 267 0 244 859 -219 0zm-78 -350l-31 -141c-8,-31 -17,-71 -28,-121 -10,-49 -17,-85 -20,-106 -4,20 -10,52 -18,98 -9,46 -29,136 -60,270l157 0z"/>
  <polygon id="12" class="fil2" points="8894,7918 8679,7509 8894,7509 9099,7924 9099,7509 9292,7509 9292,7924 9499,7509 9714,7509 9497,7918 9731,8365 9511,8365 9292,7931 9292,8365 9099,8365 9099,7931 8881,8365 8660,8365 "/>
  <path id="13" class="fil2" d="M9979 8190l7 13c-32,149 -62,258 -89,328l-141 0c10,-53 20,-114 30,-181 10,-67 17,-120 20,-160l173 0z"/>
  <path id="14" class="fil2" d="M10726 7687c-47,0 -84,22 -111,67 -27,45 -40,107 -40,187 0,164 54,246 162,246 33,0 65,-5 96,-15 30,-11 61,-24 92,-39l0 196c-62,32 -131,48 -209,48 -112,0 -198,-38 -257,-113 -60,-75 -89,-183 -89,-324 0,-89 14,-167 43,-234 29,-67 70,-118 124,-155 55,-36 118,-54 191,-54 80,0 157,20 230,60l-62 182c-27,-15 -54,-27 -82,-37 -27,-10 -56,-15 -88,-15z"/>
  <polygon id="15" class="fil2" points="11509,8365 11069,8365 11069,7509 11509,7509 11509,7695 11269,7695 11269,7829 11491,7829 11491,8015 11269,8015 11269,8177 11509,8177 "/>
  <path id="16" class="fil2" d="M12175 7781c0,96 -24,170 -73,222 -49,52 -118,78 -207,78l-57 0 0 284 -200 0 0 -856 257 0c93,0 163,24 210,71 47,47 70,114 70,201zm-337 112l37 0c30,0 54,-10 71,-29 18,-20 27,-47 27,-81 0,-58 -28,-87 -83,-87l-52 0 0 197z"/>
  <path id="17" class="fil2" d="M12293 7509l259 0c100,0 175,17 223,52 49,35 74,88 74,161 0,48 -11,89 -32,123 -22,34 -50,56 -84,66l0 5c46,14 79,38 99,71 21,32 31,75 31,127 0,78 -25,139 -75,184 -51,44 -120,67 -207,67l-288 0 0 -856zm200 329l60 0c29,0 51,-7 67,-21 16,-14 24,-34 24,-61 0,-48 -32,-72 -95,-72l-56 0 0 154zm0 169l0 179 71 0c62,0 93,-30 93,-91 0,-29 -8,-50 -25,-66 -17,-15 -41,-22 -73,-22l-66 0z"/>
  <path id="18" class="fil2" d="M12992 7509l178 0 0 368c0,39 -3,117 -8,234l4 0 295 -602 247 0 0 856 -178 0 0 -358c0,-55 3,-136 10,-244l-5 0 -297 602 -246 0 0 -856z"/>
  <path id="19" class="fil2" d="M14197 7687c-47,0 -85,22 -111,67 -27,45 -40,107 -40,187 0,164 54,246 162,246 33,0 65,-5 96,-15 30,-11 61,-24 92,-39l0 196c-62,32 -132,48 -209,48 -112,0 -198,-38 -257,-113 -60,-75 -90,-183 -90,-324 0,-89 15,-167 44,-234 28,-67 70,-118 124,-155 54,-36 118,-54 191,-54 80,0 157,20 229,60l-61 182c-27,-15 -54,-27 -82,-37 -27,-10 -56,-15 -88,-15z"/>
  <polygon class="fil3" points="1407,3435 2348,495 17,4532 3274,3825 2639,3126 1421,3390 "/>
  <polygon class="fil4" points="2583,2974 2964,1787 5007,4037 2677,0 1660,3174 "/>
  <polygon class="fil5" points="3031,2103 2743,3002 3581,3924 612,4569 5272,4569 "/>
 </g>
</svg>
