<?xml version="1.0" encoding="UTF-8"?>
<!DOCTYPE svg PUBLIC "-//W3C//DTD SVG 1.1//EN" "http://www.w3.org/Graphics/SVG/1.1/DTD/svg11.dtd">
<!-- Creator: CorelDRAW X6 -->
<svg xmlns="http://www.w3.org/2000/svg" xml:space="preserve" width="470.63mm" height="277.813mm" version="1.1" style="shape-rendering:geometricPrecision; text-rendering:geometricPrecision; image-rendering:optimizeQuality; fill-rule:evenodd; clip-rule:evenodd"
viewBox="0 0 47063 27781"
 xmlns:xlink="http://www.w3.org/1999/xlink">
 <defs>
  <style type="text/css">
   <![CDATA[
    .fil1 {fill:#FEFEFE}
    .fil0 {fill:#FEFEFE;fill-rule:nonzero}
   ]]>
  </style>
 </defs>
 <g id="Слой_x0020_1">
  <metadata id="CorelCorpID_0Corel-Layer"/>
  <path class="fil0" d="M17546 5526l1166 0c547,0 944,82 1185,248 248,163 368,423 368,775 0,244 -65,446 -205,606 -137,159 -332,263 -596,309l0 29c629,108 941,437 941,987 0,368 -127,658 -374,863 -251,208 -599,313 -1046,313l-1439 0 0 -4130 0 0zm479 1769l791 0c339,0 583,-53 730,-160 149,-104 224,-283 224,-537 0,-232 -84,-398 -247,-502 -166,-101 -430,-153 -792,-153l-706 0 0 1352 0 0zm0 407l0 1543 863 0c332,0 583,-65 749,-195 169,-127 254,-329 254,-606 0,-254 -88,-443 -258,-563 -172,-121 -436,-179 -788,-179l-820 0 0 0z"/>
  <path id="_1" class="fil0" d="M22529 9714c-460,0 -821,-140 -1085,-420 -264,-277 -397,-664 -397,-1159 0,-502 124,-896 368,-1192 247,-293 576,-440 990,-440 387,0 697,127 921,385 225,254 339,589 339,1009l0 296 -2130 0c10,362 101,639 274,828 172,185 420,280 736,280 332,0 661,-69 987,-209l0 420c-167,72 -323,124 -469,153 -147,33 -326,49 -534,49l0 0zm-128 -2817c-250,0 -446,82 -595,245 -147,159 -235,384 -261,667l1619 0c0,-293 -69,-521 -199,-677 -134,-157 -319,-235 -564,-235l0 0z"/>
  <path id="_2" class="fil0" d="M25902 9714c-198,0 -384,-39 -550,-114 -166,-75 -306,-189 -420,-342l-33 0c23,179 33,352 33,515l0 1270 -469 0 0 -4481 381 0 65 423 23 0c120,-169 260,-293 420,-368 163,-75 345,-114 550,-114 411,0 730,140 951,424 225,280 336,670 336,1178 0,508 -114,906 -339,1186 -228,280 -544,423 -948,423l0 0zm-65 -2810c-316,0 -547,88 -687,260 -143,176 -215,456 -218,837l0 104c0,434 71,746 218,932 143,189 378,283 697,283 267,0 479,-107 628,-326 153,-214 228,-514 228,-895 0,-384 -75,-681 -228,-886 -149,-208 -364,-309 -638,-309z"/>
  <polygon id="_3" class="fil0" points="30093,6962 29087,6962 29087,9656 28618,9656 28618,6962 27625,6962 27625,6562 30093,6562 "/>
  <path id="_4" class="fil0" d="M32011 9714c-455,0 -817,-140 -1081,-420 -263,-277 -397,-664 -397,-1159 0,-502 124,-896 368,-1192 244,-293 576,-440 990,-440 387,0 694,127 918,385 228,254 342,589 342,1009l0 296 -2133 0c10,362 101,639 274,828 176,185 420,280 736,280 335,0 664,-69 990,-209l0 420c-166,72 -323,124 -472,153 -147,33 -326,49 -535,49l0 0zm-127 -2817c-247,0 -446,82 -592,245 -150,159 -235,384 -261,667l1615 0c0,-293 -65,-521 -198,-677 -130,-157 -319,-235 -564,-235z"/>
  <polygon id="_5" class="fil0" points="35753,6562 36264,6562 34929,8053 36375,9656 35828,9656 34418,8089 34418,9656 33949,9656 33949,6562 34418,6562 34418,8066 "/>
  <path id="_6" class="fil0" d="M38186 9714c-450,0 -795,-140 -1042,-413 -245,-277 -368,-668 -368,-1173 0,-518 123,-918 374,-1201 251,-280 606,-424 1065,-424 150,0 296,17 446,49 150,33 267,68 352,114l-147 397c-101,-42 -215,-75 -338,-101 -121,-29 -228,-42 -323,-42 -628,0 -944,401 -944,1202 0,381 78,674 231,876 153,202 381,303 681,303 257,0 524,-56 794,-166l0 416c-208,108 -469,163 -781,163l0 0z"/>
  <path class="fil0" d="M17546 11404l648 0 0 1492c0,159 -10,475 -29,951l16 0 1075 -2443 899 0 0 3475 -645 0 0 -1456c0,-218 9,-550 32,-986l-16 0 -1084 2442 -896 0 0 -3475z"/>
  <polygon id="_1_0" class="fil0" points="23050,14879 22317,14879 22317,13462 21470,13462 21470,14879 20737,14879 20737,11404 21470,11404 21470,12694 22317,12694 22317,11404 23050,11404 "/>
  <polygon id="_2_1" class="fil0" points="24180,13062 23395,11404 24180,11404 24929,13088 24929,11404 25632,11404 25632,13088 26384,11404 27169,11404 26374,13062 27231,14879 26427,14879 25632,13117 25632,14879 24929,14879 24929,13117 24131,14879 23326,14879 "/>
  <path id="_3_2" class="fil0" d="M27508 11404l648 0 0 1492c0,159 -10,475 -30,951l17 0 1074 -2443 899 0 0 3475 -645 0 0 -1456c0,-218 10,-550 33,-986l-13 0 -1085 2442 -898 0 0 -3475 0 0z"/>
  <polygon id="_4_3" class="fil0" points="33011,14879 32278,14879 32278,13462 31435,13462 31435,14879 30702,14879 30702,11404 31435,11404 31435,12694 32278,12694 32278,11404 33011,11404 "/>
  <path id="_5_4" class="fil0" d="M33594 11404l651 0 0 1492c0,159 -9,475 -29,951l13 0 1075 -2443 902 0 0 3475 -645 0 0 -1456c0,-218 10,-550 33,-986l-17 0 -1084 2442 -899 0 0 -3475z"/>
  <path id="_6_5" class="fil0" d="M38746 12508c0,388 -88,687 -267,899 -176,212 -430,319 -756,319l-205 0 0 1153 -729 0 0 -3475 934 0c339,0 596,95 766,287 172,192 257,466 257,817zm-1228 453l130 0c111,0 199,-39 264,-117 65,-82 98,-189 98,-329 0,-235 -101,-352 -303,-352l-189 0 0 798z"/>
  <path id="_7" class="fil0" d="M39176 11404l648 0 0 1492c0,159 -10,475 -30,951l17 0 1074 -2443 899 0 0 3475 -645 0 0 -1456c0,-218 10,-550 33,-986l-13 0 -1084 2442 -899 0 0 -3475 0 0z"/>
  <polygon id="_8" class="fil0" points="44679,14879 43947,14879 43947,13462 43100,13462 43100,14879 42367,14879 42367,11404 43100,11404 43100,12694 43947,12694 43947,11404 44679,11404 "/>
  <polygon id="_9" class="fil0" points="47063,11404 47063,12163 45995,12163 45995,14879 45262,14879 45262,11404 "/>
  <path class="fil0" d="M1130 16999c-150,0 -283,42 -401,127 -117,81 -208,205 -276,365 -69,163 -105,338 -105,530 0,160 43,290 124,385 85,94 199,143 345,143 118,0 254,-23 411,-72l0 193c-72,26 -144,45 -209,58 -68,10 -146,16 -241,16 -205,0 -368,-61 -485,-192 -117,-130 -176,-303 -176,-527 0,-225 46,-433 134,-625 91,-196 211,-342 361,-443 153,-101 326,-153 518,-153 166,0 316,35 443,104l-88 179c-117,-59 -238,-88 -355,-88l0 0z"/>
  <path id="_1_6" class="fil0" d="M2032 17305l-192 896c-13,78 -23,136 -23,179 0,123 62,185 189,185 75,0 150,-26 221,-78 72,-52 137,-124 193,-221 55,-98 97,-212 123,-349l131 -612 211 0 -296 1413 -176 0 26 -260 -13 0c-85,107 -166,182 -241,225 -75,42 -153,61 -234,61 -111,0 -196,-29 -258,-87 -61,-62 -94,-147 -94,-258 0,-52 10,-127 29,-221l186 -873 218 0z"/>
  <path id="_2_7" class="fil0" d="M3615 18744c-166,0 -297,-45 -388,-136 -91,-92 -137,-222 -137,-391 0,-173 33,-332 95,-479 65,-143 153,-257 264,-338 110,-82 234,-124 374,-124 117,0 231,23 342,68l-59 183c-104,-46 -195,-69 -280,-69 -97,0 -182,36 -260,101 -82,65 -143,156 -186,274 -45,117 -68,247 -68,384 0,111 29,195 85,257 55,62 133,91 234,91 62,0 120,-9 173,-26 55,-16 110,-36 162,-58l0 182c-107,55 -224,81 -351,81l0 0z"/>
  <path id="_3_8" class="fil0" d="M5035 18718l188 -892c17,-81 23,-140 23,-176 0,-58 -13,-107 -39,-140 -26,-32 -71,-52 -137,-52 -71,0 -140,26 -208,78 -68,52 -127,127 -179,222 -52,97 -91,211 -117,348l-131 612 -215 0 300 -1413 176 0 -26 261 13 0c72,-105 146,-176 221,-222 72,-45 150,-68 228,-68 95,0 170,29 222,84 52,56 81,134 91,235l13 0c72,-108 150,-189 231,-241 85,-52 166,-78 251,-78 107,0 192,29 251,88 61,58 91,143 91,257 0,59 -10,133 -30,231l-185 866 -215 0 189 -892c16,-91 26,-153 26,-189 0,-55 -16,-97 -46,-130 -29,-33 -75,-49 -136,-49 -72,0 -141,26 -206,75 -68,52 -127,124 -179,215 -49,91 -88,199 -114,326l-137 644 -214 0 0 0z"/>
  <path id="_4_9" class="fil0" d="M7057 18744c-156,0 -280,-45 -371,-140 -88,-94 -134,-224 -134,-390 0,-163 33,-316 95,-466 65,-150 149,-264 254,-348 104,-82 221,-124 345,-124 130,0 228,29 296,88 65,55 98,136 98,237 0,157 -72,277 -212,365 -143,91 -345,134 -609,134l-42 0 -3 104c0,114 26,202 78,264 52,65 133,94 244,94 52,0 107,-6 163,-23 58,-16 127,-42 211,-84l0 188c-78,40 -149,66 -211,79 -62,16 -127,22 -202,22l0 0zm176 -1283c-88,0 -170,43 -248,124 -75,78 -133,192 -176,336l17 0c192,0 342,-26 446,-79 104,-48 156,-123 156,-221 0,-46 -16,-85 -49,-114 -29,-29 -78,-46 -146,-46z"/>
  <path id="_5_10" class="fil0" d="M8955 18718l241 -1136c-13,29 -62,117 -149,264l-499 872 -156 0 -143 -876c-17,-97 -26,-182 -30,-257l-237 1133 -186 0 296 -1413 238 0 147 935c16,123 29,211 32,267 30,-65 78,-163 153,-290l528 -912 254 0 -300 1413 -189 0 0 0z"/>
  <path id="_6_11" class="fil0" d="M11033 18718l-212 0 293 -1413 215 0 -296 1413 0 0zm-931 -1413l-134 619c108,-23 202,-33 280,-33 144,0 254,33 323,98 71,62 107,156 107,277 0,143 -49,260 -143,348 -95,88 -228,130 -394,130 -147,0 -258,-32 -336,-104 -78,-68 -117,-169 -117,-299 0,-82 10,-166 29,-251l166 -785 219 0 0 0zm91 769c-88,0 -173,9 -264,26 -19,94 -29,169 -29,218 0,85 23,146 65,185 39,40 104,59 189,59 97,0 176,-26 231,-75 55,-52 81,-120 81,-205 0,-72 -19,-127 -61,-160 -43,-32 -114,-48 -212,-48z"/>
  <path id="_7_12" class="fil0" d="M12915 17286c160,0 290,48 381,146 95,95 144,228 144,397 0,163 -33,316 -95,460 -62,143 -143,254 -247,335 -105,78 -225,117 -355,117 -166,0 -293,-49 -388,-146 -91,-98 -137,-232 -137,-401 0,-163 30,-316 92,-462 65,-144 146,-254 254,-332 104,-75 221,-114 351,-114l0 0zm300 514c0,-98 -26,-179 -78,-241 -56,-62 -127,-91 -218,-91 -92,0 -176,32 -251,94 -72,65 -130,153 -170,267 -42,111 -61,238 -61,378 0,111 29,199 81,261 55,62 134,91 234,91 88,0 167,-29 238,-95 72,-61 127,-149 166,-267 39,-114 59,-247 59,-397l0 0z"/>
  <path id="_8_13" class="fil0" d="M14449 18718l189 -892c16,-81 23,-140 23,-176 0,-58 -13,-107 -39,-140 -26,-32 -72,-52 -134,-52 -71,0 -143,26 -208,78 -69,52 -130,127 -179,222 -52,97 -92,211 -121,348l-130 612 -215 0 300 -1413 179 0 -30 261 13 0c75,-105 150,-176 222,-222 75,-45 150,-68 228,-68 98,0 169,29 221,84 52,56 85,134 95,235l9 0c72,-108 150,-189 235,-241 81,-52 166,-78 251,-78 107,0 192,29 250,88 59,58 88,143 88,257 0,59 -9,133 -29,231l-182 866 -218 0 188 -892c17,-91 26,-153 26,-189 0,-55 -13,-97 -42,-130 -29,-33 -78,-49 -140,-49 -68,0 -137,26 -205,75 -68,52 -127,124 -176,215 -52,91 -91,199 -117,326l-137 644 -215 0 0 0z"/>
  <path id="_9_14" class="fil0" d="M16664 17286c162,0 289,48 384,146 94,95 140,228 140,397 0,163 -29,316 -91,460 -62,143 -144,254 -248,335 -107,78 -225,117 -358,117 -163,0 -290,-49 -384,-146 -92,-98 -137,-232 -137,-401 0,-163 29,-316 91,-462 62,-144 147,-254 254,-332 104,-75 222,-114 349,-114l0 0zm302 514c0,-98 -26,-179 -78,-241 -55,-62 -127,-91 -218,-91 -91,0 -176,32 -251,94 -71,65 -130,153 -169,267 -42,111 -62,238 -62,378 0,111 26,199 81,261 56,62 131,91 235,91 88,0 166,-29 238,-95 71,-61 127,-149 166,-267 39,-114 58,-247 58,-397l0 0z"/>
  <path id="_10" class="fil0" d="M18243 18718l189 -892c16,-91 26,-153 26,-186 0,-55 -16,-97 -46,-133 -29,-33 -78,-49 -143,-49 -78,0 -150,26 -225,78 -71,52 -133,127 -189,222 -55,94 -97,211 -123,348l-131 612 -215 0 300 -1413 179 0 -29 261 13 0c81,-105 159,-180 238,-225 75,-42 153,-65 234,-65 111,0 195,32 257,91 62,59 95,143 95,251 0,68 -10,146 -30,234l-182 866 -218 0 0 0z"/>
  <path id="_11" class="fil0" d="M19848 18718l-218 0 267 -1231c-36,-6 -68,-13 -101,-13 -65,0 -117,13 -159,39 -43,30 -78,72 -114,141 -36,61 -88,198 -160,400 -71,208 -130,355 -179,440 -52,84 -104,149 -166,185 -59,39 -130,59 -215,59 -42,0 -75,-7 -101,-20l0 -185c23,6 52,13 85,13 55,0 101,-16 140,-49 39,-33 78,-88 114,-160 39,-75 84,-192 137,-355 74,-221 140,-371 192,-455 49,-82 110,-141 182,-180 72,-35 163,-55 274,-55 107,0 215,13 315,42l-293 1384 0 0z"/>
  <path id="_12" class="fil0" d="M20858 18744c-156,0 -280,-45 -371,-140 -88,-94 -134,-224 -134,-390 0,-163 33,-316 95,-466 65,-150 149,-264 254,-348 104,-82 221,-124 345,-124 130,0 228,29 296,88 65,55 98,136 98,237 0,157 -72,277 -212,365 -143,91 -345,134 -609,134l-42 0 -3 104c0,114 26,202 78,264 52,65 133,94 244,94 52,0 107,-6 163,-23 58,-16 127,-42 212,-84l0 188c-79,40 -150,66 -212,79 -62,16 -127,22 -202,22l0 0zm176 -1283c-88,0 -170,43 -248,124 -75,78 -133,192 -176,336l17 0c192,0 342,-26 446,-79 104,-48 156,-123 156,-221 0,-46 -16,-85 -49,-114 -29,-29 -78,-46 -146,-46z"/>
  <polygon id="_13" class="fil0" points="22105,17305 21981,17898 22665,17898 22792,17305 23007,17305 22711,18718 22493,18718 22626,18080 21942,18080 21809,18718 21594,18718 21893,17305 "/>
  <path id="_14" class="fil0" d="M23665 17305l-192 896c-16,78 -23,136 -23,179 0,123 62,185 189,185 75,0 147,-26 218,-78 75,-52 137,-124 192,-221 56,-98 98,-212 127,-349l127 -612 212 0 -293 1413 -179 0 29 -260 -16 0c-82,107 -163,182 -238,225 -75,42 -156,61 -234,61 -111,0 -196,-29 -258,-87 -62,-62 -94,-147 -94,-258 0,-52 10,-127 29,-221l186 -873 218 0z"/>
  <path id="_15" class="fil0" d="M25326 18158c-72,0 -127,17 -170,46 -42,29 -84,91 -130,185 -52,114 -94,193 -127,232 -32,39 -68,65 -110,84 -40,20 -88,30 -147,30 -39,0 -75,-7 -98,-17l0 -172c17,6 39,10 62,10 42,0 78,-13 108,-40 26,-29 65,-91 114,-185 26,-59 58,-111 94,-153 36,-46 85,-78 143,-101 -78,-26 -140,-65 -182,-121 -42,-55 -65,-123 -65,-205 0,-137 49,-247 146,-325 98,-82 232,-121 401,-121l531 0 -297 1413 -215 0 121 -560 -179 0zm0 -664c-95,0 -170,23 -222,68 -52,46 -78,108 -78,189 0,144 95,215 277,215l241 0 98 -472 -316 0 0 0z"/>
  <path id="_16" class="fil0" d="M26348 18412l10 30c-94,201 -208,410 -342,618l-166 0c108,-247 196,-462 261,-648l237 0 0 0z"/>
  <path id="_17" class="fil0" d="M28149 17279c150,0 264,29 349,91 81,59 120,147 120,267 0,189 -120,313 -358,368l0 3c94,27 163,62 202,111 42,52 62,114 62,192 0,85 -20,157 -65,225 -46,65 -111,114 -196,153 -84,36 -185,55 -306,55 -176,0 -313,-48 -407,-146 -91,-101 -140,-244 -140,-436 0,-173 33,-323 94,-460 59,-133 147,-241 258,-312 114,-75 244,-111 387,-111l0 0zm-518 827l0 59c0,267 114,397 346,397 107,0 189,-23 250,-68 62,-46 95,-105 95,-186 0,-68 -29,-120 -85,-153 -55,-33 -143,-49 -260,-49l-346 0 0 0zm525 -641c-131,0 -238,39 -323,117 -88,78 -146,195 -179,342l290 0c150,0 264,-23 342,-69 78,-45 117,-110 117,-195 0,-62 -23,-111 -65,-143 -42,-36 -104,-52 -182,-52l0 0z"/>
  <path id="_18" class="fil0" d="M29517 17286c163,0 290,48 384,146 95,95 140,228 140,397 0,163 -29,316 -91,460 -62,143 -146,254 -251,335 -104,78 -221,117 -355,117 -162,0 -293,-49 -384,-146 -94,-98 -140,-232 -140,-401 0,-163 33,-316 95,-462 61,-144 146,-254 250,-332 104,-75 222,-114 352,-114zm303 514c0,-98 -29,-179 -82,-241 -52,-62 -123,-91 -215,-91 -94,0 -179,32 -250,94 -75,65 -131,153 -173,267 -39,111 -58,238 -58,378 0,111 26,199 78,261 55,62 133,91 234,91 88,0 169,-29 241,-95 69,-61 124,-149 163,-267 42,-114 62,-247 62,-397l0 0z"/>
  <path id="_19" class="fil0" d="M31539 17494c0,221 -36,430 -104,632 -72,202 -166,355 -283,459 -121,107 -254,159 -407,159 -144,0 -254,-42 -336,-133 -81,-91 -120,-215 -120,-375 0,-153 29,-299 88,-439 58,-137 136,-244 237,-323 98,-74 209,-114 333,-114 84,0 159,20 218,56 58,36 110,91 146,169l10 0 0 -39 0 -33c0,-221 -26,-384 -85,-491 -58,-108 -146,-160 -267,-160 -94,0 -185,20 -273,62l-56 -160c49,-22 105,-42 173,-58 68,-16 130,-23 182,-23 183,0 320,65 411,199 88,133 133,338 133,612l0 0zm-772 1068c118,0 222,-65 313,-195 91,-131 160,-306 202,-528 -29,-98 -68,-172 -124,-228 -55,-52 -124,-81 -198,-81 -79,0 -150,32 -222,97 -71,62 -127,147 -166,258 -42,107 -62,224 -62,348 0,104 20,186 65,244 46,56 108,85 192,85l0 0z"/>
  <path id="_20" class="fil0" d="M32458 17286c162,0 289,48 384,146 94,95 140,228 140,397 0,163 -29,316 -91,460 -62,143 -144,254 -248,335 -107,78 -224,117 -358,117 -163,0 -290,-49 -384,-146 -91,-98 -137,-232 -137,-401 0,-163 29,-316 91,-462 62,-144 147,-254 251,-332 107,-75 225,-114 352,-114zm302 514c0,-98 -26,-179 -78,-241 -55,-62 -127,-91 -218,-91 -91,0 -176,32 -251,94 -71,65 -130,153 -169,267 -42,111 -62,238 -62,378 0,111 26,199 82,261 55,62 130,91 234,91 88,0 166,-29 238,-95 71,-61 127,-149 166,-267 39,-114 58,-247 58,-397l0 0z"/>
  <path id="_21" class="fil0" d="M33754 18744c-166,0 -293,-45 -385,-136 -91,-92 -140,-222 -140,-391 0,-173 33,-332 98,-479 62,-143 150,-257 261,-338 110,-82 234,-124 374,-124 117,0 231,23 342,68l-59 183c-104,-46 -195,-69 -280,-69 -97,0 -182,36 -260,101 -82,65 -143,156 -186,274 -45,117 -68,247 -68,384 0,111 29,195 84,257 59,62 134,91 235,91 62,0 120,-9 173,-26 55,-16 110,-36 162,-58l0 182c-104,55 -224,81 -351,81l0 0z"/>
  <polygon id="_22" class="fil0" points="34871,17305 34747,17898 35431,17898 35555,17305 35769,17305 35476,18718 35258,18718 35392,18080 34708,18080 34574,18718 34359,18718 34659,17305 "/>
  <path id="_23" class="fil0" d="M36668 17276c78,0 150,23 212,65 59,42 107,104 143,186l13 0 85 -222 163 0 -297 1413 -172 0 36 -270 -13 0c-150,199 -313,296 -482,296 -118,0 -209,-42 -277,-127 -69,-84 -101,-201 -101,-351 0,-179 29,-345 91,-499 59,-153 143,-273 251,-361 104,-85 221,-130 348,-130l0 0zm-241 1289c82,0 163,-39 245,-120 81,-78 149,-183 201,-310 49,-127 75,-257 75,-384 0,-91 -22,-159 -71,-211 -46,-53 -111,-82 -186,-82 -91,0 -173,39 -247,114 -79,72 -137,173 -183,300 -42,127 -65,260 -65,400 0,98 23,173 62,222 39,49 94,71 169,71l0 0z"/>
  <path id="_24" class="fil0" d="M37460 18152c0,-192 29,-391 91,-593 62,-205 143,-368 241,-488 101,-121 211,-199 338,-238 62,-20 173,-42 329,-72 157,-29 274,-49 352,-62l26 179 -137 23c-224,36 -390,72 -488,104 -222,72 -378,287 -472,636l6 6c62,-78 134,-137 218,-179 82,-42 166,-65 254,-65 134,0 232,42 297,127 68,84 101,202 101,351 0,173 -30,326 -85,460 -55,133 -130,234 -228,303 -98,68 -215,100 -345,100 -163,0 -284,-48 -371,-149 -85,-101 -127,-248 -127,-443l0 0zm514 413c85,0 156,-26 218,-81 62,-55 111,-137 147,-241 36,-108 55,-218 55,-335 0,-114 -19,-196 -55,-245 -39,-52 -95,-78 -170,-78 -78,0 -159,29 -244,82 -84,52 -156,123 -218,211 -19,98 -29,192 -29,280 0,271 97,407 296,407l0 0z"/>
  <path id="_25" class="fil0" d="M39736 18087l-205 0c-30,130 -75,247 -137,345 -62,98 -137,176 -228,231 -91,55 -192,81 -306,81 -59,0 -111,-6 -156,-19l32 -179c42,13 88,19 127,19 88,0 169,-32 244,-101 72,-65 131,-156 170,-273 42,-117 65,-238 65,-362 0,-120 -23,-211 -65,-276 -46,-62 -111,-95 -196,-95 -42,0 -88,7 -143,20l0 -176c75,-16 134,-26 176,-26 146,0 257,49 332,140 78,91 114,228 114,407l-3 98 215 0 127 -616 198 0 -136 616 211 0c23,-127 69,-241 137,-342 62,-101 140,-179 228,-228 88,-49 186,-75 290,-75 65,0 127,10 179,26l-39 176c-46,-13 -91,-20 -140,-20 -88,0 -166,33 -238,98 -68,65 -124,156 -166,273 -42,121 -62,245 -62,368 0,121 20,212 62,274 42,62 104,94 189,94 49,0 98,-6 150,-19l0 179c-72,13 -131,19 -173,19 -146,0 -260,-45 -335,-140 -75,-94 -114,-228 -114,-403 0,-49 3,-85 6,-114l-218 0 -130 631 -196 0 134 -631 0 0z"/>
  <path id="_26" class="fil0" d="M41560 18744c-157,0 -281,-45 -368,-140 -92,-94 -137,-224 -137,-390 0,-163 32,-316 94,-466 65,-150 150,-264 254,-348 104,-82 222,-124 345,-124 131,0 228,29 297,88 65,55 97,136 97,237 0,157 -71,277 -211,365 -144,91 -345,134 -609,134l-43 0 -3 104c0,114 26,202 78,264 52,65 134,94 245,94 52,0 107,-6 166,-23 55,-16 127,-42 211,-84l0 188c-81,40 -153,66 -215,79 -58,16 -127,22 -201,22l0 0zm179 -1283c-92,0 -173,43 -248,124 -78,78 -137,192 -179,336l16 0c192,0 342,-26 446,-79 105,-48 157,-123 157,-221 0,-46 -17,-85 -49,-114 -29,-29 -78,-46 -143,-46l0 0z"/>
  <polygon id="_27" class="fil0" points="42807,17305 42683,17898 43367,17898 43494,17305 43709,17305 43412,18718 43194,18718 43328,18080 42647,18080 42510,18718 42295,18718 42595,17305 "/>
  <path id="_28" class="fil0" d="M44367 17305l-193 896c-16,78 -22,136 -22,179 0,123 62,185 189,185 74,0 146,-26 221,-78 72,-52 134,-124 189,-221 55,-98 98,-212 127,-349l127 -612 215 0 -297 1413 -179 0 30 -260 -17 0c-81,107 -162,182 -237,225 -75,42 -153,61 -235,61 -111,0 -195,-29 -257,-87 -62,-62 -94,-147 -94,-258 0,-52 9,-127 29,-221l185 -873 219 0 0 0z"/>
  <path id="_29" class="fil0" d="M46027 18158c-71,0 -127,17 -169,46 -42,29 -85,91 -127,185 -55,114 -98,193 -130,232 -33,39 -69,65 -111,84 -39,20 -88,30 -143,30 -42,0 -75,-7 -101,-17l0 -172c16,6 39,10 62,10 42,0 78,-13 107,-40 30,-29 65,-91 114,-185 26,-59 59,-111 95,-153 35,-46 84,-78 143,-101 -78,-26 -140,-65 -182,-121 -43,-55 -66,-123 -66,-205 0,-137 49,-247 147,-325 98,-82 231,-121 401,-121l530 0 -296 1413 -212 0 118 -560 -180 0zm0 -664c-94,0 -169,23 -221,68 -52,46 -75,108 -75,189 0,144 91,215 274,215l241 0 97 -472 -316 0 0 0z"/>
  <path id="_30" class="fil0" d="M47050 18412l13 30c-98,201 -212,410 -345,618l-166 0c107,-247 195,-462 260,-648l238 0 0 0z"/>
  <polygon id="_31" class="fil0" points="1026,20907 1299,20907 596,21604 1075,22323 817,22323 361,21617 215,22323 0,22323 296,20907 508,20907 365,21591 "/>
  <path id="_32" class="fil0" d="M1996 20887c160,0 290,49 381,147 95,97 144,231 144,400 0,160 -33,313 -95,459 -62,144 -143,254 -247,333 -105,78 -225,117 -355,117 -166,0 -293,-49 -388,-147 -91,-97 -137,-231 -137,-397 0,-166 30,-319 92,-462 65,-147 146,-258 254,-333 104,-78 221,-117 351,-117l0 0zm300 518c0,-101 -26,-179 -78,-241 -56,-62 -127,-94 -219,-94 -91,0 -175,32 -250,97 -72,62 -131,150 -170,264 -42,114 -61,241 -61,378 0,114 29,202 81,264 55,58 133,91 234,91 88,0 166,-33 238,-95 72,-62 127,-153 166,-267 39,-117 59,-250 59,-397l0 0z"/>
  <polygon id="_33" class="fil0" points="3227,20907 3103,21499 3787,21499 3914,20907 4129,20907 3833,22323 3615,22323 3748,21685 3068,21685 2931,22323 2716,22323 3016,20907 "/>
  <path id="_34" class="fil0" d="M5585 21099c0,218 -33,430 -104,628 -72,202 -166,355 -284,463 -120,104 -254,159 -407,159 -143,0 -254,-45 -335,-136 -78,-88 -121,-215 -121,-375 0,-153 30,-299 88,-439 59,-137 137,-245 238,-320 101,-78 212,-114 332,-114 85,0 160,17 218,52 62,36 111,95 150,173l7 0 3 -42 0 -33c0,-221 -29,-384 -88,-492 -59,-104 -146,-159 -267,-159 -94,0 -186,23 -274,62l-55 -160c49,-23 104,-42 173,-58 68,-17 130,-23 182,-23 182,0 319,65 410,202 92,133 134,335 134,612l0 0zm-772 1068c117,0 222,-65 313,-195 94,-131 159,-310 202,-531 -26,-95 -69,-173 -124,-225 -55,-55 -121,-81 -199,-81 -78,0 -150,32 -221,94 -69,62 -127,150 -166,257 -43,108 -62,225 -62,349 0,104 23,185 65,244 46,59 111,88 192,88l0 0z"/>
  <path id="_35" class="fil0" d="M6259 20907l-192 899c-13,74 -23,133 -23,179 0,123 65,185 189,185 75,0 150,-26 221,-78 72,-52 137,-127 193,-225 55,-94 97,-211 127,-348l127 -612 211 0 -296 1416 -176 0 29 -263 -16 0c-85,107 -163,182 -241,224 -75,43 -153,65 -234,65 -108,0 -196,-29 -258,-91 -62,-58 -91,-143 -91,-257 0,-52 10,-127 26,-221l189 -873 215 0 0 0z"/>
  <path id="_36" class="fil0" d="M7770 20907l-192 899c-13,74 -23,133 -23,179 0,123 65,185 189,185 75,0 150,-26 221,-78 72,-52 137,-127 193,-225 55,-94 97,-211 127,-348l127 -612 211 0 -208 1000c-13,68 -23,123 -23,166 0,68 36,101 101,101 23,0 55,-7 101,-17l-147 655 -218 0 101 -469c-52,-13 -91,-42 -114,-85 -26,-42 -39,-107 -39,-195l-10 0c-130,192 -290,286 -475,286 -111,0 -199,-32 -261,-91 -62,-62 -91,-146 -91,-257 0,-52 10,-127 26,-221l186 -873 218 0 0 0z"/>
  <path id="_37" class="fil0" d="M9330 20907l-192 899c-17,74 -23,133 -23,179 0,123 62,185 186,185 74,0 149,-26 221,-78 75,-52 137,-127 192,-225 56,-94 98,-211 127,-348l127 -612 212 0 -293 1416 -179 0 29 -263 -16 0c-85,107 -163,182 -238,224 -78,43 -156,65 -235,65 -110,0 -195,-29 -257,-91 -65,-58 -94,-143 -94,-257 0,-52 10,-127 29,-221l186 -873 218 0 0 0z"/>
  <path id="_38" class="fil0" d="M11085 20887c163,0 290,49 384,147 95,97 140,231 140,400 0,160 -32,313 -91,459 -62,144 -146,254 -250,333 -105,78 -225,117 -355,117 -163,0 -294,-49 -385,-147 -94,-97 -140,-231 -140,-397 0,-166 33,-319 95,-462 62,-147 146,-258 250,-333 105,-78 222,-117 352,-117l0 0zm303 518c0,-101 -29,-179 -81,-241 -53,-62 -124,-94 -215,-94 -95,0 -179,32 -251,97 -75,62 -130,150 -173,264 -39,114 -58,241 -58,378 0,114 26,202 78,264 55,58 133,91 234,91 88,0 170,-33 241,-95 69,-62 124,-153 163,-267 39,-117 62,-250 62,-397l0 0z"/>
  <polygon id="_39" class="fil0" points="12319,20907 12196,21499 12879,21499 13003,20907 13218,20907 12922,22323 12704,22323 12837,21685 12157,21685 12023,22323 11808,22323 12104,20907 "/>
  <path id="_40" class="fil0" d="M13876 20907l-192 899c-13,74 -23,133 -23,179 0,123 62,185 189,185 75,0 150,-26 221,-78 72,-52 137,-127 192,-225 56,-94 98,-211 124,-348l130 -612 212 0 -296 1416 -176 0 26 -263 -13 0c-85,107 -163,182 -241,224 -75,43 -153,65 -234,65 -108,0 -196,-29 -258,-91 -62,-58 -94,-143 -94,-257 0,-52 10,-127 29,-221l186 -873 218 0 0 0z"/>
  <path id="_41" class="fil0" d="M15507 22349c-81,0 -156,-22 -218,-65 -62,-42 -110,-104 -143,-182l-13 0 -7 49c0,23 -6,52 -13,91 -6,39 -55,277 -146,716l-212 0 430 -2051 179 0 -36 270 13 0c150,-195 310,-293 476,-293 114,0 208,42 273,124 69,84 101,202 101,355 0,182 -29,348 -88,501 -58,153 -140,274 -244,358 -104,85 -221,127 -352,127zm238 -1286c-81,0 -166,39 -251,124 -84,81 -153,182 -201,306 -49,127 -75,254 -75,381 0,98 26,169 71,218 49,52 114,78 205,78 85,0 163,-36 235,-107 75,-69 133,-170 176,-297 45,-130 68,-267 68,-410 0,-195 -78,-293 -228,-293l0 0z"/>
  <path id="_42" class="fil0" d="M17142 20887c163,0 290,49 385,147 94,97 140,231 140,400 0,160 -30,313 -92,459 -62,144 -143,254 -250,333 -105,78 -222,117 -355,117 -163,0 -290,-49 -385,-147 -91,-97 -140,-231 -140,-397 0,-166 33,-319 95,-462 62,-147 146,-258 251,-333 107,-78 224,-117 351,-117l0 0zm303 518c0,-101 -26,-179 -81,-241 -52,-62 -124,-94 -215,-94 -95,0 -176,32 -251,97 -72,62 -130,150 -169,264 -43,114 -62,241 -62,378 0,114 26,202 81,264 52,58 130,91 231,91 92,0 170,-33 241,-95 72,-62 127,-153 166,-267 40,-117 59,-250 59,-397l0 0z"/>
  <path id="_43" class="fil0" d="M18653 20884c150,0 264,29 345,88 82,59 124,150 124,267 0,192 -120,313 -358,368l0 6c94,23 160,62 202,111 42,49 62,114 62,192 0,82 -23,157 -65,222 -46,65 -111,117 -196,153 -84,39 -189,58 -306,58 -176,0 -313,-48 -407,-149 -91,-98 -140,-245 -140,-437 0,-169 33,-322 91,-459 62,-133 150,-238 261,-313 114,-71 241,-107 387,-107l0 0zm-518 824l0 62c0,264 114,397 346,397 107,0 189,-23 250,-68 62,-46 92,-108 92,-186 0,-72 -26,-120 -82,-156 -55,-33 -143,-49 -264,-49l-342 0 0 0zm525 -638c-130,0 -238,39 -323,117 -88,78 -146,192 -179,342l290 0c150,0 264,-23 342,-69 78,-45 117,-110 117,-195 0,-62 -23,-111 -65,-147 -42,-32 -104,-48 -182,-48l0 0z"/>
  <path id="_44" class="fil0" d="M20014 20881c79,0 150,19 212,62 59,45 108,104 143,185l13 0 85 -221 163 0 -296 1416 -173 0 36 -270 -13 0c-150,195 -313,296 -482,296 -117,0 -209,-42 -277,-130 -68,-85 -101,-202 -101,-348 0,-179 29,-346 91,-499 59,-153 144,-273 251,-361 104,-88 221,-130 348,-130l0 0zm-241 1289c82,0 163,-42 245,-120 81,-82 150,-186 202,-313 48,-127 75,-254 75,-384 0,-88 -23,-160 -72,-212 -46,-52 -111,-78 -186,-78 -91,0 -172,36 -247,111 -78,75 -137,176 -183,299 -42,127 -65,261 -65,401 0,101 23,173 62,221 39,49 95,75 170,75l-1 0z"/>
  <polygon id="_45" class="fil0" points="21265,20907 21141,21499 21825,21499 21949,20907 22164,20907 21867,22323 21653,22323 21783,21685 21102,21685 20969,22323 20754,22323 21053,20907 "/>
  <path id="_46" class="fil0" d="M22822 20907l-193 899c-13,74 -22,133 -22,179 0,123 65,185 189,185 74,0 149,-26 221,-78 72,-52 137,-127 192,-225 55,-94 98,-211 127,-348l127 -612 212 0 -297 1416 -175 0 26 -263 -13 0c-85,107 -163,182 -241,224 -75,43 -153,65 -235,65 -107,0 -195,-29 -257,-91 -62,-58 -91,-143 -91,-257 0,-52 9,-127 26,-221l185 -873 219 0 0 0z"/>
  <path id="_47" class="fil0" d="M24482 21760c-71,0 -127,16 -169,46 -39,32 -81,94 -127,188 -52,114 -94,189 -127,228 -33,39 -72,69 -111,88 -42,20 -91,30 -146,30 -43,0 -75,-7 -101,-17l0 -172c19,3 39,6 65,6 39,0 75,-13 104,-39 30,-26 69,-88 114,-185 26,-59 59,-108 95,-153 35,-43 84,-75 143,-101 -78,-23 -140,-62 -182,-118 -43,-55 -62,-123 -62,-208 0,-137 49,-244 146,-326 98,-81 231,-120 401,-120l527 0 -296 1416 -212 0 118 -563 -180 0 0 0zm0 -664c-94,0 -166,22 -218,71 -52,46 -78,108 -78,186 0,146 91,218 274,218l241 0 101 -475 -320 0 0 0z"/>
  <path id="_48" class="fil0" d="M26391 20907l-189 899c-16,74 -23,133 -23,179 0,123 62,185 186,185 75,0 149,-26 221,-78 72,-52 137,-127 192,-225 56,-94 98,-211 127,-348l127 -612 212 0 -293 1416 -179 0 29 -263 -16 0c-85,107 -163,182 -238,224 -78,43 -156,65 -238,65 -107,0 -192,-29 -257,-91 -62,-58 -91,-143 -91,-257 0,-52 10,-127 26,-221l189 -873 215 0 0 0z"/>
  <path id="_49" class="fil0" d="M28869 20884c150,0 267,29 348,88 82,59 121,150 121,267 0,192 -117,313 -358,368l0 6c94,23 162,62 205,111 39,49 62,114 62,192 0,82 -23,157 -69,222 -42,65 -107,117 -195,153 -85,39 -186,58 -303,58 -179,0 -316,-48 -407,-149 -94,-98 -140,-245 -140,-437 0,-169 29,-322 91,-459 59,-133 147,-238 261,-313 110,-71 241,-107 384,-107l0 0zm-518 824l0 62c0,264 117,397 349,397 104,0 188,-23 247,-68 62,-46 95,-108 95,-186 0,-72 -30,-120 -85,-156 -56,-33 -143,-49 -261,-49l-345 0 0 0zm524 -638c-130,0 -237,39 -322,117 -85,78 -143,192 -176,342l287 0c150,0 264,-23 342,-69 78,-45 117,-110 117,-195 0,-62 -20,-111 -65,-147 -43,-32 -104,-48 -183,-48l0 0z"/>
  <path id="_50" class="fil0" d="M30045 22349c-157,0 -281,-48 -368,-143 -92,-91 -137,-221 -137,-387 0,-163 32,-320 94,-469 65,-147 150,-264 254,-346 104,-81 222,-123 345,-123 131,0 228,29 297,84 65,59 97,137 97,241 0,153 -71,277 -211,365 -144,88 -345,134 -609,134l-43 0 -3 101c0,114 26,201 78,263 52,65 134,98 245,98 52,0 107,-10 166,-23 55,-16 127,-45 211,-88l0 189c-81,39 -153,65 -215,82 -58,13 -127,22 -201,22l0 0zm179 -1283c-92,0 -173,39 -248,121 -78,81 -137,192 -179,335l16 0c192,0 342,-26 446,-75 105,-52 157,-127 157,-224 0,-46 -17,-82 -49,-111 -29,-33 -78,-46 -143,-46l0 0z"/>
  <polygon id="_51" class="fil0" points="31292,20907 31168,21499 31852,21499 31979,20907 32194,20907 31897,22323 31679,22323 31813,21685 31132,21685 30995,22323 30780,22323 31080,20907 "/>
  <path id="_52" class="fil0" d="M33164 22323l189 -895c16,-82 23,-140 23,-173 0,-62 -13,-107 -39,-143 -26,-33 -72,-49 -137,-49 -72,0 -140,26 -208,78 -69,52 -127,124 -179,222 -53,94 -92,211 -118,345l-130 615 -215 0 300 -1416 176 0 -26 260 13 0c71,-101 146,-176 221,-221 72,-42 150,-65 228,-65 94,0 169,26 221,84 52,56 82,134 92,232l13 0c71,-108 149,-186 231,-238 84,-52 166,-78 251,-78 107,0 192,29 250,88 62,58 91,143 91,254 0,58 -9,136 -29,231l-185 869 -215 0 189 -895c16,-88 26,-153 26,-189 0,-52 -17,-95 -46,-127 -29,-33 -75,-49 -137,-49 -71,0 -140,26 -205,75 -68,49 -127,120 -179,212 -49,91 -88,202 -114,325l-137 648 -215 0 0 0z"/>
  <path id="_53" class="fil0" d="M35134 20907l-192 899c-16,74 -22,133 -22,179 0,123 61,185 188,185 75,0 147,-26 219,-78 74,-52 136,-127 192,-225 55,-94 97,-211 127,-348l127 -612 211 0 -293 1416 -179 0 29 -263 -16 0c-81,107 -163,182 -238,224 -74,43 -156,65 -234,65 -111,0 -195,-29 -257,-91 -62,-58 -95,-143 -95,-257 0,-52 10,-127 30,-221l185 -873 218 0 0 0z"/>
  <path id="_54" class="fil0" d="M37095 22323l-218 0 263 -1234c-32,-6 -65,-10 -97,-10 -65,0 -121,13 -160,39 -42,26 -78,72 -114,137 -36,65 -88,199 -159,404 -72,205 -134,352 -183,440 -49,84 -104,146 -163,185 -58,36 -133,56 -218,56 -39,0 -71,-7 -97,-17l0 -189c22,10 52,13 84,13 56,0 101,-16 140,-48 39,-33 78,-85 114,-160 36,-75 82,-192 137,-352 75,-221 137,-374 189,-456 52,-81 114,-143 185,-179 69,-39 163,-55 274,-55 108,0 212,13 316,39l-293 1387 0 0z"/>
  <path id="_55" class="fil0" d="M38202 21760c-72,0 -130,16 -169,46 -43,32 -85,94 -131,188 -52,114 -94,189 -127,228 -32,39 -71,69 -110,88 -43,20 -91,30 -147,30 -42,0 -75,-7 -97,-17l0 -172c16,3 35,6 61,6 43,0 75,-13 105,-39 29,-26 68,-88 114,-185 29,-59 58,-108 97,-153 36,-43 82,-75 144,-101 -82,-23 -140,-62 -186,-118 -42,-55 -62,-123 -62,-208 0,-137 49,-244 147,-326 97,-81 231,-120 400,-120l528 0 -297 1416 -211 0 120 -563 -179 0 0 0zm0 -664c-98,0 -169,22 -221,71 -52,46 -79,108 -79,186 0,146 92,218 277,218l238 0 101 -475 -316 0 0 0z"/>
  <path id="_56" class="fil0" d="M39430 20907l-192 899c-17,74 -23,133 -23,179 0,123 62,185 189,185 75,0 146,-26 221,-78 72,-52 134,-127 189,-225 55,-94 98,-211 127,-348l130 -612 212 0 -212 1000c-13,68 -19,123 -19,166 0,68 32,101 101,101 23,0 55,-7 97,-17l-143 655 -221 0 104 -469c-52,-13 -91,-42 -117,-85 -23,-42 -36,-107 -36,-195l-10 0c-133,192 -293,286 -475,286 -111,0 -199,-32 -261,-91 -62,-62 -94,-146 -94,-257 0,-52 9,-127 29,-221l186 -873 218 0 0 0z"/>
  <path id="_57" class="fil0" d="M40986 20907l-192 899c-13,74 -23,133 -23,179 0,123 66,185 189,185 75,0 150,-26 222,-78 71,-52 137,-127 192,-225 55,-94 98,-211 127,-348l127 -612 212 0 -297 1416 -176 0 30 -263 -17 0c-84,107 -162,182 -241,224 -74,43 -153,65 -234,65 -108,0 -195,-29 -257,-91 -62,-58 -91,-143 -91,-257 0,-52 9,-127 26,-221l188 -873 215 0 0 0z"/>
  <path id="_58" class="fil0" d="M42497 20907l-192 899c-13,74 -23,133 -23,179 0,123 66,185 189,185 75,0 150,-26 222,-78 71,-52 137,-127 192,-225 55,-94 98,-211 127,-348l127 -612 212 0 -297 1416 -176 0 26 -263 -13 0c-84,107 -162,182 -241,224 -74,43 -153,65 -234,65 -107,0 -195,-29 -257,-91 -62,-58 -91,-143 -91,-257 0,-52 6,-127 26,-221l185 -873 218 0 0 0z"/>
  <polygon class="fil0" points="2032,27241 1374,27241 1374,25072 710,25072 710,27241 55,27241 55,24453 2032,24453 "/>
  <path id="_1_15" class="fil0" d="M4299 25339c0,312 -79,553 -238,723 -160,169 -384,254 -677,254l-183 0 0 925 -651 0 0 -2788 834 0c306,0 534,78 687,231 153,153 228,372 228,655l0 0zm-1098 365l117 0c98,0 176,-33 235,-95 58,-65 88,-153 88,-264 0,-189 -91,-283 -271,-283l-169 0 0 642 0 0z"/>
  <path id="_2_16" class="fil0" d="M6936 25844c0,469 -97,824 -296,1068 -199,244 -492,368 -876,368 -378,0 -668,-124 -869,-368 -199,-248 -300,-603 -300,-1072 0,-462 98,-817 300,-1061 201,-244 491,-368 872,-368 385,0 674,120 873,364 199,241 296,600 296,1069l0 0zm-1657 0c0,537 163,807 485,807 166,0 290,-65 368,-195 81,-134 120,-336 120,-612 0,-280 -42,-486 -120,-616 -81,-133 -202,-202 -365,-202 -325,0 -488,274 -488,818z"/>
  <polygon id="_3_17" class="fil0" points="8802,27241 7373,27241 7373,24453 8802,24453 8802,25059 8024,25059 8024,25495 8744,25495 8744,26101 8024,26101 8024,26628 8802,26628 "/>
  <polygon id="_4_18" class="fil0" points="11333,27241 10593,27241 9880,25827 9880,27241 9226,27241 9226,24453 9880,24453 9880,25805 10567,24453 11284,24453 10541,25785 "/>
  <polygon id="_5_19" class="fil0" points="12638,27241 11990,27241 11990,25072 11401,25072 11401,24453 13228,24453 13228,25072 12638,25072 "/>
  <path id="_6_20" class="fil0" d="M14130 26671l23 42c-104,485 -202,840 -290,1068l-459 0c32,-172 65,-371 97,-589 33,-218 56,-391 66,-521l563 0 0 0z"/>
  <path id="_7_21" class="fil0" d="M16540 27241l-492 -2006 -16 0c26,342 36,605 36,794l0 1212 -577 0 0 -2788 866 0 505 1980 13 0 492 -1980 869 0 0 2788 -599 0 0 -1222c0,-65 0,-133 3,-211 0,-78 10,-267 23,-570l-16 0 -485 2003 -622 0 0 0z"/>
  <path id="_8_22" class="fil0" d="M21008 25844c0,469 -98,824 -297,1068 -198,244 -491,368 -872,368 -381,0 -668,-124 -873,-368 -199,-248 -300,-603 -300,-1072 0,-462 98,-817 300,-1061 202,-244 492,-368 876,-368 381,0 674,120 869,364 199,241 297,600 297,1069l0 0zm-1658 0c0,537 163,807 489,807 162,0 286,-65 364,-195 82,-134 121,-336 121,-612 0,-280 -39,-486 -121,-616 -81,-133 -202,-202 -361,-202 -329,0 -492,274 -492,818l0 0z"/>
  <polygon id="_9_23" class="fil0" points="23509,27241 22854,27241 22854,26104 22099,26104 22099,27241 21444,27241 21444,24453 22099,24453 22099,25489 22854,25489 22854,24453 23509,24453 "/>
  <polygon id="_10_24" class="fil0" points="25095,27241 24443,27241 24443,25072 23854,25072 23854,24453 25681,24453 25681,25072 25095,25072 "/>
  <path id="_11_25" class="fil0" d="M27501 27241l-117 -525 -782 0 -123 525 -717 0 788 -2798 870 0 794 2798 -713 0 0 0zm-254 -1140l-101 -459c-26,-101 -55,-231 -91,-394 -33,-160 -55,-277 -65,-346 -13,66 -33,170 -59,320 -29,149 -94,443 -195,879l511 0z"/>
  <polygon id="_12_26" class="fil0" points="28963,25785 28263,24453 28963,24453 29631,25805 29631,24453 30259,24453 30259,25805 30934,24453 31634,24453 30927,25785 31689,27241 30973,27241 30259,25827 30259,27241 29631,27241 29631,25827 28921,27241 28201,27241 "/>
  <path id="_13_27" class="fil0" d="M32497 26671l22 42c-104,485 -201,840 -289,1068l-460 0c33,-172 66,-371 98,-589 33,-218 56,-391 65,-521l564 0 0 0z"/>
  <path id="_14_28" class="fil0" d="M34929 25033c-153,0 -273,71 -361,218 -88,146 -130,348 -130,609 0,534 175,801 527,801 108,0 212,-16 313,-49 97,-36 198,-78 299,-127l0 638c-202,105 -426,157 -680,157 -365,0 -645,-124 -837,-368 -196,-244 -290,-596 -290,-1055 0,-290 46,-544 140,-762 94,-219 228,-385 404,-505 179,-117 384,-176 622,-176 260,0 511,65 749,195l-202 593c-88,-49 -176,-88 -267,-120 -88,-33 -183,-49 -287,-49l0 0z"/>
  <polygon id="_15_29" class="fil0" points="37479,27241 36046,27241 36046,24453 37479,24453 37479,25059 36698,25059 36698,25495 37421,25495 37421,26101 36698,26101 36698,26628 37479,26628 "/>
  <path id="_16_30" class="fil0" d="M39648 25339c0,312 -78,553 -238,723 -159,169 -384,254 -674,254l-185 0 0 925 -652 0 0 -2788 837 0c303,0 531,78 684,231 153,153 228,372 228,655l0 0zm-1097 365l120 0c98,0 176,-33 231,-95 59,-65 88,-153 88,-264 0,-189 -91,-283 -270,-283l-169 0 0 642 0 0z"/>
  <path id="_17_31" class="fil0" d="M40032 24453l844 0c325,0 570,55 726,169 159,114 241,287 241,525 0,156 -36,290 -104,400 -72,111 -163,183 -274,215l0 17c150,45 257,123 322,231 69,104 101,244 101,413 0,254 -81,453 -244,599 -166,144 -391,219 -674,219l-938 0 0 -2788 0 0zm652 1071l195 0c94,0 166,-22 218,-68 52,-45 78,-111 78,-199 0,-156 -104,-234 -309,-234l-182 0 0 501 0 0zm0 551l0 583 231 0c202,0 303,-98 303,-297 0,-94 -26,-162 -82,-215 -55,-48 -133,-71 -238,-71l-214 0 0 0z"/>
  <path id="_18_32" class="fil0" d="M42309 24453l579 0 0 1198c0,127 -10,382 -26,763l13 0 961 -1961 804 0 0 2788 -579 0 0 -1166c0,-179 9,-443 32,-795l-16 0 -967 1961 -801 0 0 -2788 0 0z"/>
  <path id="_19_33" class="fil0" d="M46233 25033c-153,0 -277,71 -362,218 -88,146 -130,348 -130,609 0,534 176,801 527,801 108,0 212,-16 313,-49 98,-36 199,-78 300,-127l0 638c-202,105 -430,157 -681,157 -365,0 -645,-124 -837,-368 -195,-244 -293,-596 -293,-1055 0,-290 49,-544 143,-762 91,-219 228,-385 404,-505 176,-117 384,-176 622,-176 261,0 511,65 746,195l-199 593c-88,-49 -176,-88 -267,-120 -88,-33 -182,-49 -286,-49z"/>
  <polygon class="fil1" points="4582,11186 7646,1612 55,14758 10662,12456 8594,10180 4627,11040 "/>
  <polygon class="fil1" points="8412,9685 9652,5819 16305,13147 8718,0 5406,10336 "/>
  <polygon class="fil1" points="9870,6848 8933,9776 11662,12779 1993,14879 17168,14879 "/>
 </g>
</svg>
